{"glyphs":{"0":{"ha":750,"x_min":75,"x_max":678,"o":"m 550 1082 q 631 917 600 1017 q 669 704 660 819 q 664 472 678 589 q 610 249 649 346 q 514 93 572 151 q 332 14 435 14 q 288 17 310 14 q 242 28 265 21 q 132 133 172 51 q 105 213 117 168 q 86 310 93 257 q 80 519 75 406 q 104 744 85 632 q 119 815 110 774 q 142 899 128 856 q 174 985 156 943 q 215 1060 192 1026 q 268 1112 239 1093 q 332 1129 297 1131 q 360 1115 349 1128 q 371 1086 372 1103 q 356 1057 369 1068 q 326 1047 343 1046 q 297 1031 315 1047 q 257 969 279 1014 q 217 864 235 925 q 186 731 199 803 q 162 516 167 622 q 168 319 157 410 q 205 174 179 229 q 267 107 231 118 q 456 151 378 74 q 537 285 504 199 q 582 482 569 371 q 587 697 594 588 q 551 893 579 806 q 486 1031 525 981 q 400 1089 447 1081 q 374 1107 383 1093 q 367 1138 364 1121 q 385 1164 371 1154 q 415 1171 399 1174 q 550 1082 490 1157 z "},"1":{"ha":225,"x_min":40,"x_max":172,"o":"m 153 218 q 156 123 154 151 q 161 85 158 94 q 172 54 172 74 q 159 28 171 39 q 131 17 147 17 l 128 17 q 107 23 121 17 q 85 53 93 29 q 81 68 82 60 q 76 88 79 76 q 73 130 74 106 q 71 188 72 154 q 70 328 69 249 q 72 494 71 407 q 74 701 74 597 q 72 896 75 804 q 47 1149 68 1097 q 48 1181 40 1165 q 71 1203 56 1196 q 101 1202 86 1210 q 124 1179 117 1194 q 144 1083 138 1146 q 154 931 151 1019 q 156 733 157 843 q 154 493 156 622 q 152 345 153 415 q 153 218 151 275 z "},"2":{"ha":854,"x_min":67,"x_max":788,"o":"m 767 278 q 785 251 782 267 q 778 221 788 235 q 640 157 722 142 q 577 181 608 164 q 514 219 546 199 l 506 226 q 439 139 472 178 q 215 -6 314 -6 q 158 6 185 -6 q 110 39 131 18 q 78 88 89 60 q 69 147 67 115 q 94 222 74 183 q 147 294 114 261 q 219 349 181 328 q 296 376 258 371 q 394 371 349 383 q 479 338 439 358 q 558 486 522 408 q 621 643 594 564 q 671 897 667 783 q 638 1086 675 1011 q 576 1126 617 1122 q 488 1109 536 1129 q 394 1060 439 1089 q 313 1001 349 1032 q 265 954 278 971 q 238 938 254 940 q 207 944 222 935 q 190 972 193 956 q 199 1003 188 988 q 260 1065 218 1029 q 351 1132 303 1101 q 401 1160 374 1146 q 460 1187 429 1175 q 522 1205 490 1199 q 582 1208 553 1211 q 710 1124 669 1203 q 753 886 760 1029 q 699 618 746 761 q 633 451 671 533 q 550 294 594 369 q 558 289 556 292 q 619 252 596 265 q 659 237 643 239 q 686 243 675 235 q 710 268 697 251 q 736 285 719 282 q 767 278 753 288 m 376 193 q 433 268 408 229 q 384 288 410 281 q 331 296 358 296 q 319 296 325 296 q 308 294 314 296 q 256 275 283 290 q 206 238 229 260 q 168 190 183 215 q 151 140 153 164 q 169 95 149 114 q 217 76 190 76 q 244 83 229 76 q 269 96 258 89 q 376 193 321 126 z "},"3":{"ha":686,"x_min":21,"x_max":686,"o":"m 601 1074 q 496 715 686 947 q 457 669 476 692 q 418 626 438 646 q 529 522 493 589 q 556 364 567 454 q 517 242 547 303 q 444 131 486 181 q 350 47 401 81 q 249 6 299 13 q 235 5 242 6 q 222 4 229 4 q 136 29 174 4 q 81 106 96 57 q 74 190 67 146 q 113 251 81 233 q 144 256 128 260 q 168 236 160 251 q 173 207 176 222 q 157 183 169 192 q 155 154 154 175 q 167 114 156 133 q 239 88 188 82 q 310 118 272 92 q 383 185 349 144 q 442 275 417 225 q 474 375 467 325 q 358 564 490 508 q 356 565 357 564 q 322 534 335 546 q 307 521 308 522 q 279 510 293 510 q 249 525 261 510 q 239 555 238 538 q 253 583 240 572 q 269 598 253 583 q 312 638 286 613 q 369 697 338 663 q 432 768 401 731 q 529 921 504 856 q 533 1028 558 990 q 393 1100 492 1089 q 307 1099 353 1104 q 217 1079 261 1094 q 143 1049 176 1067 q 90 1014 110 1032 q 62 1001 79 1001 q 33 1014 44 1001 q 21 1043 21 1026 q 33 1072 21 1060 q 100 1119 58 1097 q 192 1157 142 1142 q 299 1181 244 1175 q 401 1182 353 1188 q 601 1074 538 1169 z "},"4":{"ha":689,"x_min":4,"x_max":590,"o":"m 558 1150 q 565 1126 561 1144 q 574 1053 569 1108 q 582 890 578 997 q 589 597 586 782 q 590 415 590 506 q 590 247 590 324 q 589 115 590 171 q 586 39 588 60 q 573 11 585 22 q 544 0 561 0 l 542 0 q 514 15 525 3 q 504 46 503 28 q 507 113 506 63 q 508 235 508 163 q 508 397 508 307 q 507 581 508 486 q 471 568 494 575 q 403 550 439 557 q 331 540 367 543 q 307 538 319 539 q 281 538 294 538 q 184 549 232 538 q 104 596 136 561 q 17 888 4 704 q 26 963 19 926 q 41 1031 33 1000 q 56 1084 49 1061 q 68 1119 64 1107 q 90 1142 75 1135 q 121 1144 106 1150 q 145 1122 138 1138 q 146 1092 153 1107 q 98 830 93 942 q 165 651 103 718 q 231 624 185 632 q 339 624 276 617 q 441 645 397 631 q 496 667 485 660 l 506 675 q 500 865 503 785 q 494 999 497 944 q 488 1082 492 1053 q 482 1119 485 1111 q 483 1150 475 1135 q 506 1172 490 1165 q 536 1172 521 1179 q 558 1150 551 1165 z "},"5":{"ha":701,"x_min":47,"x_max":688,"o":"m 143 864 q 241 846 181 858 q 368 809 301 833 q 498 746 435 785 q 603 649 561 707 q 646 369 688 528 q 532 128 606 214 q 368 26 463 43 q 349 24 358 25 q 329 24 339 24 q 182 68 254 24 q 57 194 110 113 q 51 225 47 208 q 68 251 54 242 q 99 258 83 261 q 125 239 115 254 q 233 133 172 168 q 354 108 294 97 q 480 192 425 119 q 567 390 535 264 q 536 600 599 514 q 463 670 507 640 q 369 721 418 700 q 272 754 321 742 q 184 774 224 767 q 119 783 144 781 q 94 786 94 786 q 67 799 78 788 q 56 826 56 810 q 56 839 56 828 q 61 873 57 850 q 74 933 65 896 q 97 1022 82 969 q 194 1131 117 1090 q 274 1163 233 1151 q 343 1178 314 1174 q 490 1186 421 1193 q 599 1142 572 1178 q 606 1111 608 1128 q 589 1085 603 1094 q 559 1077 575 1075 q 532 1093 543 1079 q 507 1101 528 1096 q 443 1106 486 1106 q 362 1098 403 1104 q 286 1081 321 1092 q 211 1044 240 1065 q 175 1000 182 1024 q 153 917 161 950 q 143 864 146 883 z "},"6":{"ha":729,"x_min":25,"x_max":715,"o":"m 606 540 q 693 464 667 528 q 707 342 715 411 q 674 220 700 279 q 607 114 649 161 q 349 -7 503 -4 l 342 -7 q 138 94 206 -7 q 115 689 25 261 q 155 847 133 769 q 197 990 176 925 q 237 1107 218 1056 q 268 1188 256 1158 q 290 1210 275 1203 q 321 1210 306 1217 q 343 1187 336 1203 q 343 1156 350 1171 q 316 1085 333 1133 q 278 973 299 1038 q 235 831 257 908 q 196 671 214 753 q 158 343 156 478 q 206 140 160 208 q 347 75 251 74 l 354 75 q 339 152 338 108 q 353 240 340 196 q 384 326 365 285 q 421 397 403 367 q 454 447 435 419 q 498 498 474 475 q 549 534 522 521 q 606 540 576 547 m 625 350 q 621 421 629 388 q 589 460 613 454 q 572 452 585 460 q 538 419 558 444 q 463 301 497 372 q 423 174 428 226 q 433 104 418 121 l 440 93 q 518 140 485 110 q 574 207 551 171 q 610 281 597 243 q 625 350 622 318 z "},"7":{"ha":772,"x_min":17,"x_max":739,"o":"m 644 1217 q 684 1211 668 1217 q 710 1197 700 1206 q 724 1180 719 1189 q 731 1165 729 1171 q 733 1099 739 1142 q 705 991 726 1057 q 648 833 683 925 q 563 615 613 740 q 491 431 526 522 q 428 260 456 339 q 399 169 408 206 q 384 108 389 132 q 378 71 379 83 q 379 53 378 58 q 373 22 382 36 q 347 4 364 8 l 339 4 q 313 13 324 4 q 299 36 301 21 q 338 251 285 100 q 486 646 390 401 q 555 817 522 735 q 611 968 588 899 q 633 1039 625 1010 q 647 1088 642 1068 q 652 1117 651 1107 q 653 1133 653 1128 q 623 1131 646 1135 q 556 1110 600 1128 q 467 1069 515 1093 q 365 1013 418 1044 q 270 953 317 985 q 185 894 224 922 q 122 842 142 861 q 100 818 103 824 q 81 794 94 803 q 50 790 67 786 q 25 809 33 794 q 21 840 17 824 q 41 876 24 854 q 113 942 58 899 q 191 999 147 969 q 283 1060 235 1029 q 356 1103 311 1076 q 453 1154 401 1129 q 555 1197 504 1179 q 644 1217 606 1215 z "},"8":{"ha":797,"x_min":57,"x_max":774,"o":"m 760 1225 q 773 1197 772 1214 q 763 1167 774 1181 q 725 1125 746 1149 q 683 1077 707 1106 q 629 1015 658 1049 q 619 1003 625 1006 q 463 814 549 921 l 424 767 q 388 722 406 743 q 351 678 369 700 q 377 642 365 660 q 400 606 389 625 q 501 268 503 436 q 454 64 500 143 q 329 -19 406 -17 l 328 -19 q 256 3 292 -19 q 193 71 221 25 q 147 188 165 117 q 128 356 129 258 q 162 523 126 443 q 249 676 197 603 q 202 730 225 704 q 160 778 179 756 q 95 851 119 821 q 65 908 71 882 q 99 1007 57 953 q 163 1073 122 1039 q 251 1139 203 1107 q 282 1157 263 1146 q 325 1179 301 1168 q 373 1199 349 1190 q 419 1210 397 1207 q 478 1203 451 1213 q 528 1179 506 1194 q 569 1144 551 1164 q 600 1106 588 1124 q 642 1153 624 1132 q 674 1190 660 1175 q 701 1222 689 1208 q 730 1235 713 1235 q 760 1225 747 1236 m 419 268 q 385 452 421 368 q 301 607 350 536 q 235 485 261 547 q 210 357 208 424 q 224 226 211 281 q 253 135 236 171 q 291 81 271 99 q 328 64 311 64 l 329 64 q 383 106 357 64 q 406 164 394 125 q 419 268 418 203 m 399 865 q 474 958 438 914 q 543 1040 511 1001 q 524 1069 536 1053 q 498 1099 513 1085 q 465 1121 483 1113 q 426 1128 447 1129 q 355 1103 403 1125 q 251 1039 307 1081 q 168 963 190 994 q 146 924 146 932 q 155 908 147 918 q 173 885 163 897 q 196 859 183 872 q 219 833 208 846 q 258 792 238 814 q 300 743 278 769 q 330 781 315 763 q 360 818 344 800 l 399 865 z "},"9":{"ha":617,"x_min":17,"x_max":549,"o":"m 549 1138 q 535 1017 547 1104 q 504 813 524 931 q 501 676 504 744 q 493 544 497 607 q 476 383 486 467 q 455 227 467 300 q 431 99 443 154 q 406 24 418 44 q 383 1 394 6 q 364 -3 371 -3 l 363 -3 q 329 13 342 -3 q 316 47 318 25 q 317 114 314 68 q 324 182 319 143 q 335 272 328 221 q 366 479 349 367 q 403 706 383 592 l 411 758 q 349 737 385 747 q 273 719 314 726 q 190 710 232 711 q 106 719 147 710 q 32 781 53 732 q 22 871 17 821 q 58 990 29 926 q 128 1110 86 1053 q 163 1151 142 1128 q 212 1196 185 1175 q 270 1231 239 1217 q 336 1244 301 1244 l 338 1244 q 390 1231 361 1243 q 444 1174 419 1218 q 456 1151 450 1163 q 465 1125 461 1139 q 466 1133 465 1129 q 467 1139 467 1136 q 478 1167 467 1156 q 507 1179 490 1179 l 508 1179 q 537 1167 525 1179 q 549 1138 549 1156 m 125 800 q 213 794 167 789 q 299 809 258 799 q 373 833 340 819 q 421 853 406 846 q 406 1024 418 953 q 372 1133 393 1096 q 350 1158 360 1154 q 338 1161 340 1161 l 336 1161 q 268 1135 306 1161 q 194 1060 231 1108 q 134 959 158 1013 q 104 861 110 906 q 125 800 97 807 z "},"\u0000":{"ha":0,"x_min":0,"x_max":0,"o":""},"\n":{"ha":0,"x_min":0,"x_max":0,"o":""},"\r":{"ha":0,"x_min":0,"x_max":0,"o":""}," ":{"ha":335,"x_min":0,"x_max":0,"o":""},"A":{"ha":850,"x_min":67,"x_max":825,"o":"m 732 1439 q 785 1415 764 1439 q 817 1331 808 1389 q 819 1167 825 1274 q 807 983 817 1083 q 786 775 797 883 q 763 539 774 656 q 749 326 751 422 q 749 212 746 254 q 758 147 753 169 q 769 118 764 125 q 774 111 774 111 q 792 86 789 103 q 788 54 796 69 q 762 35 778 39 q 731 42 746 32 q 677 131 692 64 q 665 326 663 197 q 680 544 668 425 q 704 783 692 663 q 725 990 715 892 q 738 1169 735 1088 q 740 1246 740 1213 q 736 1304 739 1279 q 731 1340 733 1328 q 725 1356 728 1351 q 677 1325 707 1351 q 606 1240 647 1299 q 513 1083 565 1181 q 400 840 461 986 q 328 653 363 749 q 263 465 293 558 q 349 473 303 467 q 438 487 396 479 q 512 503 481 494 q 551 515 543 511 q 581 524 565 526 q 608 508 597 521 q 617 478 619 494 q 601 450 615 461 q 453 406 574 428 q 341 388 394 394 q 247 382 288 382 q 236 385 244 382 q 182 187 204 279 q 151 26 160 94 q 138 1 149 11 q 111 -10 126 -10 q 108 -9 108 -10 q 106 -8 107 -8 q 78 8 89 -6 q 69 38 67 21 q 103 208 79 110 q 160 416 126 306 q 235 644 193 526 q 325 872 278 761 q 425 1091 375 993 q 521 1260 475 1189 q 621 1385 572 1340 q 732 1439 679 1439 z "},"B":{"ha":742,"x_min":97,"x_max":725,"o":"m 481 813 q 647 684 588 764 q 714 500 706 604 q 644 275 725 381 q 571 198 614 235 q 472 126 528 161 q 382 78 426 99 q 303 43 338 57 q 245 22 268 29 q 221 15 222 15 q 194 17 206 11 q 199 -61 197 -32 q 200 -94 200 -90 q 190 -124 201 -111 q 163 -137 179 -136 l 160 -137 q 131 -126 143 -137 q 118 -100 119 -115 q 115 -42 118 -94 q 108 97 111 11 q 103 294 104 182 q 107 528 103 406 q 107 664 107 588 q 107 821 107 740 q 106 981 107 901 q 104 1126 106 1060 q 101 1242 103 1193 q 99 1310 100 1290 q 108 1339 97 1326 q 136 1354 119 1351 q 166 1344 153 1356 q 181 1317 179 1333 q 183 1254 182 1297 q 186 1151 185 1211 q 310 1403 235 1321 q 472 1479 381 1479 q 528 1463 510 1479 q 554 1435 547 1447 q 567 1365 569 1407 q 544 1263 564 1324 q 454 1060 518 1181 q 392 947 422 1000 q 340 858 363 894 q 405 841 368 851 q 481 813 442 831 m 199 94 q 234 106 200 94 q 318 139 268 117 q 425 194 368 161 q 530 272 482 228 q 608 372 578 317 q 632 493 638 426 q 447 738 619 656 q 382 763 414 753 q 325 778 350 772 q 269 786 296 783 q 235 810 246 789 q 238 850 225 832 q 251 872 238 850 q 287 931 265 894 q 335 1013 308 967 q 388 1110 361 1060 q 454 1256 433 1200 q 481 1343 475 1313 q 485 1385 488 1374 q 482 1396 482 1396 l 479 1396 q 476 1397 478 1396 q 472 1397 475 1397 q 369 1347 417 1397 q 251 1076 296 1268 q 193 592 207 885 q 187 318 186 449 q 190 92 188 188 q 199 94 193 92 z "},"C":{"ha":774,"x_min":72,"x_max":760,"o":"m 467 1433 q 592 1402 531 1442 q 694 1286 653 1363 q 726 1210 714 1251 q 742 1129 739 1169 q 735 1050 744 1089 q 700 981 725 1011 q 672 965 689 967 q 642 974 656 963 q 626 1001 628 985 q 636 1032 625 1018 q 657 1079 653 1053 q 660 1125 661 1106 q 622 1246 656 1188 q 554 1328 593 1299 q 476 1351 515 1357 q 431 1336 457 1349 q 377 1299 406 1324 q 319 1235 349 1274 q 261 1142 289 1196 q 223 1056 242 1106 q 189 945 204 1007 q 164 808 174 883 q 154 644 154 733 q 158 538 154 599 q 172 415 161 478 q 203 293 183 353 q 254 186 222 233 q 332 110 286 139 q 442 82 378 82 q 503 88 471 82 q 569 106 536 94 q 634 133 603 117 q 692 169 665 150 q 722 178 706 181 q 750 161 739 175 q 758 131 760 147 q 742 104 756 115 q 682 65 717 85 q 607 30 647 46 q 524 4 567 14 q 439 -6 481 -6 q 306 26 363 -6 q 208 112 249 58 q 141 233 167 165 q 100 373 115 301 q 78 515 85 444 q 72 643 72 586 q 83 820 72 739 q 110 968 93 901 q 147 1088 126 1035 q 189 1181 168 1140 q 250 1278 217 1233 q 321 1357 283 1324 q 467 1433 394 1425 z "},"D":{"ha":1022,"x_min":69,"x_max":981,"o":"m 851 1358 q 922 1248 893 1314 q 967 1100 951 1182 q 980 937 981 1022 q 965 760 979 851 q 906 515 946 633 q 811 299 865 397 q 674 120 749 188 q 519 33 600 53 q 324 57 422 8 q 251 104 288 76 q 179 172 215 132 q 168 122 172 144 q 161 85 164 100 l 156 57 q 155 52 156 54 q 154 49 154 50 q 137 22 150 29 q 113 14 124 14 q 107 15 108 14 q 81 30 93 18 q 72 61 69 42 l 72 63 q 74 65 72 63 l 83 139 q 103 269 92 192 q 127 441 114 347 q 154 638 140 535 q 181 843 168 740 q 203 1049 194 957 q 215 1211 211 1140 q 219 1303 219 1267 q 218 1359 219 1339 q 215 1388 217 1379 q 213 1397 213 1396 q 208 1428 204 1413 q 226 1454 211 1444 q 258 1458 242 1463 q 283 1439 275 1454 q 292 1417 288 1431 q 299 1379 296 1404 q 301 1315 301 1354 q 299 1215 301 1275 q 287 1069 294 1151 q 268 886 279 988 q 335 1088 301 999 q 401 1243 369 1176 q 503 1394 451 1343 q 626 1453 556 1446 q 743 1434 683 1457 q 851 1358 803 1411 m 883 772 q 897 937 897 857 q 885 1085 897 1017 q 849 1210 874 1154 q 790 1303 825 1265 q 714 1357 756 1340 q 638 1371 672 1374 q 606 1363 624 1369 q 567 1335 589 1356 q 520 1278 546 1315 q 465 1180 494 1242 q 401 1028 435 1118 q 332 811 368 938 q 257 528 290 668 q 200 275 224 388 q 500 113 351 76 q 624 186 563 128 q 739 340 686 244 q 827 542 790 432 q 883 772 864 653 z "},"E":{"ha":910,"x_min":79,"x_max":911,"o":"m 892 104 q 908 78 906 94 q 901 47 911 61 q 746 -12 869 4 q 560 -21 668 -21 l 513 -21 q 397 -16 457 -19 q 285 -8 338 -12 q 190 5 232 -3 q 128 22 147 13 q 102 45 113 29 q 86 88 92 61 q 80 156 81 115 q 82 253 79 196 q 97 435 86 335 q 119 639 107 535 q 133 766 126 703 q 146 888 140 829 q 155 999 151 947 q 158 1090 158 1050 q 204 1237 158 1168 q 340 1361 250 1306 q 491 1432 407 1403 q 654 1469 575 1461 q 747 1469 711 1475 q 805 1452 783 1464 q 835 1426 826 1440 q 847 1399 844 1411 q 842 1367 851 1382 q 815 1350 833 1353 q 786 1356 800 1347 q 768 1379 772 1364 q 741 1387 763 1382 q 674 1389 719 1392 q 580 1372 629 1385 q 482 1340 531 1360 q 385 1292 429 1319 q 310 1235 342 1265 q 240 1090 240 1165 q 237 995 240 1049 q 228 882 233 942 q 215 758 222 822 q 201 629 208 693 l 190 536 l 294 553 q 512 586 426 574 q 626 599 597 599 q 656 587 644 599 q 668 558 668 575 q 656 528 668 540 q 626 517 644 517 q 579 513 613 517 q 501 502 546 508 q 406 488 457 496 q 308 472 356 479 q 181 451 242 460 l 165 275 q 162 194 163 226 q 163 142 161 163 q 166 110 164 121 q 169 94 168 99 q 215 85 183 90 q 290 74 246 79 q 390 66 335 69 q 506 61 444 63 q 656 63 594 60 q 755 73 717 67 q 812 85 793 79 q 835 96 831 92 q 862 113 846 110 q 892 104 878 115 z "},"F":{"ha":725,"x_min":67,"x_max":942,"o":"m 939 1357 q 922 1331 936 1340 q 892 1324 908 1321 q 848 1324 876 1325 q 780 1319 819 1324 q 693 1306 740 1314 q 594 1288 646 1299 q 503 1264 546 1276 q 426 1239 460 1251 q 367 1212 382 1222 q 350 1199 353 1201 q 343 1130 347 1182 q 334 1003 339 1078 q 324 837 329 929 q 313 646 318 744 q 433 660 372 654 q 543 671 494 667 q 607 676 576 674 q 646 682 638 679 q 677 678 663 686 q 696 653 692 669 q 692 622 700 636 q 667 603 683 607 q 626 597 654 600 q 550 589 599 593 q 434 578 499 585 q 308 563 369 572 q 299 378 304 469 q 291 209 294 288 q 285 68 288 131 q 281 -29 282 6 q 267 -57 279 -46 q 239 -68 256 -68 l 238 -68 q 209 -56 221 -68 q 199 -26 197 -43 l 225 547 q 162 528 176 536 q 146 517 147 519 q 111 497 133 497 q 89 504 100 497 q 70 529 74 513 q 75 561 67 546 q 127 601 90 585 q 231 632 164 618 q 241 833 236 735 q 251 1010 246 931 q 261 1144 257 1089 q 269 1215 265 1199 q 299 1265 274 1243 q 378 1308 325 1288 q 561 1364 449 1339 q 656 1383 607 1374 q 753 1398 706 1392 q 840 1406 800 1404 q 904 1404 879 1408 q 931 1388 921 1401 q 939 1357 942 1374 z "},"G":{"ha":861,"x_min":75,"x_max":813,"o":"m 467 424 q 492 458 467 444 q 549 481 517 472 q 614 493 582 489 q 661 497 646 497 q 696 492 681 497 q 725 472 711 488 q 759 425 743 453 q 787 367 775 397 q 806 305 799 336 q 813 249 813 274 q 786 134 813 182 q 716 56 760 86 q 616 12 672 26 q 500 -3 560 -3 q 285 51 368 -3 q 155 190 201 104 q 92 385 108 276 q 75 604 75 493 q 83 759 75 668 q 112 949 92 850 q 165 1144 132 1047 q 246 1317 197 1240 q 360 1442 294 1394 q 513 1490 426 1490 q 635 1463 578 1490 q 733 1385 693 1436 q 752 1358 742 1375 q 772 1324 763 1342 q 788 1287 781 1306 q 794 1254 794 1268 q 786 1226 794 1239 q 761 1213 778 1213 q 728 1231 742 1213 q 708 1264 715 1249 q 633 1369 689 1331 q 508 1407 576 1407 q 388 1361 440 1407 q 296 1243 335 1315 q 231 1081 257 1171 q 188 901 204 990 q 164 733 171 811 q 157 604 157 654 q 168 419 157 513 q 216 251 179 326 q 320 127 253 175 q 500 79 388 79 q 581 87 540 79 q 656 114 622 94 q 710 166 689 133 q 731 247 731 199 q 710 335 731 290 q 667 415 690 381 l 661 415 q 621 410 642 415 q 579 398 600 404 q 540 387 558 392 q 507 382 521 382 q 478 394 490 382 q 467 424 467 407 z "},"H":{"ha":1160,"x_min":8,"x_max":1161,"o":"m 1092 689 q 1122 699 1104 700 q 1150 683 1139 697 q 1159 653 1161 669 q 1144 625 1157 636 q 1120 610 1136 618 q 1075 590 1104 601 q 1066 401 1071 492 q 1056 235 1061 310 q 1047 109 1051 161 q 1039 38 1042 57 q 1025 12 1036 22 q 999 1 1014 1 l 993 1 q 966 17 976 4 q 958 49 956 31 q 964 115 960 67 q 973 233 968 164 q 983 387 978 301 q 992 565 988 472 l 928 551 q 773 525 858 538 q 589 501 688 513 q 542 497 565 499 q 496 492 519 494 q 495 455 496 472 q 493 419 494 438 q 488 260 489 322 q 487 161 486 197 q 489 109 488 125 q 492 89 490 93 q 494 58 499 74 q 475 36 490 43 q 454 31 465 31 q 434 35 443 31 q 419 51 425 40 q 414 63 417 56 q 409 85 411 71 q 406 122 407 99 q 404 181 404 144 q 406 278 404 222 q 410 408 407 333 l 414 485 q 271 474 339 478 q 149 471 203 471 q 42 479 72 471 q 17 498 25 483 q 13 529 8 513 q 31 554 17 546 q 63 558 46 563 q 107 554 75 556 q 185 554 139 553 q 291 558 232 556 q 418 567 350 561 q 430 784 424 674 q 443 999 436 894 q 451 1145 447 1074 q 459 1275 456 1217 q 464 1374 463 1333 q 465 1431 465 1415 q 475 1460 464 1447 q 504 1474 486 1472 q 533 1464 521 1475 q 547 1435 546 1453 q 547 1378 549 1418 q 542 1281 546 1339 q 535 1149 539 1222 q 525 993 531 1076 l 500 575 l 581 583 q 827 617 724 599 q 994 651 931 635 q 997 701 996 676 q 997 749 997 725 q 999 999 1000 888 q 990 1196 997 1110 q 981 1283 986 1244 q 968 1351 975 1322 q 951 1404 958 1392 q 943 1418 944 1417 q 928 1446 929 1429 q 939 1476 928 1463 q 967 1490 950 1489 q 997 1481 983 1492 q 1017 1456 1007 1472 q 1038 1408 1028 1439 q 1057 1327 1049 1376 q 1072 1201 1065 1278 q 1081 1000 1079 1114 q 1079 747 1082 886 q 1079 714 1079 731 q 1078 681 1079 697 l 1092 689 l 1092 689 z "},"I":{"ha":789,"x_min":15,"x_max":775,"o":"m 750 192 q 770 167 765 183 q 767 135 775 150 q 703 84 750 104 q 572 49 657 64 q 484 37 529 42 q 394 28 439 32 q 389 27 392 28 q 383 26 386 26 l 379 26 l 314 22 q 240 16 274 19 q 192 10 206 13 q 187 9 189 10 q 182 8 185 8 q 156 17 168 8 q 142 40 144 26 q 148 72 139 57 q 172 90 157 86 q 225 98 192 94 q 307 104 258 101 q 319 105 314 104 q 332 106 325 106 q 322 234 324 158 q 322 393 319 310 q 328 559 324 476 q 336 707 332 642 q 352 894 343 797 q 372 1080 361 992 q 393 1241 382 1168 q 415 1357 404 1314 q 331 1344 374 1349 q 210 1336 264 1336 q 25 1400 68 1336 q 19 1431 15 1415 q 36 1457 22 1447 q 67 1464 51 1467 q 93 1446 83 1461 q 104 1436 94 1443 q 139 1424 114 1429 q 207 1419 164 1419 q 321 1426 250 1418 q 442 1446 378 1433 q 576 1476 506 1458 q 583 1478 579 1478 q 615 1473 600 1482 q 633 1449 629 1464 q 628 1417 638 1432 q 603 1399 619 1403 q 597 1397 601 1397 q 496 1372 543 1382 q 497 1346 501 1360 q 477 1249 488 1314 q 456 1097 467 1183 q 436 909 446 1011 q 419 701 426 807 q 407 490 411 589 q 403 311 403 390 q 406 184 403 231 q 414 113 410 138 q 487 119 450 115 q 557 131 524 124 q 630 145 603 138 q 672 159 657 153 q 690 170 686 165 q 694 175 694 175 q 719 194 703 190 q 750 192 735 199 z "},"J":{"ha":975,"x_min":3,"x_max":1079,"o":"m 1039 1418 q 1067 1406 1056 1418 q 1079 1376 1079 1393 q 1067 1347 1079 1360 q 1039 1335 1056 1335 q 994 1328 1026 1335 q 917 1312 961 1322 q 819 1288 872 1301 q 714 1261 767 1275 l 615 1236 q 704 1110 667 1175 q 768 980 742 1044 q 810 854 794 915 q 836 742 826 793 q 854 453 861 601 q 842 324 851 386 q 815 206 832 261 q 740 47 786 106 q 638 -22 694 -11 q 623 -25 631 -25 q 608 -25 615 -25 q 429 75 522 -25 q 369 149 392 115 q 344 186 346 183 q 340 217 336 201 q 358 243 343 233 q 390 247 374 251 q 415 228 407 243 q 436 196 424 211 q 460 165 446 182 q 490 131 474 147 q 621 58 567 47 q 683 110 653 65 q 736 229 714 156 q 764 367 754 290 q 772 531 774 444 q 757 708 771 617 q 713 888 743 799 q 637 1060 683 978 q 525 1214 590 1143 q 261 1153 374 1176 q 82 1131 149 1131 q 38 1135 56 1131 q 12 1153 21 1139 q 7 1183 3 1167 q 24 1209 10 1200 q 56 1215 39 1218 q 78 1213 63 1214 q 122 1215 93 1213 q 194 1225 150 1218 q 304 1246 239 1232 q 407 1269 353 1257 q 517 1296 461 1282 q 539 1301 526 1301 l 693 1340 q 922 1398 838 1378 q 1039 1418 1007 1418 z "},"K":{"ha":1169,"x_min":47,"x_max":1172,"o":"m 1104 357 q 1134 365 1118 368 q 1161 349 1150 363 q 1169 317 1172 333 q 1151 290 1167 301 q 860 192 1021 196 q 851 191 856 192 q 843 190 847 190 q 716 205 779 190 q 592 247 653 219 q 436 356 497 292 q 383 429 401 394 l 392 282 q 397 189 394 233 q 402 109 400 144 q 406 50 404 74 q 408 19 407 26 q 401 -10 411 3 q 374 -26 390 -24 q 367 -28 371 -28 q 340 -17 351 -28 q 326 8 329 -7 q 320 90 324 25 q 310 276 317 154 q 301 436 306 350 q 291 613 296 522 q 280 797 286 704 q 267 976 274 889 q 238 1279 251 1168 q 222 1380 229 1350 q 213 1419 215 1410 q 193 1413 206 1422 q 166 1390 179 1404 q 142 1360 153 1375 l 119 1333 q 91 1320 108 1321 q 61 1331 74 1319 q 48 1358 49 1342 q 58 1389 47 1375 l 78 1411 q 110 1449 93 1431 q 146 1481 126 1467 q 264 1486 206 1521 q 279 1472 272 1481 q 292 1444 286 1463 q 303 1395 297 1425 q 315 1318 308 1365 q 331 1187 324 1264 q 346 1011 339 1110 q 362 788 354 903 q 376 561 369 674 q 469 722 399 625 q 576 856 517 786 q 700 1000 635 925 q 867 1194 786 1097 q 996 1371 947 1290 q 1020 1390 1004 1386 q 1051 1385 1036 1393 q 1071 1359 1067 1375 q 1067 1328 1075 1343 q 933 1144 1015 1243 q 763 946 850 1046 q 640 803 699 871 q 536 674 581 736 q 463 556 479 596 q 447 500 446 517 q 461 459 449 482 q 497 413 474 436 q 552 365 519 389 q 626 322 585 342 q 842 274 735 274 q 979 294 913 274 q 1104 357 1046 315 z "},"L":{"ha":1017,"x_min":74,"x_max":1024,"o":"m 960 275 q 991 279 975 283 q 1015 260 1007 275 q 1019 228 1024 244 q 1000 203 1015 211 l 947 169 q 828 97 896 136 q 681 35 761 57 q 561 18 618 18 q 324 100 433 18 q 247 192 279 133 q 194 326 215 250 q 159 491 172 401 q 138 676 146 581 q 124 869 129 771 q 117 1058 119 967 q 112 1193 114 1129 q 106 1306 110 1257 q 99 1362 103 1340 q 92 1397 96 1383 q 87 1415 89 1410 q 85 1421 85 1419 q 74 1451 74 1433 q 86 1479 75 1468 q 116 1490 99 1490 q 144 1478 133 1489 q 171 1424 161 1460 q 186 1319 181 1388 q 194 1202 192 1267 q 200 1061 197 1138 q 211 790 204 931 q 238 519 218 649 q 374 165 279 236 q 520 103 446 111 q 663 116 594 96 q 793 172 732 136 q 901 238 854 207 q 960 275 935 260 z "},"M":{"ha":1318,"x_min":78,"x_max":1292,"o":"m 1272 136 q 1289 110 1286 126 q 1282 79 1292 94 q 1255 63 1271 65 q 1225 69 1239 60 q 1129 294 1154 118 q 1115 442 1118 365 q 1111 592 1113 519 l 1107 681 q 1094 836 1104 756 q 1068 988 1085 917 q 1028 1116 1051 1060 q 975 1199 1004 1172 q 951 1214 961 1211 q 933 1215 940 1217 q 911 1194 924 1211 q 886 1149 900 1179 q 854 1063 872 1118 q 807 890 829 985 q 763 700 785 796 q 725 533 742 601 q 694 417 708 464 q 665 344 679 371 q 632 307 650 318 q 588 299 611 294 q 535 353 551 307 q 510 474 519 399 q 498 613 503 536 q 489 772 493 689 q 480 939 485 857 q 467 1090 475 1021 q 450 1194 458 1161 q 435 1240 442 1228 q 409 1196 426 1229 q 368 1089 392 1163 q 321 928 344 1019 q 274 728 297 836 q 232 515 251 624 q 198 305 213 407 q 174 112 183 203 q 161 -49 164 21 q 149 -77 161 -65 q 121 -89 136 -89 l 118 -89 q 90 -75 101 -87 q 79 -46 78 -62 q 91 115 82 24 q 115 308 100 206 q 149 518 129 410 q 190 731 168 626 q 237 933 214 839 q 283 1099 260 1026 q 318 1194 301 1157 q 348 1256 335 1232 q 372 1293 361 1281 q 392 1313 383 1306 q 424 1329 408 1326 q 449 1329 439 1332 q 479 1316 467 1326 q 500 1293 492 1306 q 513 1269 508 1281 q 519 1251 517 1257 q 546 1125 535 1208 q 561 960 556 1050 q 571 776 567 869 q 578 633 575 701 q 589 508 582 565 q 597 449 593 472 q 604 410 600 425 q 615 441 608 422 q 628 486 621 460 q 655 594 642 535 q 682 718 668 653 q 726 912 704 815 q 775 1088 749 1008 q 833 1225 804 1176 q 928 1297 875 1296 q 1031 1260 985 1301 q 1153 989 1108 1190 q 1169 893 1163 940 q 1181 806 1176 846 q 1187 734 1185 765 q 1190 685 1189 703 l 1193 594 q 1199 449 1196 524 q 1211 306 1201 374 q 1225 229 1217 260 q 1242 179 1233 199 q 1258 150 1250 160 q 1272 136 1267 140 z "},"N":{"ha":1024,"x_min":65,"x_max":958,"o":"m 926 1357 q 950 1337 942 1351 q 954 1306 958 1322 q 934 1281 949 1289 q 903 1278 919 1272 q 888 1280 892 1281 q 881 1276 883 1279 q 872 1265 878 1274 q 863 1235 867 1256 q 856 1181 858 1215 q 857 1093 854 1146 q 872 920 860 1014 q 897 731 883 826 q 924 527 911 628 q 939 344 936 426 q 928 203 940 257 q 853 113 907 126 q 721 179 786 93 q 676 252 699 208 q 626 356 653 296 q 581 471 604 410 q 537 597 558 532 q 494 729 515 663 q 453 858 472 796 q 404 1013 428 939 q 360 1146 381 1086 q 334 1209 344 1185 q 317 1249 324 1233 l 313 1232 q 296 1113 301 1185 q 283 951 289 1040 q 271 765 276 863 q 255 510 264 636 q 232 275 246 383 q 191 68 215 138 q 129 -21 167 -1 q 110 -25 118 -25 q 74 -3 83 -25 q 70 28 65 13 q 90 51 75 44 q 98 61 92 53 q 113 94 104 69 q 131 166 121 119 q 151 292 142 213 q 173 520 164 396 q 189 771 182 644 q 202 980 196 881 q 218 1157 208 1079 q 228 1231 222 1200 q 240 1285 233 1263 q 260 1329 249 1315 q 288 1353 274 1349 q 313 1358 303 1358 q 354 1338 338 1357 q 382 1300 371 1319 q 403 1257 393 1282 q 428 1197 414 1232 q 478 1054 451 1135 q 532 883 504 974 q 572 755 551 821 q 615 625 593 689 q 658 500 636 561 q 703 388 681 439 q 747 293 726 333 q 788 228 768 253 q 817 197 806 204 q 831 192 828 190 q 835 195 831 192 q 845 214 840 199 q 853 260 850 229 q 856 343 857 290 q 842 519 853 421 q 815 719 831 618 q 790 913 801 817 q 775 1089 778 1008 q 783 1251 769 1192 q 828 1339 796 1311 q 866 1360 842 1351 q 926 1357 890 1368 z "},"O":{"ha":819,"x_min":60,"x_max":760,"o":"m 553 1343 q 597 1330 574 1339 q 642 1303 619 1321 q 687 1256 665 1285 q 724 1186 708 1228 q 752 1058 744 1131 q 754 897 760 985 q 737 751 750 826 q 703 602 724 676 q 655 456 682 528 q 596 318 628 383 q 446 99 526 179 q 251 1 351 6 l 244 1 q 113 75 161 1 q 65 243 74 136 q 65 399 60 313 q 89 590 71 486 q 127 777 104 681 q 179 971 150 874 q 233 1141 206 1061 q 289 1283 261 1221 q 326 1359 310 1329 q 358 1406 343 1389 q 384 1431 372 1424 q 408 1439 396 1438 q 492 1419 456 1446 q 542 1343 528 1393 l 553 1343 m 672 903 q 671 1046 678 982 q 647 1157 664 1110 q 544 1261 614 1246 l 542 1250 q 485 1175 526 1192 q 453 1175 468 1168 q 431 1199 438 1182 q 431 1229 424 1214 q 453 1251 438 1244 q 458 1258 456 1253 q 464 1278 461 1264 q 465 1305 467 1290 q 458 1331 464 1319 q 442 1354 451 1350 q 425 1358 432 1358 q 395 1312 417 1349 q 342 1196 374 1275 q 283 1031 313 1121 q 229 844 254 940 q 179 624 199 729 q 151 431 160 519 q 147 272 143 342 q 165 157 150 203 q 205 95 182 107 q 249 85 228 83 q 387 158 315 88 q 522 356 458 228 q 578 485 553 417 q 624 624 604 553 q 656 765 643 694 q 672 903 668 836 z "},"P":{"ha":863,"x_min":86,"x_max":846,"o":"m 836 1040 q 829 858 846 954 q 775 676 813 763 q 682 531 738 588 q 551 449 621 464 q 509 441 531 443 q 467 439 488 439 q 263 493 363 439 q 227 513 243 503 q 199 533 211 524 l 183 226 q 176 66 179 132 q 169 -28 172 0 q 156 -54 168 -43 q 129 -65 144 -65 l 125 -65 q 97 -50 108 -62 q 88 -19 86 -37 q 94 73 90 7 q 101 231 97 139 q 109 400 104 308 q 119 590 114 492 q 130 786 124 688 q 144 976 136 885 q 159 1144 151 1067 q 176 1276 167 1221 q 193 1303 179 1293 q 224 1310 207 1313 q 250 1293 240 1307 q 257 1263 260 1279 q 244 1169 250 1222 q 233 1054 239 1117 l 258 1110 q 551 1326 367 1326 q 667 1305 614 1326 q 756 1240 719 1283 q 836 1040 821 1167 m 700 710 q 748 871 733 786 q 754 1031 763 956 q 738 1105 750 1067 q 703 1174 726 1143 q 644 1225 681 1206 q 551 1244 607 1244 q 217 629 299 1244 l 217 626 q 249 599 226 617 q 304 564 271 582 q 533 528 419 503 q 622 587 578 539 q 700 710 667 635 z "},"Q":{"ha":1126,"x_min":56,"x_max":1082,"o":"m 861 336 q 938 226 901 282 q 1003 122 974 171 q 1051 33 1032 72 q 1076 -28 1069 -7 q 1073 -60 1082 -44 q 1049 -79 1064 -75 q 1036 -81 1044 -81 q 1013 -73 1024 -81 q 997 -51 1001 -65 q 976 -1 993 -35 q 934 76 960 32 q 876 171 908 119 q 806 274 843 222 q 733 153 775 203 q 418 15 617 15 q 411 17 413 15 q 168 106 257 17 q 72 322 92 182 q 97 636 56 457 q 142 795 115 714 q 206 956 169 876 q 276 1097 239 1031 q 351 1217 314 1164 q 503 1351 436 1335 q 615 1356 567 1368 q 692 1324 663 1343 q 749 1273 724 1303 q 785 1211 774 1243 q 783 1179 790 1194 q 758 1158 775 1164 q 727 1161 742 1153 q 707 1185 713 1169 q 689 1217 703 1197 q 652 1251 675 1236 q 597 1274 629 1267 q 525 1272 565 1282 q 483 1244 510 1268 q 418 1168 456 1221 q 347 1056 382 1119 q 281 922 313 993 q 217 759 244 840 q 174 601 190 678 q 153 457 158 525 q 154 332 147 389 q 413 99 183 100 l 418 99 q 545 119 490 99 q 640 175 600 140 q 705 256 679 210 q 746 351 731 301 q 688 417 717 388 q 635 471 660 447 q 588 508 608 494 q 553 529 568 522 q 527 538 538 536 q 510 539 517 539 q 481 549 493 538 q 467 578 468 561 q 477 607 465 594 q 506 621 489 619 q 689 533 585 626 q 728 495 708 515 q 769 451 749 475 q 772 466 771 458 q 772 481 772 474 q 771 712 785 589 q 721 947 757 835 q 644 1117 685 1060 q 575 1182 603 1175 q 549 1199 558 1185 q 543 1231 539 1214 q 560 1256 546 1247 q 592 1263 575 1265 q 714 1163 656 1249 q 759 1077 738 1125 q 800 972 781 1029 q 853 720 839 850 q 854 472 868 590 q 838 369 847 417 q 849 353 843 361 q 861 336 854 344 z "},"R":{"ha":903,"x_min":89,"x_max":879,"o":"m 826 335 q 858 328 843 338 q 876 303 872 319 q 870 272 879 286 q 844 254 861 257 q 831 252 838 253 q 814 251 824 251 q 733 260 779 251 q 642 282 688 269 q 556 307 596 294 q 496 326 517 319 q 397 363 443 344 q 314 400 350 382 q 285 414 297 407 q 261 428 272 421 q 247 306 254 364 q 235 199 240 249 q 221 79 226 124 q 211 11 215 35 q 202 -22 207 -12 q 192 -37 197 -32 q 161 -50 179 -50 q 146 -47 154 -50 q 119 -15 124 -37 q 111 39 114 7 q 109 92 110 61 q 108 165 108 124 q 107 342 107 244 q 107 547 107 439 q 108 763 108 656 q 107 958 108 869 q 106 1063 107 1022 q 102 1128 104 1104 q 99 1163 100 1153 q 96 1176 97 1174 q 96 1208 89 1192 q 118 1231 103 1224 q 149 1231 133 1238 q 172 1210 165 1225 q 178 1192 175 1203 q 183 1154 181 1181 q 186 1083 185 1128 q 189 967 188 1039 q 191 767 192 876 q 190 547 190 658 l 190 515 q 224 742 206 626 q 268 965 243 857 q 381 1293 318 1178 q 575 1438 463 1446 q 754 1364 689 1429 q 822 1203 814 1304 q 790 992 831 1107 q 671 767 750 878 q 509 593 597 665 q 326 485 421 521 q 413 446 358 468 q 542 399 467 424 q 730 345 654 361 q 826 335 806 329 m 278 556 q 449 651 365 583 q 604 815 533 718 q 710 1015 674 913 q 740 1196 747 1117 q 568 1356 728 1343 l 564 1356 q 453 1254 507 1356 q 399 1124 425 1201 q 349 947 372 1047 q 310 754 326 854 q 278 556 293 654 z "},"S":{"ha":860,"x_min":17,"x_max":811,"o":"m 310 1092 q 412 949 350 1021 q 539 806 474 876 q 644 688 593 746 q 733 573 696 629 q 791 463 771 517 q 803 358 811 410 q 703 169 786 250 q 489 53 619 89 q 333 33 408 33 q 232 42 282 33 q 113 83 165 56 q 28 154 61 111 q 18 185 17 168 q 33 213 19 201 q 64 222 47 224 q 92 206 81 219 q 157 154 117 175 q 247 124 197 133 q 353 116 297 114 q 467 133 410 118 q 641 224 574 161 q 721 371 708 288 q 707 451 726 407 q 653 544 688 496 q 572 645 618 593 q 479 750 526 697 q 347 900 411 825 q 238 1050 282 975 q 207 1369 132 1235 q 285 1435 235 1418 q 383 1442 331 1450 q 502 1404 438 1433 q 631 1331 567 1375 q 665 1305 643 1322 q 711 1266 688 1288 q 753 1220 735 1244 q 778 1174 772 1196 q 772 1144 781 1158 q 746 1125 763 1129 q 715 1131 729 1122 q 697 1157 700 1140 q 665 1197 694 1167 q 576 1268 635 1228 q 463 1331 518 1307 q 364 1361 407 1356 q 303 1353 321 1365 q 279 1329 286 1342 q 310 1092 226 1235 z "},"T":{"ha":806,"x_min":13,"x_max":1318,"o":"m 1253 1475 q 1285 1479 1268 1483 q 1310 1460 1301 1475 q 1314 1428 1318 1444 q 1294 1404 1310 1413 q 1204 1368 1267 1388 q 1057 1328 1142 1349 q 872 1288 972 1307 q 671 1254 772 1268 q 635 1249 653 1251 q 601 1244 618 1247 q 602 1241 601 1242 q 603 1239 603 1240 q 608 1223 604 1235 q 614 1186 611 1211 q 619 1118 617 1161 q 624 1007 622 1075 q 624 835 625 931 q 619 636 622 740 q 613 476 617 567 q 602 301 608 386 q 588 147 596 215 q 569 54 579 79 q 554 35 565 43 q 532 28 543 28 q 517 31 525 28 q 494 53 501 38 q 493 85 486 69 q 504 143 499 97 q 516 261 510 189 q 528 429 522 333 q 538 639 533 525 q 541 1038 546 896 q 525 1211 536 1181 q 525 1235 521 1224 q 395 1224 456 1228 q 283 1219 335 1219 l 281 1219 q 25 1276 83 1219 q 13 1306 13 1289 q 24 1335 13 1324 q 53 1347 36 1347 q 82 1336 71 1347 q 95 1327 85 1333 q 128 1315 106 1321 q 189 1306 151 1310 q 283 1301 226 1301 q 453 1310 358 1301 q 660 1335 549 1319 q 862 1369 764 1350 q 1040 1408 960 1389 q 1176 1445 1119 1428 q 1253 1475 1232 1463 z "},"U":{"ha":1053,"x_min":78,"x_max":974,"o":"m 936 344 q 943 253 939 288 q 951 198 947 218 q 958 169 956 178 q 963 160 961 161 q 973 131 974 147 q 960 101 972 114 q 931 91 949 90 q 903 103 914 92 q 888 124 896 111 q 874 161 881 136 q 863 226 868 186 q 856 326 858 265 q 850 485 851 396 q 850 685 849 575 l 854 853 q 803 705 831 782 q 746 549 776 628 q 544 128 642 281 q 428 -11 486 36 q 308 -61 367 -61 q 298 -60 303 -61 q 288 -60 293 -60 q 156 85 196 -46 q 126 351 126 182 q 131 510 126 428 q 142 677 135 593 q 159 843 150 761 q 176 1000 168 925 q 191 1119 185 1065 q 200 1218 197 1174 q 204 1279 204 1257 q 192 1254 197 1268 q 182 1228 188 1240 q 169 1193 175 1208 q 154 1167 164 1178 q 126 1151 143 1153 q 97 1160 110 1149 q 81 1188 83 1171 q 89 1218 78 1204 q 97 1233 92 1221 q 106 1256 101 1244 q 121 1295 113 1275 q 142 1335 129 1315 q 191 1377 165 1368 q 236 1385 217 1386 q 269 1368 256 1385 q 283 1335 279 1356 q 286 1273 288 1314 q 278 1164 285 1232 q 258 990 271 1096 q 241 835 250 917 q 224 672 232 754 q 213 508 217 589 q 208 351 208 426 q 215 212 208 272 q 235 108 222 151 q 300 22 258 29 q 380 55 335 17 q 475 172 425 93 q 569 345 521 243 q 669 578 618 447 q 749 799 713 690 q 811 994 785 907 q 853 1134 838 1081 q 868 1189 868 1188 q 885 1213 872 1204 q 914 1218 899 1221 q 940 1203 929 1215 q 949 1175 950 1192 q 947 1134 949 1175 q 942 1026 944 1093 q 936 872 939 958 q 932 694 933 786 q 936 344 929 478 z "},"V":{"ha":1078,"x_min":40,"x_max":1050,"o":"m 1028 1410 q 1047 1384 1043 1400 q 1040 1353 1050 1368 q 1015 1335 1031 1339 q 986 1340 1000 1332 q 975 1328 982 1338 q 956 1299 968 1319 q 929 1242 944 1278 q 896 1150 914 1206 q 838 953 867 1063 q 779 731 808 843 q 714 488 747 608 q 649 274 681 368 q 581 119 613 169 q 488 51 538 51 l 475 51 q 401 108 432 58 q 343 263 371 158 q 304 440 322 342 q 268 647 286 539 q 228 883 249 767 q 181 1092 207 999 q 146 1193 163 1156 q 116 1251 129 1231 q 93 1276 103 1271 q 79 1283 83 1282 q 51 1299 61 1286 q 43 1329 40 1313 q 59 1356 46 1346 q 90 1364 72 1367 q 196 1278 151 1356 q 260 1114 231 1221 q 308 900 288 1018 q 350 661 329 782 q 384 460 367 556 q 421 288 401 364 q 461 169 442 211 q 477 143 471 150 q 486 135 483 136 q 499 147 490 138 q 522 185 508 157 q 550 245 536 210 q 579 326 564 281 q 640 528 610 417 q 699 751 669 639 q 758 976 728 865 q 818 1176 789 1088 q 890 1348 857 1292 q 960 1418 922 1404 q 1028 1410 996 1433 z "},"W":{"ha":1299,"x_min":64,"x_max":1289,"o":"m 1247 1214 q 1276 1201 1264 1214 q 1289 1172 1289 1189 q 1280 1081 1289 1140 q 1256 944 1271 1021 q 1219 782 1240 868 q 1175 610 1199 696 q 1126 447 1153 532 q 1069 285 1099 361 q 1006 147 1039 208 q 940 56 974 86 q 867 28 904 24 q 729 153 789 36 q 688 251 707 197 q 654 357 669 306 q 633 421 643 390 q 614 475 624 451 q 597 511 603 503 q 589 475 593 497 q 581 419 585 450 q 575 356 578 389 q 563 238 569 296 q 542 131 556 179 q 504 49 528 83 q 443 3 481 14 q 433 1 438 1 q 424 0 429 0 q 388 11 406 0 q 361 35 375 19 q 332 85 347 51 q 299 174 317 118 q 260 318 281 231 q 210 560 233 429 q 164 813 186 690 q 137 968 150 894 q 111 1100 124 1042 q 97 1167 103 1142 q 85 1209 90 1193 q 78 1232 81 1225 q 74 1242 75 1239 q 67 1272 64 1256 q 85 1299 71 1289 q 116 1305 100 1308 q 142 1286 132 1301 q 188 1140 165 1253 q 246 828 211 1026 q 267 703 256 767 q 291 576 279 639 q 315 452 303 513 q 340 338 328 392 q 367 234 354 279 q 392 156 379 189 q 413 107 404 122 q 426 86 421 92 q 445 110 435 92 q 467 168 456 128 q 483 262 478 211 q 493 364 489 313 q 501 444 497 406 q 513 514 506 483 q 519 538 514 522 q 533 570 524 554 q 556 597 542 586 q 593 608 571 608 q 649 581 628 608 q 682 525 669 554 q 708 459 696 496 q 733 382 719 422 q 766 281 749 331 q 803 189 783 231 q 874 110 842 114 q 881 115 875 110 q 899 133 888 119 q 927 174 911 147 q 964 247 943 201 q 1022 394 992 310 q 1081 581 1051 478 q 1131 770 1108 676 q 1171 944 1154 864 q 1197 1084 1188 1024 q 1206 1172 1206 1144 q 1218 1202 1206 1190 q 1247 1214 1231 1214 z "},"X":{"ha":1236,"x_min":39,"x_max":1207,"o":"m 1156 -15 q 1186 -22 1172 -12 q 1204 -49 1200 -32 q 1197 -79 1207 -65 q 1171 -96 1188 -93 q 1133 -100 1151 -100 q 932 -21 1042 -100 q 821 76 879 19 q 696 213 763 133 q 597 339 646 274 q 500 472 547 404 q 430 360 464 414 q 364 260 396 307 q 292 153 319 193 q 249 94 265 114 q 224 67 232 74 q 213 57 217 60 q 189 49 200 49 q 154 67 167 49 q 147 97 144 81 q 164 124 150 113 q 172 131 165 125 q 193 158 178 138 q 233 214 208 178 q 299 311 258 250 q 371 422 333 363 q 449 546 408 481 q 353 690 399 619 q 264 826 307 761 q 133 1026 189 946 q 82 1095 97 1079 q 64 1113 67 1111 q 44 1137 49 1121 q 46 1168 39 1153 q 70 1188 54 1183 q 101 1186 86 1193 q 137 1156 117 1178 q 184 1097 157 1135 q 248 1003 211 1058 q 333 871 285 947 q 411 751 371 813 q 496 624 451 689 l 538 693 q 671 923 610 815 q 778 1117 732 1031 q 851 1264 824 1203 q 886 1354 879 1325 q 903 1380 889 1371 q 935 1385 918 1389 q 960 1366 951 1381 q 965 1335 969 1351 q 933 1248 957 1303 q 875 1127 908 1193 q 803 990 842 1061 q 726 853 764 919 q 657 733 689 788 q 606 646 625 678 q 576 597 590 622 q 546 549 561 572 q 651 402 599 474 q 758 265 704 331 q 981 46 881 118 q 1156 -15 1086 -29 z "},"Y":{"ha":821,"x_min":15,"x_max":785,"o":"m 650 558 q 616 453 633 506 q 581 349 599 400 q 520 169 549 257 q 473 5 492 81 q 448 -131 454 -71 q 456 -229 442 -192 q 456 -260 463 -244 q 432 -282 449 -275 q 418 -285 424 -285 q 379 -258 390 -285 q 365 -145 361 -211 q 387 1 368 -79 q 436 175 406 81 q 503 376 467 269 l 557 536 q 457 585 513 546 q 378 648 419 610 q 289 736 336 686 q 201 838 243 786 q 123 935 158 889 q 62 1016 88 981 q 25 1068 36 1051 q 18 1099 15 1083 q 36 1125 21 1115 q 67 1133 50 1136 q 93 1115 83 1129 q 129 1065 104 1099 q 188 985 154 1031 q 263 890 222 940 q 349 793 304 840 q 437 706 399 740 q 503 653 475 672 q 550 625 531 633 q 582 615 569 617 q 637 802 611 708 q 678 987 663 896 q 698 1164 693 1078 q 690 1328 703 1250 q 698 1358 688 1344 q 725 1374 708 1371 q 756 1367 742 1376 q 772 1340 769 1357 q 780 1160 785 1254 q 758 967 775 1065 q 713 769 740 869 q 654 571 686 669 q 650 558 654 564 z "},"Z":{"ha":1133,"x_min":21,"x_max":1146,"o":"m 889 104 q 919 99 906 108 q 938 72 933 89 q 931 42 940 56 q 906 24 922 28 q 858 17 903 24 q 751 10 814 10 q 722 10 736 10 q 692 13 707 11 q 568 39 618 18 q 486 88 518 60 q 438 147 454 115 q 414 208 421 179 q 424 318 403 258 q 490 446 446 378 q 597 590 535 514 q 728 747 658 665 q 862 910 796 829 q 976 1067 928 992 q 1047 1288 1072 1218 q 974 1344 1031 1332 q 788 1336 904 1361 q 526 1249 672 1311 q 400 1189 463 1221 q 281 1123 338 1157 q 175 1055 224 1089 q 90 989 126 1021 q 60 979 78 978 q 32 993 43 981 q 22 1023 21 1006 q 36 1051 24 1040 q 125 1121 74 1085 q 236 1192 176 1157 q 361 1261 296 1228 q 493 1324 426 1294 q 761 1415 638 1388 q 993 1425 901 1446 q 1124 1317 1092 1401 q 1125 1188 1146 1258 q 1056 1038 1104 1118 q 937 872 1007 958 q 790 694 867 785 q 669 549 726 619 q 569 414 613 478 q 494 228 482 285 q 539 151 506 179 q 615 110 572 124 q 706 93 658 96 q 794 93 754 90 q 861 100 835 96 q 889 104 888 104 z "},"a":{"ha":667,"x_min":26,"x_max":668,"o":"m 665 72 q 658 41 668 56 q 632 24 649 26 q 553 42 586 17 q 510 90 528 60 q 482 159 493 121 q 464 240 471 197 q 451 325 457 283 l 443 379 q 428 352 436 367 q 414 324 421 338 q 363 226 390 278 q 303 128 336 174 q 230 49 269 82 q 143 8 190 17 q 133 6 138 7 q 124 6 129 6 q 68 25 92 6 q 35 79 44 44 q 28 149 26 110 q 40 231 31 189 q 63 315 49 272 q 92 394 76 357 q 121 456 101 418 q 166 531 140 493 q 224 601 192 569 q 294 649 257 633 q 377 661 344 668 q 429 640 410 654 q 472 588 460 619 q 483 532 483 556 q 468 499 483 511 q 490 486 481 494 q 504 467 499 478 q 513 447 510 457 q 517 429 515 436 q 525 387 521 410 q 532 336 529 364 q 544 263 538 301 q 560 192 550 225 q 582 131 571 147 q 600 108 593 114 q 617 106 607 104 q 649 99 635 108 q 665 72 663 89 m 388 450 q 402 472 393 458 q 426 493 411 485 q 408 508 415 499 q 401 532 401 518 q 397 553 401 540 q 382 574 393 567 q 360 579 375 579 q 341 576 350 579 q 324 571 332 574 q 246 501 288 557 q 168 361 204 444 q 139 283 151 322 q 119 210 126 244 q 110 148 111 176 q 114 101 108 119 q 119 89 117 90 q 129 89 122 88 q 190 124 160 94 q 247 192 219 153 q 297 277 274 232 q 340 361 321 322 q 365 410 354 388 q 388 450 376 432 z "},"b":{"ha":554,"x_min":10,"x_max":519,"o":"m 496 538 q 517 442 515 497 q 504 325 519 388 q 460 206 489 263 q 392 104 432 149 q 153 -8 289 -8 q 42 10 96 -8 q 18 31 26 17 q 17 63 10 46 q 40 88 21 81 q 38 110 35 97 q 41 156 38 114 q 49 265 44 199 q 60 417 54 332 q 72 591 65 501 q 84 769 78 681 q 96 934 90 858 q 105 1065 101 1010 q 110 1142 108 1119 q 124 1171 111 1160 q 154 1181 136 1182 q 182 1167 171 1179 q 192 1138 193 1154 q 185 1044 190 1115 q 174 875 181 972 q 160 666 168 778 q 144 450 151 554 q 238 569 183 521 q 368 619 292 617 q 496 538 457 624 m 424 344 q 435 434 435 392 q 421 504 435 476 q 396 533 410 528 q 369 538 382 539 q 308 518 336 536 q 256 472 279 500 q 215 408 233 443 q 183 340 197 374 q 158 267 168 304 q 139 199 147 231 q 126 141 131 167 q 119 100 121 115 l 118 97 q 110 78 117 86 q 181 76 149 71 q 242 93 214 81 q 292 123 269 106 q 331 160 314 140 q 387 244 363 196 q 424 344 411 292 z "},"c":{"ha":585,"x_min":25,"x_max":585,"o":"m 571 244 q 584 216 583 233 q 572 186 585 199 q 561 174 572 185 q 531 146 550 163 q 486 109 513 129 q 429 71 460 89 q 254 17 335 17 q 122 60 179 17 q 43 187 61 104 q 51 379 25 269 q 81 472 63 426 q 121 558 99 518 q 156 613 140 593 q 184 642 172 632 q 204 654 196 651 q 217 657 213 657 q 275 653 249 663 q 322 628 301 644 q 354 590 342 611 q 371 547 367 568 q 364 516 374 531 q 338 499 354 501 q 307 506 321 496 q 290 532 293 515 q 285 546 289 538 q 274 561 281 554 q 257 573 267 568 q 235 576 247 578 q 210 544 228 569 q 169 472 192 519 q 135 371 147 422 q 119 275 122 319 q 171 126 114 169 q 244 100 206 101 q 320 111 282 99 q 392 146 358 124 q 453 190 426 168 q 495 226 479 211 q 513 243 511 242 q 541 256 524 256 q 571 244 558 256 z "},"d":{"ha":583,"x_min":38,"x_max":542,"o":"m 538 386 q 541 256 542 313 q 536 160 540 200 q 517 81 531 113 q 486 42 503 53 q 457 28 469 31 q 360 19 404 19 q 171 71 247 19 q 49 258 74 135 q 43 370 38 313 q 68 479 49 428 q 126 572 90 536 q 204 618 161 607 q 343 579 272 635 q 392 532 368 560 q 442 468 417 504 l 450 453 q 427 693 442 571 q 399 922 413 815 q 381 1061 388 1001 q 374 1150 375 1121 q 384 1179 372 1167 q 413 1192 396 1192 q 442 1181 431 1193 q 456 1153 454 1169 q 464 1066 457 1125 q 481 932 471 1007 q 496 805 488 874 q 513 665 504 736 q 527 523 521 594 q 538 386 533 451 m 457 201 q 458 229 458 214 q 458 261 458 244 q 453 271 454 264 q 447 285 453 271 q 431 320 442 299 q 406 369 421 342 q 372 424 390 396 q 345 460 361 440 q 311 498 329 481 q 274 527 293 515 q 235 539 254 539 q 222 538 226 539 q 178 508 199 532 q 144 447 158 483 q 126 365 131 410 q 131 275 121 321 q 153 210 136 246 q 203 147 169 175 q 294 106 238 119 q 438 108 351 93 q 447 132 440 113 q 457 201 454 151 z "},"e":{"ha":579,"x_min":28,"x_max":568,"o":"m 560 171 q 565 140 568 156 q 546 114 561 124 q 533 107 544 114 q 500 90 521 100 q 451 67 479 79 q 392 44 424 54 q 317 25 353 32 q 250 18 282 18 l 247 18 q 106 61 163 18 q 51 130 69 88 q 31 221 33 172 q 36 322 28 269 q 60 422 44 374 q 98 515 75 471 q 147 592 121 558 q 285 675 214 675 q 360 662 328 675 q 413 629 392 649 q 446 588 435 610 q 460 546 457 565 l 460 543 q 458 513 461 529 q 447 477 456 496 q 420 439 438 458 q 374 400 403 419 q 290 356 333 372 q 222 332 247 339 q 118 317 151 313 q 113 271 114 293 q 113 229 111 249 q 122 174 114 203 q 154 126 131 144 q 201 106 175 111 q 256 101 228 100 q 313 108 285 101 q 365 122 340 114 q 462 163 422 142 q 503 185 501 183 q 534 190 518 193 q 560 171 550 186 m 285 593 q 251 579 269 593 q 213 540 232 565 q 174 479 193 515 q 139 399 154 443 q 173 404 150 400 q 225 419 196 408 q 297 449 265 432 q 350 486 329 467 q 378 536 379 514 q 372 551 376 542 q 356 571 367 561 q 327 587 344 581 q 285 593 310 593 z "},"f":{"ha":636,"x_min":-3,"x_max":654,"o":"m 638 574 q 653 546 651 563 q 643 517 654 529 q 628 501 639 511 q 585 479 617 492 q 497 453 554 467 q 344 429 440 440 q 293 424 319 426 q 240 418 267 421 q 255 281 246 346 q 272 167 264 217 q 287 88 281 117 q 293 57 293 58 q 288 26 297 40 q 263 8 279 13 q 258 8 260 8 q 253 7 256 7 q 227 16 239 7 q 213 40 215 25 q 206 76 213 44 q 191 158 200 107 q 173 274 182 208 q 157 414 164 340 l 115 414 q 67 415 89 414 q 32 419 46 417 q 6 438 15 424 q 1 469 -3 453 q 20 495 6 486 q 51 500 35 504 q 151 496 75 493 q 148 632 147 564 q 156 763 149 700 q 163 805 157 778 q 178 865 168 832 q 203 933 188 897 q 244 1006 219 969 q 508 1153 343 1150 q 537 1142 525 1154 q 550 1113 549 1131 q 538 1084 550 1096 q 510 1071 526 1072 q 410 1047 453 1069 q 338 992 368 1025 q 290 922 308 960 q 259 849 271 883 q 243 788 247 814 q 238 753 239 761 q 231 631 231 694 q 233 501 231 567 q 328 510 281 504 q 419 524 376 517 q 496 539 463 531 q 562 558 546 550 q 579 568 578 567 q 607 583 590 582 q 638 574 624 585 z "},"g":{"ha":563,"x_min":29,"x_max":535,"o":"m 533 531 q 533 455 535 497 q 528 365 532 413 q 517 276 524 328 q 496 164 510 224 q 463 40 482 104 q 414 -87 443 -25 q 286 -274 360 -207 q 86 -360 196 -356 l 85 -360 q 56 -349 68 -360 q 44 -321 44 -337 q 55 -290 43 -303 q 83 -278 67 -278 q 296 -133 206 -272 q 351 -26 328 -83 q 392 90 375 32 q 419 199 408 147 q 435 288 429 250 q 443 349 440 319 q 449 406 446 379 q 424 352 438 379 q 396 300 411 325 q 178 146 304 146 q 103 164 131 146 q 63 200 76 182 q 29 317 29 246 q 44 423 29 367 q 88 528 60 479 q 159 617 119 586 q 242 647 199 647 q 347 626 308 649 q 407 581 386 604 q 418 565 414 574 l 429 594 q 438 613 433 606 q 461 633 447 629 q 486 635 475 638 q 523 597 515 628 q 533 531 531 567 m 178 228 q 252 255 218 228 q 313 322 286 282 q 360 410 340 363 q 396 499 381 458 l 365 492 l 365 490 q 360 503 363 497 q 353 515 357 508 q 343 529 350 522 q 244 565 310 565 l 242 565 q 199 542 222 565 q 157 484 176 519 q 124 404 138 449 q 111 317 111 360 q 119 265 111 283 q 138 239 128 247 q 160 229 149 231 q 178 228 171 228 z "},"h":{"ha":610,"x_min":56,"x_max":582,"o":"m 560 371 q 577 260 572 317 q 578 161 582 203 q 564 132 576 143 q 533 124 551 121 q 506 138 517 125 q 496 168 494 150 q 494 254 499 204 q 478 353 490 304 q 450 444 467 403 q 411 506 433 486 q 394 515 401 514 q 382 515 388 517 q 373 511 379 515 q 356 494 367 507 q 333 456 346 481 q 304 389 319 431 q 264 261 282 329 q 231 133 246 193 q 212 61 219 90 q 197 12 204 32 q 185 -20 190 -8 q 172 -39 179 -32 q 140 -53 156 -53 q 124 -50 135 -53 q 99 -25 104 -42 q 90 4 93 -8 l 83 65 q 78 147 81 100 q 75 258 76 194 q 69 507 71 374 q 64 767 67 640 q 63 881 64 826 q 61 980 63 936 q 59 1055 60 1024 q 57 1099 58 1086 q 67 1129 56 1117 q 94 1144 78 1142 q 124 1135 111 1146 q 139 1107 138 1124 q 142 1062 140 1093 q 144 986 143 1031 q 145 886 144 942 q 147 768 146 831 q 151 525 149 650 q 156 289 153 400 l 160 190 q 201 342 181 272 q 247 466 222 413 q 299 553 271 519 q 363 596 326 588 q 465 568 418 608 q 499 528 485 551 q 526 477 514 504 q 546 423 538 450 q 560 371 554 396 z "},"i":{"ha":231,"x_min":38,"x_max":215,"o":"m 122 642 q 150 628 139 640 q 160 597 161 615 q 156 517 157 567 q 151 411 154 468 q 140 155 146 256 q 121 21 135 54 q 106 1 117 8 q 83 -6 94 -6 q 68 -3 76 -6 q 45 20 53 4 q 44 51 38 36 q 47 61 46 54 q 51 83 49 68 q 55 122 53 97 q 60 185 57 147 q 65 297 63 238 q 69 414 67 357 q 74 522 72 472 q 78 604 75 572 q 92 632 79 621 q 122 642 104 643 m 100 1008 q 137 1003 117 1008 q 174 987 157 997 q 203 961 192 976 q 215 926 215 946 q 209 902 215 911 q 192 889 203 893 q 169 884 182 885 q 146 883 157 883 q 78 900 106 883 q 51 960 51 917 q 65 995 51 982 q 100 1008 79 1008 z "},"j":{"ha":229,"x_min":-142,"x_max":194,"o":"m 97 522 q 128 515 114 525 q 144 489 142 506 q 157 388 151 446 q 164 264 163 329 q 163 129 165 199 q 153 -7 161 60 q 126 -151 143 -86 q 85 -265 110 -217 q -90 -412 19 -394 q -97 -414 -93 -414 q -139 -379 -132 -414 q -132 -349 -142 -362 q -104 -332 -122 -335 q 11 -229 -35 -319 q 71 3 54 -140 q 81 147 79 75 q 81 282 83 219 q 73 395 78 344 q 63 475 68 446 q 70 506 60 492 q 97 522 81 519 m 189 956 q 193 931 192 949 q 175 892 194 913 q 142 865 164 878 q 97 853 121 853 q 88 853 92 853 q 78 856 83 854 q 40 901 44 867 q 45 932 38 918 q 65 956 53 946 q 90 974 76 967 q 115 985 104 982 q 164 982 146 993 q 189 956 182 971 z "},"k":{"ha":760,"x_min":28,"x_max":761,"o":"m 722 346 q 751 330 740 343 q 758 300 761 317 q 733 226 756 269 q 682 146 711 183 q 506 43 599 43 q 494 44 499 43 q 375 117 417 49 q 351 172 360 143 q 335 232 342 201 q 319 285 326 265 q 304 315 313 306 l 274 217 q 243 124 256 161 q 221 64 231 88 q 202 28 211 40 q 182 10 193 15 q 160 4 172 4 q 138 10 147 4 q 111 42 121 19 q 93 117 101 65 q 84 193 89 149 q 75 296 79 238 q 60 526 67 401 q 46 768 53 650 q 38 941 42 864 q 29 1071 33 1018 q 39 1100 28 1088 q 67 1115 50 1113 q 97 1106 85 1117 q 111 1078 110 1094 q 119 947 115 1025 q 129 772 124 868 q 141 545 135 663 q 154 326 147 428 q 163 233 158 272 q 169 165 167 193 l 194 242 q 243 391 217 311 q 300 543 269 471 q 378 688 340 635 q 457 763 417 742 q 549 771 504 786 q 573 749 565 764 q 575 718 581 733 q 554 694 569 701 q 522 692 539 686 q 494 689 510 697 q 474 674 486 685 q 447 642 461 663 q 414 590 432 622 q 376 511 396 558 q 332 397 353 454 q 358 378 346 390 q 382 347 371 367 q 400 301 393 326 q 414 251 407 276 q 446 159 429 189 q 500 126 463 129 q 536 132 518 125 q 569 150 554 139 q 597 174 585 161 q 618 197 610 186 q 660 266 646 233 q 676 310 675 299 q 692 338 679 328 q 722 346 706 349 z "},"l":{"ha":203,"x_min":54,"x_max":146,"o":"m 138 1081 q 142 977 140 1047 q 145 823 144 907 q 146 652 146 739 q 146 499 146 565 q 146 331 146 415 q 144 175 146 247 q 144 89 144 119 q 142 43 143 58 q 141 24 142 28 q 140 18 140 19 q 126 -6 138 3 q 100 -14 115 -14 l 92 -14 q 66 3 75 -10 q 60 32 57 17 q 61 114 60 43 q 63 288 63 185 q 65 511 64 390 q 65 744 65 632 q 62 946 64 857 q 56 1074 60 1035 q 65 1103 54 1090 q 93 1118 76 1115 q 123 1108 110 1119 q 138 1081 136 1097 z "},"m":{"ha":894,"x_min":40,"x_max":882,"o":"m 879 144 q 871 115 882 128 q 843 100 860 101 q 781 119 806 96 q 746 210 749 150 q 746 346 743 271 q 749 408 749 378 q 749 464 750 439 q 744 496 746 485 q 739 511 742 507 q 723 494 733 507 q 694 450 713 481 q 660 383 676 419 q 626 311 643 347 q 563 184 588 226 q 501 142 538 142 q 465 157 481 142 q 447 209 449 176 q 453 310 446 242 q 458 383 456 346 q 460 457 461 421 q 451 521 457 501 q 439 546 444 540 q 421 553 432 553 q 407 549 415 553 q 386 533 399 546 q 359 497 374 521 q 326 433 344 474 q 278 302 299 374 q 239 168 257 231 q 217 93 226 124 q 201 42 208 63 q 185 10 193 22 q 169 -8 178 -1 q 138 -21 157 -21 q 118 -17 128 -21 q 90 14 101 -8 q 69 94 78 36 q 56 258 61 153 q 44 536 50 363 l 42 610 q 52 639 40 626 q 82 653 64 651 q 111 641 99 653 q 124 613 124 629 l 126 539 q 132 387 129 468 q 139 233 135 306 l 147 146 l 160 190 q 200 329 178 256 q 250 467 222 403 q 317 581 283 542 q 421 635 364 635 q 499 601 469 635 q 529 547 519 579 q 541 475 539 514 q 541 394 543 436 q 535 311 539 353 l 551 346 q 635 512 597 447 q 715 592 672 576 q 772 589 744 601 q 810 553 797 578 q 827 496 822 529 q 831 423 832 463 q 828 342 829 383 q 826 283 826 313 q 826 231 825 254 q 831 196 828 207 q 835 182 833 185 q 865 172 851 183 q 879 144 878 161 z "},"n":{"ha":626,"x_min":40,"x_max":579,"o":"m 578 63 q 569 33 579 46 q 540 18 558 21 q 511 26 524 15 q 496 54 499 38 q 494 74 496 54 q 487 127 492 94 q 474 201 482 160 q 457 289 467 243 q 424 420 440 368 q 392 503 407 472 q 367 549 378 535 q 349 569 356 564 q 331 575 336 578 q 318 570 328 575 q 294 546 308 565 q 263 489 281 526 q 226 388 246 451 q 204 303 214 346 q 187 222 194 261 q 173 147 179 182 q 163 88 167 113 q 160 68 161 76 q 157 53 158 60 q 156 47 157 49 q 156 42 156 44 q 138 15 150 22 q 114 7 125 7 l 113 7 q 87 17 99 7 q 72 46 75 26 q 71 72 71 53 q 69 125 71 90 q 68 221 69 164 q 64 335 67 278 q 57 444 61 393 q 44 522 53 494 q 49 553 40 539 q 74 572 57 568 q 105 568 90 576 q 124 543 119 560 q 135 480 131 518 q 143 396 140 442 l 147 411 q 319 657 217 643 q 399 635 360 663 q 476 521 442 601 q 539 306 510 440 q 556 215 549 258 q 567 139 563 172 q 575 85 572 106 q 578 63 578 64 z "},"o":{"ha":535,"x_min":42,"x_max":507,"o":"m 231 685 q 250 681 242 685 q 342 622 296 660 q 424 535 388 585 q 484 426 461 486 q 507 300 507 367 q 489 186 507 243 q 438 83 471 129 q 356 7 404 36 q 246 -22 307 -22 q 134 15 175 -22 q 73 103 93 51 q 47 207 53 154 q 42 293 42 260 q 43 349 42 313 q 49 428 44 386 q 60 515 53 471 q 79 597 67 560 q 109 656 92 633 q 150 679 126 679 q 190 656 181 679 q 205 676 193 668 q 231 685 217 685 m 260 60 q 329 83 299 60 q 381 141 360 106 q 414 220 403 176 q 425 304 425 264 q 409 397 425 356 q 369 470 393 438 q 315 528 344 503 q 260 573 286 554 q 216 605 235 592 q 193 628 197 618 q 169 600 186 608 q 148 542 157 581 q 134 460 139 503 q 126 376 129 417 q 124 313 124 335 q 127 253 124 294 q 144 168 131 211 q 184 92 157 125 q 260 60 211 60 z "},"p":{"ha":632,"x_min":56,"x_max":618,"o":"m 608 581 q 617 510 618 547 q 607 438 615 474 q 586 372 599 403 q 564 319 574 342 q 487 192 531 249 q 399 104 443 136 q 348 77 371 85 q 306 69 325 69 q 274 75 288 69 q 253 88 261 81 q 235 115 238 99 q 243 146 232 131 q 269 163 253 160 q 300 156 286 165 q 327 158 310 149 q 351 171 344 167 q 424 246 386 196 q 489 354 461 296 q 529 469 518 417 q 529 557 540 522 q 511 587 525 572 q 458 603 497 601 q 349 561 394 606 q 217 221 257 475 q 193 -1 199 108 q 185 -196 188 -110 l 181 -301 l 176 -336 q 158 -369 171 -361 q 138 -381 146 -378 l 131 -381 q 96 -364 108 -381 q 88 -352 92 -360 q 79 -330 83 -344 q 72 -291 75 -315 q 65 -226 68 -267 q 60 -124 63 -182 q 56 -4 57 -67 q 56 38 56 8 q 56 103 56 67 q 57 183 56 140 q 60 264 58 225 q 67 335 63 303 q 76 386 71 367 q 97 410 82 403 q 128 414 113 418 q 153 393 144 408 q 156 361 161 378 q 144 289 149 340 q 293 622 192 528 q 463 685 364 689 q 556 656 519 682 q 608 581 593 629 z "},"q":{"ha":614,"x_min":13,"x_max":571,"o":"m 568 369 q 571 231 571 304 q 569 100 571 158 q 567 -42 569 31 q 563 -176 565 -114 q 558 -285 561 -239 q 551 -347 556 -331 q 538 -372 549 -362 q 511 -381 526 -381 q 503 -379 506 -381 q 477 -362 486 -376 q 471 -331 468 -347 q 475 -285 472 -321 q 480 -197 478 -250 q 484 -75 482 -143 q 488 71 486 -7 q 483 404 489 306 l 460 375 q 374 271 415 319 q 292 185 332 222 q 215 127 253 149 q 143 106 178 106 l 142 106 q 64 147 94 108 q 15 286 18 210 q 54 446 13 363 q 107 529 76 490 q 175 600 138 568 q 202 622 186 610 q 237 645 218 635 q 277 663 256 656 q 319 669 299 669 q 415 652 371 669 q 503 579 458 635 q 512 556 511 568 q 506 532 513 543 q 521 531 515 532 q 552 501 546 524 q 561 460 558 479 q 565 422 564 444 q 568 369 567 399 m 451 493 q 460 503 456 499 q 469 513 464 508 q 438 529 450 513 q 383 576 410 565 q 319 586 357 586 q 279 574 304 586 q 227 538 254 561 q 174 483 200 515 q 128 410 147 450 q 108 362 117 388 q 98 308 100 336 q 103 251 96 281 q 131 196 110 222 q 138 190 135 190 q 143 189 140 189 q 156 191 147 189 q 177 201 164 193 q 210 224 190 208 q 256 264 229 239 q 329 345 293 301 q 396 426 365 389 q 426 464 413 447 q 451 493 440 481 z "},"r":{"ha":514,"x_min":43,"x_max":514,"o":"m 497 632 q 513 591 513 610 q 513 568 514 572 q 495 542 510 551 q 464 536 481 533 q 439 553 449 539 q 432 582 429 567 q 421 594 431 586 q 381 608 411 601 q 286 572 319 608 q 248 508 261 547 q 228 424 235 469 q 222 328 222 378 q 222 233 222 279 q 223 162 224 194 q 219 103 222 129 q 216 81 218 94 q 208 52 214 67 q 190 25 201 38 q 161 7 179 13 q 140 4 147 4 q 94 22 117 4 q 76 46 85 31 q 59 89 67 61 q 47 162 51 117 q 43 276 43 207 q 45 348 43 313 q 49 414 47 383 q 53 468 51 444 q 57 503 56 492 q 74 530 60 519 q 104 538 88 540 q 131 521 121 535 q 139 490 142 507 q 135 460 138 482 q 131 410 133 439 q 127 348 129 382 q 125 279 125 314 q 128 172 125 211 q 138 113 132 132 q 139 129 139 118 q 141 177 142 150 q 140 233 140 204 q 141 340 140 285 q 150 449 142 396 q 176 550 158 503 q 228 631 194 597 q 383 690 286 690 l 390 690 q 497 632 468 675 z "},"s":{"ha":460,"x_min":8,"x_max":467,"o":"m 389 210 q 458 65 467 140 q 456 51 458 60 q 446 33 453 42 q 427 17 439 25 q 396 6 415 10 q 358 1 379 1 q 297 7 326 1 q 251 17 267 13 q 216 27 232 22 q 186 39 200 32 q 135 76 147 56 q 131 108 126 92 q 150 132 135 124 q 179 137 164 140 q 204 122 194 133 q 234 108 211 117 q 293 92 257 99 q 345 84 325 85 q 376 85 365 83 q 356 124 374 104 q 314 165 339 144 q 259 204 289 185 q 201 242 229 224 q 136 283 168 263 q 78 326 104 304 q 36 372 53 349 q 15 422 19 396 q 35 524 8 475 q 115 607 61 572 q 240 651 172 643 q 364 626 315 660 q 383 601 379 617 q 376 569 386 585 q 350 551 367 554 q 319 558 333 549 q 288 569 307 567 q 247 569 268 572 q 203 558 225 567 q 160 538 181 550 q 140 523 151 532 q 117 501 128 514 q 101 471 107 488 q 97 435 94 454 q 106 417 99 429 q 138 383 113 404 q 187 349 160 367 q 244 311 214 331 q 321 263 283 288 q 389 210 358 238 z "},"t":{"ha":642,"x_min":-1,"x_max":644,"o":"m 638 463 q 638 431 644 447 q 615 408 631 415 q 604 404 611 406 q 574 401 597 403 q 506 399 551 400 q 381 399 461 399 l 376 399 q 373 277 375 335 q 368 172 371 219 q 361 91 365 125 q 353 42 357 57 q 314 13 344 13 q 301 14 306 13 q 278 33 286 18 q 274 65 269 49 q 280 104 276 75 q 286 177 283 133 q 291 277 289 221 q 294 399 293 333 q 210 399 251 399 q 133 401 168 400 q 74 402 99 401 q 39 403 49 403 q 10 417 22 404 q 0 446 -1 429 q 14 475 1 464 q 43 485 26 486 q 77 484 53 485 q 135 483 101 483 q 210 481 169 482 q 294 481 251 481 l 294 558 q 288 769 293 679 q 274 919 282 858 q 256 1015 265 981 q 238 1063 246 1050 q 228 1092 226 1076 q 244 1119 231 1108 q 275 1128 258 1131 q 303 1113 292 1126 q 316 1090 308 1104 q 331 1051 324 1076 q 346 988 339 1026 q 360 893 353 950 q 371 742 367 826 q 376 560 375 657 l 376 481 q 513 481 453 481 q 588 485 572 482 q 617 483 603 489 q 638 463 631 476 z "},"u":{"ha":617,"x_min":26,"x_max":615,"o":"m 538 161 q 557 180 544 174 q 582 186 569 186 q 606 178 596 186 q 615 154 615 169 q 610 129 615 140 q 581 91 603 111 q 519 71 558 71 l 508 71 q 483 81 497 72 q 461 122 468 90 q 457 145 458 132 q 454 176 456 158 q 452 247 451 208 q 454 326 453 285 q 455 381 454 354 q 454 433 456 408 q 413 303 436 374 q 361 171 390 233 q 197 -7 288 7 q 181 -8 192 -8 q 121 14 144 -8 q 80 78 94 36 q 58 190 65 119 q 52 305 53 244 q 51 422 51 365 q 51 498 51 463 q 50 564 51 533 q 44 614 47 600 q 40 631 42 628 q 28 658 29 642 q 38 686 26 675 q 65 701 49 700 q 96 692 82 703 q 129 606 124 668 q 133 422 135 543 q 134 306 133 364 q 140 199 135 249 q 148 142 143 164 q 158 106 153 119 q 167 85 163 92 q 174 76 171 79 q 178 74 176 75 q 185 74 179 74 q 201 81 190 75 q 224 100 211 86 q 252 140 236 114 q 288 206 268 165 q 337 334 315 265 q 378 463 358 403 q 394 518 386 493 q 410 563 403 543 q 431 607 419 588 q 463 631 442 626 q 507 615 489 635 l 508 614 q 535 519 531 586 q 536 325 539 453 q 535 238 535 286 q 538 161 535 190 z "},"v":{"ha":529,"x_min":11,"x_max":531,"o":"m 528 618 q 521 588 531 601 q 496 571 511 574 q 483 553 493 568 q 456 492 472 539 q 431 409 443 454 q 407 318 419 364 q 353 128 378 200 q 292 33 329 57 q 258 24 276 24 q 235 29 246 24 q 183 80 207 40 q 135 200 160 119 q 97 326 115 258 q 64 456 79 393 q 38 555 50 508 q 18 625 26 601 q 19 656 11 640 q 42 678 26 671 q 73 677 57 685 q 94 654 89 669 q 117 580 106 626 q 144 475 129 533 q 176 353 160 417 q 210 235 192 290 q 239 155 226 182 q 258 117 251 128 q 283 178 268 133 q 306 253 294 213 q 328 338 317 293 q 362 465 346 408 q 395 561 378 521 q 433 625 413 601 q 482 653 454 649 q 512 645 499 656 q 528 618 525 635 z "},"w":{"ha":718,"x_min":28,"x_max":707,"o":"m 703 553 q 679 511 707 522 q 676 499 678 507 q 671 474 674 490 l 663 385 q 655 292 660 340 q 639 203 650 244 q 539 68 610 90 q 372 108 457 40 q 333 144 350 125 q 300 183 315 164 q 287 140 294 163 q 267 97 279 118 q 236 60 254 76 q 193 35 218 43 q 169 31 181 31 q 129 43 147 31 q 108 64 119 50 q 86 105 97 78 q 65 177 75 132 q 47 292 56 222 q 40 373 43 332 q 34 450 36 414 q 31 516 32 486 q 29 565 29 546 q 40 594 28 582 q 69 608 51 607 q 99 597 86 608 q 111 568 111 585 q 113 521 111 550 q 116 456 114 492 q 121 382 118 421 q 128 304 124 343 q 140 220 133 254 q 152 165 146 186 q 164 131 158 143 q 172 115 169 119 q 194 137 185 122 q 210 169 204 151 q 221 206 217 188 q 228 239 225 224 q 231 256 229 249 q 233 269 232 263 q 252 301 240 293 q 275 311 264 310 q 306 304 294 314 q 322 289 317 294 l 342 264 q 374 222 356 246 q 416 179 393 199 q 464 149 439 160 q 515 146 489 138 q 542 175 532 151 q 558 222 553 199 q 573 304 568 260 q 581 390 578 349 q 593 507 585 460 q 598 527 594 514 q 608 553 601 540 q 627 576 615 567 q 658 589 639 586 q 688 581 675 592 q 703 553 701 571 z "},"x":{"ha":667,"x_min":93,"x_max":667,"o":"m 656 596 q 613 549 640 579 q 549 478 585 518 q 473 392 514 438 q 393 300 432 346 l 325 221 q 367 171 344 193 q 413 133 389 149 q 575 125 490 83 q 606 127 590 132 q 629 107 622 122 q 631 75 636 92 q 611 51 626 58 q 499 24 553 24 q 368 64 432 24 q 317 106 340 82 q 271 157 293 129 q 225 99 243 122 q 197 63 207 76 q 181 42 186 49 q 175 32 176 35 q 161 10 172 18 q 136 1 150 1 l 132 1 q 104 17 115 4 q 94 46 93 29 q 97 59 94 51 q 113 85 100 67 q 151 138 125 104 q 224 229 176 172 q 162 381 183 303 q 142 515 140 458 q 154 544 142 532 q 183 556 167 556 q 213 543 201 556 q 224 514 225 531 q 239 414 224 472 q 282 297 254 356 q 300 319 290 308 q 319 342 310 329 q 403 437 361 389 q 482 526 444 485 q 549 601 519 568 q 594 651 578 635 q 623 665 606 664 q 653 654 640 665 q 666 626 665 643 q 656 596 667 608 z "},"y":{"ha":554,"x_min":13,"x_max":528,"o":"m 490 603 q 518 587 508 600 q 525 556 528 574 q 511 476 521 526 q 488 360 501 425 q 456 222 474 296 q 418 71 439 147 q 235 -406 319 -308 q 204 -421 222 -421 q 178 -410 189 -421 q 163 -382 164 -399 q 172 -353 161 -365 q 196 -318 182 -342 q 228 -250 210 -294 q 271 -137 247 -206 q 322 32 294 -68 q 288 38 307 33 q 246 56 268 43 q 167 119 206 78 q 97 210 129 161 q 44 308 65 258 q 15 399 22 358 q 23 429 13 415 q 50 446 33 443 q 81 439 67 449 q 97 411 94 429 q 122 338 103 379 q 167 254 140 296 q 224 178 193 213 q 286 126 256 143 q 338 118 318 110 q 342 119 340 118 q 346 119 343 119 q 381 260 364 192 q 410 388 397 329 q 431 494 422 447 q 444 569 440 542 q 460 596 447 586 q 490 603 474 606 z "},"z":{"ha":628,"x_min":-3,"x_max":643,"o":"m 633 103 q 640 72 643 88 q 622 46 638 56 q 576 23 603 33 q 519 5 550 13 q 456 -7 489 -3 q 390 -11 422 -11 q 338 -8 363 -11 q 292 4 313 -4 q 240 36 256 17 q 218 72 224 56 q 234 175 206 113 q 315 332 263 238 q 353 397 335 364 q 385 460 371 431 q 402 503 399 489 q 406 525 406 518 q 362 526 396 528 q 257 501 328 525 q 195 478 225 490 q 140 455 165 467 q 94 433 114 443 q 63 415 74 422 q 31 410 47 407 q 6 429 15 414 q 1 461 -3 444 q 19 486 4 478 q 111 533 53 506 q 231 579 169 560 q 378 610 322 610 q 465 583 435 611 q 488 535 486 564 q 476 468 489 506 q 439 385 463 431 q 388 290 415 340 q 350 225 368 258 q 319 164 332 192 q 299 113 301 126 q 297 96 297 99 q 319 81 300 89 q 381 72 344 72 q 453 76 417 71 q 524 92 490 82 q 576 115 557 103 q 608 122 592 125 q 633 103 624 118 z "},"":{"ha":335,"x_min":0,"x_max":0,"o":""},"":{"ha":0,"x_min":0,"x_max":0,"o":""},"":{"ha":558,"x_min":26,"x_max":529,"o":"m 371 743 q 451 719 419 743 q 499 658 482 694 q 523 577 517 621 q 529 494 529 533 q 519 363 529 436 q 483 227 510 290 q 408 121 456 164 q 285 78 360 78 q 219 92 240 78 q 186 121 197 106 q 177 171 174 144 q 200 221 181 197 q 228 235 211 233 q 258 226 244 238 q 272 198 271 215 q 263 168 274 181 q 260 163 260 163 q 268 160 263 161 q 285 160 274 160 q 368 197 336 160 q 418 288 400 235 q 442 399 436 342 q 447 494 447 456 q 445 542 447 514 q 435 597 443 571 q 412 642 428 624 q 369 661 396 661 q 315 643 343 661 q 259 601 286 625 q 206 551 232 576 q 161 510 181 525 q 160 508 161 508 q 169 281 165 399 q 176 53 174 163 q 180 -74 178 -10 q 184 -192 182 -137 q 188 -286 186 -246 q 193 -340 190 -326 q 199 -368 201 -351 q 185 -393 196 -383 q 158 -403 174 -403 l 153 -403 q 132 -392 144 -400 q 114 -361 119 -385 l 110 -333 q 106 -295 107 -318 q 103 -242 106 -272 l 93 50 q 85 318 90 181 q 74 578 81 456 q 65 695 69 644 q 56 786 61 746 q 42 864 49 844 q 35 886 36 883 q 31 917 26 901 q 50 942 35 933 q 81 947 65 950 q 106 928 97 943 q 117 900 111 918 q 130 847 124 882 q 142 756 136 813 q 154 614 149 700 q 199 657 175 635 q 251 699 224 679 q 309 731 279 718 q 371 743 339 743 z "},"":{"ha":640,"x_min":-100,"x_max":599,"o":"m 557 660 q 588 522 578 597 q 596 372 599 447 q 591 306 594 342 q 579 233 588 269 q 556 160 571 196 q 521 93 542 124 q 351 0 457 3 l 343 0 q 151 60 231 0 q 90 127 114 89 q 58 208 65 165 q 86 347 46 285 q 217 443 129 414 q 311 463 268 460 q 389 458 354 465 q 451 438 424 451 q 497 411 478 425 l 514 397 q 505 522 514 460 q 478 633 496 583 q 429 744 460 689 q 356 847 399 799 l 260 781 q 160 712 207 744 q 86 654 114 679 q 58 643 72 643 q 28 657 42 643 q 17 688 17 671 q 31 715 18 704 q 110 777 63 743 q 214 849 158 811 l 294 906 q 141 990 228 960 q -54 1011 54 1021 q -83 1021 -71 1010 q -99 1049 -96 1032 q -89 1078 -100 1065 q -61 1093 -78 1092 q 156 1072 53 1104 q 346 968 258 1040 q 354 962 350 965 q 363 954 358 958 q 390 974 376 965 q 414 994 403 983 q 463 1037 444 1019 q 490 1066 481 1054 q 501 1083 499 1078 q 504 1090 504 1089 q 520 1117 507 1107 q 551 1125 533 1128 q 578 1109 568 1122 q 586 1079 589 1096 q 538 995 579 1039 q 422 896 497 951 q 557 660 511 793 m 454 140 q 504 281 489 192 q 489 303 497 292 q 471 324 482 313 q 444 347 460 336 q 336 381 399 381 q 243 364 293 381 q 158 308 185 346 q 139 222 131 271 q 160 170 144 194 q 201 126 175 146 q 350 82 261 79 q 454 140 413 83 z "},"":{"ha":683,"x_min":-106,"x_max":706,"o":"m 593 390 q 646 310 638 350 q 647 243 654 271 q 601 135 632 174 q 534 77 571 96 q 460 53 497 58 q 396 47 424 49 l 356 43 q 327 35 343 33 q 300 50 311 38 q 291 81 289 64 q 307 108 293 97 q 344 124 322 121 q 390 129 365 128 q 444 134 417 131 q 495 150 471 138 q 538 189 519 163 q 567 261 557 215 q 563 298 571 281 q 536 331 554 315 q 492 360 518 346 q 439 389 467 375 q 414 401 425 396 q 393 414 403 407 q 372 431 386 418 q 356 465 357 443 q 379 513 353 493 q 406 535 389 519 q 442 572 422 550 q 483 619 463 593 q 525 675 504 646 q 588 785 568 736 q 601 863 608 835 q 591 881 600 868 q 542 899 582 893 q 510 891 526 901 q 481 869 493 881 q 324 645 410 807 q 146 236 238 483 q 133 205 139 221 q 122 172 128 189 q 118 158 119 165 q 115 143 117 150 q 75 -25 96 56 q 36 -171 54 -106 q 8 -261 19 -228 q -10 -312 -3 -294 q -22 -337 -17 -331 q -29 -347 -26 -343 q -61 -361 -43 -361 q -74 -360 -69 -361 q -94 -347 -85 -357 q -106 -319 -103 -337 l -106 -300 l -97 -256 q -78 -178 -90 -225 q -47 -72 -65 -131 q -6 55 -29 -12 q 43 196 17 122 q 74 346 60 275 q 100 475 89 417 q 113 555 108 524 q 118 604 117 586 q 119 630 119 622 q 119 639 119 638 q 124 669 115 654 q 147 689 132 683 q 178 686 164 694 q 199 661 193 678 q 203 639 201 654 q 199 576 204 624 q 268 713 235 651 q 333 822 301 775 q 553 981 450 996 q 609 965 586 975 q 647 940 632 954 q 669 911 661 926 q 681 882 678 896 q 593 628 706 789 q 524 539 560 579 q 458 472 488 499 q 467 467 463 469 q 476 463 472 465 q 535 431 504 449 q 593 390 567 414 z "},"":{"ha":1111,"x_min":65,"x_max":1076,"o":"m 714 1224 q 889 1185 819 1224 q 1000 1082 958 1146 q 1059 935 1042 1018 q 1076 763 1076 851 q 1071 675 1076 722 q 1051 580 1065 628 q 1015 488 1038 532 q 956 408 992 443 q 870 352 919 374 q 756 329 821 331 q 664 334 717 328 q 551 353 611 340 q 429 384 492 365 q 310 426 367 403 q 320 288 315 353 q 328 171 325 222 q 332 85 331 119 q 332 38 333 50 q 319 11 331 22 q 290 0 307 0 l 288 0 q 258 15 269 1 q 250 44 247 28 q 249 112 251 56 q 240 255 246 168 q 224 452 233 342 q 203 682 215 563 q 162 1012 182 883 q 125 1217 142 1140 q 95 1327 108 1293 q 75 1372 82 1361 q 68 1403 65 1386 q 86 1429 71 1419 q 117 1436 101 1439 q 143 1418 133 1433 q 225 1133 185 1358 q 235 1076 231 1106 q 244 1014 240 1046 q 340 1098 285 1060 q 458 1164 396 1136 q 587 1208 521 1192 q 714 1224 653 1224 m 707 413 q 817 429 771 413 q 894 474 863 446 q 946 539 926 503 q 976 614 965 575 q 991 692 988 653 q 994 763 994 731 q 983 901 994 833 q 941 1023 972 969 q 855 1109 910 1076 q 714 1142 800 1142 q 599 1126 661 1142 q 476 1082 536 1110 q 365 1016 415 1054 q 286 933 314 978 q 274 921 282 925 q 258 914 267 917 q 272 807 265 863 q 285 690 278 751 q 294 599 290 644 q 303 507 299 553 q 333 506 319 514 q 370 491 335 506 q 460 459 406 476 q 580 427 514 442 q 707 413 646 413 z "},"":{"ha":453,"x_min":68,"x_max":385,"o":"m 382 914 q 380 831 385 878 q 349 746 375 783 q 250 694 313 694 q 232 696 239 694 q 99 803 142 707 q 75 883 82 839 q 71 976 68 928 q 106 1114 75 1057 q 160 1174 131 1161 q 210 1188 190 1188 q 268 1169 235 1188 q 333 1090 301 1150 q 365 1007 353 1053 q 382 914 378 961 m 281 793 q 298 842 293 811 q 300 908 303 872 q 288 982 297 944 q 261 1051 278 1019 q 231 1094 246 1082 q 210 1106 217 1106 l 208 1106 q 175 1069 193 1106 q 153 971 157 1033 q 156 899 150 933 q 174 836 161 864 q 242 778 197 782 q 281 793 269 774 z "},"`":{"ha":371,"x_min":67,"x_max":306,"o":"m 283 769 q 301 748 296 761 q 299 719 306 735 q 261 694 288 694 q 244 697 256 694 q 207 738 221 707 q 169 836 193 769 q 156 876 165 850 q 135 929 146 901 q 111 980 124 957 q 88 1010 99 1003 q 70 1035 74 1019 q 76 1067 67 1051 q 103 1084 86 1081 q 133 1078 119 1088 q 194 999 168 1054 q 247 864 219 943 q 266 809 256 838 q 283 769 276 781 z "},"":{"ha":397,"x_min":67,"x_max":331,"o":"m 154 1124 q 178 1103 171 1118 q 179 1071 186 1088 q 171 1025 175 1058 q 164 952 167 992 q 159 873 161 913 q 156 808 157 833 q 153 760 153 772 q 151 742 153 747 q 138 717 149 726 q 111 708 126 708 q 103 710 106 708 q 76 726 86 713 q 69 757 67 740 q 72 777 71 761 q 74 813 72 793 q 78 905 75 860 q 84 988 81 950 q 92 1054 88 1025 q 101 1100 96 1083 q 124 1123 108 1115 q 154 1124 139 1131 m 300 1129 q 324 1107 317 1122 q 325 1076 331 1092 q 320 1049 322 1069 q 317 1003 318 1029 q 314 949 315 976 q 311 899 313 921 q 308 843 310 869 q 306 796 307 817 q 298 745 303 764 q 276 717 293 726 q 257 711 269 711 q 221 732 231 711 q 219 771 211 750 q 222 792 221 778 q 225 826 224 807 q 227 865 226 844 q 229 903 228 885 q 236 1034 232 983 q 247 1104 240 1085 q 269 1128 254 1121 q 300 1129 285 1136 z "},"":{"ha":578,"x_min":67,"x_max":508,"o":"m 499 960 q 505 938 503 951 q 508 909 507 924 q 508 883 508 894 q 507 871 507 872 q 501 810 507 843 q 479 749 494 776 q 438 706 461 717 q 397 694 415 696 l 390 694 q 341 703 364 694 q 298 727 318 713 q 260 758 278 742 q 228 790 242 775 q 213 805 221 797 q 200 817 206 813 q 181 800 193 814 q 151 732 160 774 q 133 706 147 715 q 103 700 119 697 q 76 718 86 704 q 71 749 67 732 q 122 858 85 815 q 204 901 160 901 q 245 887 228 901 q 286 849 263 872 q 338 800 310 825 q 393 776 365 775 q 406 785 399 776 q 419 818 414 797 q 425 860 424 839 q 425 901 426 882 q 422 926 424 919 q 422 956 417 942 q 443 978 428 971 q 474 981 458 986 q 499 960 490 975 z "},"":{"ha":518,"x_min":69,"x_max":471,"o":"m 428 993 q 425 849 471 936 q 388 792 410 819 q 338 743 365 765 q 280 708 311 721 q 217 694 249 694 l 210 694 q 129 735 163 697 q 97 786 108 757 q 78 843 85 815 q 71 894 72 871 q 69 931 69 918 q 83 960 71 949 q 113 969 96 971 q 142 956 131 968 q 151 926 153 944 q 153 896 151 914 q 159 858 154 878 q 172 819 164 838 q 190 790 179 801 q 203 780 197 782 q 214 776 210 778 q 249 785 231 776 q 287 808 268 793 q 323 844 306 824 q 351 886 340 864 q 365 924 364 910 q 363 942 365 938 q 353 971 351 954 q 369 999 356 988 q 400 1008 383 1010 q 428 993 417 1006 z "},"":{"ha":465,"x_min":61,"x_max":435,"o":"m 428 796 q 430 764 435 781 q 410 740 425 747 q 385 733 399 733 q 342 749 361 733 q 315 772 324 764 q 284 808 300 788 q 253 849 268 828 l 218 892 q 197 847 208 872 q 179 803 186 821 q 154 742 164 764 q 136 710 144 721 q 104 694 124 694 q 78 704 88 694 q 63 732 64 715 q 72 761 61 749 q 86 791 76 768 q 103 833 96 814 q 156 949 135 911 q 210 990 178 988 q 260 969 238 993 q 318 899 282 944 q 354 853 333 879 q 388 817 375 828 q 428 796 415 819 z "},"":{"ha":472,"x_min":33,"x_max":414,"o":"m 410 969 q 394 932 414 949 q 376 887 388 919 q 357 829 365 854 q 336 769 344 793 q 321 731 328 746 q 307 710 314 717 q 292 699 300 703 q 274 694 283 694 q 235 710 256 694 q 182 753 214 725 q 131 801 158 775 q 83 849 104 828 q 63 869 72 860 q 46 883 53 878 q 33 912 33 894 q 44 942 33 929 q 73 955 56 954 q 103 944 90 956 l 140 907 q 165 882 150 896 q 197 852 181 868 q 229 822 213 836 q 258 796 246 807 l 279 856 q 294 899 286 878 q 308 940 301 921 q 331 985 319 967 q 364 1006 342 1003 q 394 998 381 1008 q 410 969 407 988 z "},"":{"ha":442,"x_min":68,"x_max":372,"o":"m 281 -60 q 349 -106 325 -71 q 372 -192 372 -142 q 341 -310 372 -258 q 257 -381 310 -362 q 211 -389 233 -389 q 164 -381 186 -389 q 79 -317 115 -362 q 69 -286 68 -303 q 85 -258 71 -269 q 115 -249 99 -247 q 143 -265 132 -251 q 158 -281 149 -272 q 178 -297 167 -290 q 202 -306 189 -303 q 229 -303 215 -308 q 274 -262 257 -293 q 290 -192 290 -232 q 278 -150 290 -158 q 260 -140 267 -142 q 206 -146 235 -133 q 164 -182 178 -158 q 144 -199 157 -193 q 119 -201 132 -204 q 97 -188 106 -199 q 88 -164 88 -178 l 78 47 q 88 77 76 65 q 117 90 99 89 q 146 80 133 92 q 160 51 158 68 l 165 -75 q 223 -57 193 -61 q 281 -60 253 -53 z "},"":{"ha":381,"x_min":68,"x_max":314,"o":"m 289 -226 q 309 -251 304 -235 q 306 -282 314 -267 q 253 -339 286 -318 q 185 -361 221 -360 l 182 -361 q 126 -347 151 -361 q 85 -308 100 -333 q 71 -262 74 -290 q 70 -204 68 -233 q 76 -149 72 -175 q 83 -108 81 -122 q 95 -60 88 -87 q 114 -3 103 -32 q 140 53 125 26 q 176 99 156 81 q 206 109 189 110 q 235 96 224 108 q 245 66 246 83 q 231 38 244 49 q 194 -22 213 21 q 165 -119 176 -64 q 152 -219 153 -181 q 156 -267 151 -257 q 166 -276 158 -274 q 182 -279 174 -279 q 233 -242 215 -276 q 258 -222 242 -226 q 289 -226 274 -218 z "},"#":{"ha":924,"x_min":65,"x_max":858,"o":"m 829 442 q 851 419 844 435 q 851 388 858 403 q 828 366 844 372 q 797 367 813 360 q 776 370 796 367 q 693 372 757 374 q 674 372 683 372 q 654 371 665 371 l 626 242 q 610 170 617 203 q 599 111 603 138 q 592 66 593 79 q 592 50 592 53 q 598 22 600 36 q 585 -3 596 7 q 557 -14 571 -14 q 526 1 539 -14 q 512 33 515 14 q 511 81 508 51 q 523 154 514 111 q 546 260 532 197 l 569 365 l 493 357 q 429 350 461 354 q 367 342 397 346 q 358 253 363 296 q 347 172 353 210 q 335 100 340 128 q 326 56 331 72 q 319 33 322 40 q 314 24 315 26 q 297 6 307 11 q 281 -1 288 0 l 272 -1 q 247 7 258 -1 q 232 31 235 15 q 233 51 229 42 q 243 68 236 61 q 261 156 250 88 q 283 329 272 224 q 124 293 176 310 q 111 290 115 290 q 72 318 82 290 q 74 349 65 335 q 97 371 82 364 q 182 393 132 382 q 290 413 232 404 q 292 432 290 426 l 296 499 q 257 485 274 492 q 231 475 240 479 q 214 472 225 472 q 176 496 188 472 q 176 527 169 511 q 197 550 182 543 q 240 566 213 557 q 300 585 267 575 q 300 750 303 681 q 288 847 297 819 q 290 879 282 864 q 314 900 297 894 q 344 897 329 906 q 365 874 360 889 q 376 824 372 853 q 381 759 379 794 q 383 685 383 724 q 382 607 383 646 q 431 619 406 614 q 481 629 456 624 q 550 642 517 636 q 611 650 583 647 q 588 863 619 783 q 587 894 581 878 q 608 917 593 910 q 640 917 625 924 q 663 894 656 910 q 690 783 683 843 q 694 656 697 722 q 761 632 742 651 q 772 603 772 621 q 761 574 772 586 q 734 562 750 563 q 706 571 718 561 q 688 572 703 572 q 681 513 685 543 q 671 454 676 483 l 692 454 q 789 451 760 456 q 829 442 818 447 m 586 449 q 597 508 592 478 q 604 567 601 538 q 549 558 581 564 q 481 544 518 553 q 428 533 454 539 q 379 521 403 528 q 376 469 378 493 q 374 426 375 446 q 431 433 403 429 q 485 439 458 436 q 537 444 511 442 q 586 449 563 446 z "},"@":{"ha":842,"x_min":69,"x_max":772,"o":"m 731 182 q 760 169 747 182 q 772 140 772 157 q 769 129 772 135 q 676 -4 744 42 q 519 -50 608 -50 q 380 -22 447 -50 q 258 53 313 6 q 170 156 206 99 q 112 276 135 213 q 79 408 89 340 q 69 543 69 476 q 97 705 69 635 q 176 822 125 775 q 300 894 228 869 q 463 918 372 918 q 558 905 511 918 q 642 865 606 892 q 702 799 679 839 q 725 704 725 758 q 712 628 725 672 q 676 544 699 583 q 621 476 653 504 q 550 449 589 449 l 540 449 q 521 376 535 415 q 485 303 507 338 q 431 245 463 268 q 360 222 400 222 q 301 248 324 222 q 267 310 279 274 q 252 386 256 347 q 249 451 249 425 q 253 515 249 481 q 271 580 258 550 q 307 629 283 610 q 368 649 331 649 q 461 624 419 649 q 479 645 468 639 q 506 651 490 651 q 531 637 522 651 q 544 603 540 622 q 547 564 547 583 q 547 533 547 544 q 549 532 547 532 l 550 531 q 585 556 568 535 q 615 605 603 578 q 635 659 628 632 q 643 704 643 686 q 626 765 643 740 q 583 806 610 790 q 525 829 557 822 q 463 836 493 836 q 233 764 315 836 q 151 543 151 692 q 172 372 151 460 q 235 209 192 283 q 346 85 278 135 q 511 32 414 36 l 519 32 q 594 44 565 32 q 641 73 622 56 q 671 110 660 90 q 690 147 682 131 q 707 172 699 163 q 731 182 715 182 m 361 304 q 406 332 388 306 q 438 392 425 358 q 456 459 450 425 q 464 513 463 493 q 422 551 447 536 q 368 567 397 567 q 348 551 356 567 q 337 515 340 535 q 332 475 333 494 q 331 446 331 456 q 332 413 331 433 q 337 372 333 393 q 347 333 340 351 q 361 304 353 314 z "},"!":{"ha":292,"x_min":100,"x_max":218,"o":"m 124 347 q 113 381 117 360 q 110 437 110 403 q 113 519 110 471 q 121 636 115 568 q 129 756 125 693 q 135 875 133 818 q 133 981 136 932 q 121 1060 131 1029 q 123 1092 115 1076 q 147 1111 131 1107 q 178 1109 163 1117 q 199 1085 193 1101 q 214 997 210 1049 q 217 884 218 944 q 211 758 215 824 q 203 631 207 693 q 197 543 200 585 q 193 467 194 501 q 192 405 190 421 q 196 386 194 389 q 199 355 204 371 q 179 331 194 339 q 160 326 171 326 q 139 331 149 326 q 124 347 129 336 m 133 106 q 158 101 144 106 q 183 86 171 96 q 203 63 194 76 q 211 32 211 50 q 195 -1 211 4 q 164 -6 179 -6 q 118 9 136 -6 q 100 63 100 24 q 109 94 100 82 q 133 106 118 106 z "},"?":{"ha":613,"x_min":67,"x_max":550,"o":"m 522 1063 q 542 972 550 1024 q 507 886 536 933 q 448 804 483 846 q 376 721 413 763 q 319 653 346 686 q 272 593 292 621 q 245 542 247 557 q 243 524 243 526 q 253 508 246 513 q 276 501 260 503 q 319 506 296 501 q 364 518 342 511 q 420 530 396 526 q 464 518 444 533 q 483 474 486 501 q 469 444 482 456 q 439 435 456 433 q 414 446 425 436 l 386 439 q 335 426 363 432 q 281 419 308 419 l 274 419 q 165 499 189 422 q 165 560 156 528 q 195 626 174 592 q 248 697 217 660 q 314 775 279 735 q 369 840 339 804 q 422 908 399 875 q 456 969 444 942 q 456 1013 467 997 q 358 1040 426 1056 q 293 1017 326 1033 q 229 974 260 1000 q 178 917 199 947 q 150 860 157 888 q 131 835 146 843 q 100 831 117 826 q 75 849 83 835 q 71 881 67 864 q 108 960 82 921 q 175 1036 135 1000 q 343 1122 254 1106 q 446 1118 400 1133 q 522 1063 492 1103 m 300 106 q 324 101 311 106 q 349 86 338 96 q 369 63 361 76 q 378 32 378 50 q 362 -1 378 4 q 331 -6 346 -6 q 285 9 303 -6 q 267 63 267 24 q 276 94 267 82 q 300 106 285 106 z "},"$":{"ha":592,"x_min":65,"x_max":529,"o":"m 522 382 q 410 60 529 139 q 322 29 369 33 q 326 -33 324 -15 q 329 -53 328 -50 q 336 -83 339 -67 q 319 -108 333 -99 q 294 -117 308 -117 q 263 -100 275 -117 q 254 -87 258 -94 q 247 -65 250 -79 q 242 -27 244 -50 q 239 32 240 -4 q 128 69 186 43 q 106 92 113 76 q 107 124 100 108 q 130 145 114 139 q 161 144 146 151 q 239 117 199 126 q 249 373 242 246 q 268 629 257 500 q 233 645 250 638 q 199 660 215 653 q 121 698 154 679 q 75 749 88 717 q 74 806 65 774 q 125 861 82 838 q 201 885 156 878 q 293 885 247 893 q 301 955 297 925 q 308 1004 306 985 q 325 1031 311 1021 q 356 1038 339 1040 q 382 1021 372 1035 q 389 990 392 1007 q 382 935 386 971 q 372 854 378 900 q 404 824 390 842 q 413 793 415 810 q 397 765 411 776 q 363 758 383 754 l 354 675 q 522 382 517 574 m 364 129 q 439 379 446 183 q 412 500 438 453 q 347 579 386 547 q 331 346 338 461 q 321 113 324 231 q 344 119 333 115 q 364 129 354 122 m 276 717 q 281 761 279 740 q 283 803 282 782 q 251 806 268 806 q 215 804 233 807 q 169 791 185 800 q 151 778 154 782 q 156 774 153 778 q 172 763 160 769 q 199 749 183 756 q 232 736 214 743 l 276 717 z "},"":{"ha":711,"x_min":67,"x_max":653,"o":"m 638 138 q 618 46 653 89 q 556 3 594 18 q 472 -12 518 -12 q 365 9 413 -12 q 284 67 318 31 q 229 153 250 104 q 200 258 208 203 q 160 248 171 254 q 146 238 149 242 q 111 219 133 219 q 88 226 97 219 q 70 253 74 236 q 78 283 67 269 q 126 324 96 311 q 194 342 157 336 q 197 398 193 368 q 208 460 201 428 q 139 432 164 456 q 111 421 125 421 q 81 435 94 421 q 70 465 69 447 q 83 493 71 482 q 153 533 115 524 q 232 544 192 543 q 256 609 240 571 q 293 689 272 647 q 339 773 314 731 q 390 849 364 815 q 444 903 417 882 q 497 924 471 924 q 558 910 531 924 q 601 871 586 896 q 622 805 617 847 q 597 696 628 763 q 574 674 590 681 q 543 675 558 668 q 522 698 528 682 q 522 729 515 714 q 539 797 539 768 q 530 829 539 815 q 501 842 521 843 q 474 823 490 840 q 439 778 457 806 q 402 717 421 750 q 367 651 383 683 q 337 590 350 618 q 318 544 324 561 q 378 549 354 544 q 414 572 403 554 q 441 590 425 586 q 472 583 457 593 q 490 557 486 574 q 483 526 493 540 q 444 488 467 501 q 397 469 422 475 q 345 463 372 463 q 293 463 318 463 q 276 344 276 397 q 295 344 286 344 q 314 343 304 343 q 362 343 336 343 q 396 346 388 343 q 426 351 410 354 q 451 333 442 347 q 458 301 461 318 q 439 276 454 285 q 388 261 419 263 q 311 261 356 260 l 283 261 q 342 127 299 176 q 453 71 385 78 q 517 76 490 67 q 554 99 543 85 q 558 113 560 107 q 561 144 553 129 q 586 164 569 160 q 617 161 603 169 q 638 138 632 153 z "},"":{"ha":728,"x_min":68,"x_max":660,"o":"m 624 178 q 650 161 640 175 q 657 131 660 147 q 648 85 654 111 q 630 35 642 58 q 601 -3 618 13 q 560 -19 585 -19 q 536 -15 549 -19 q 508 6 524 -10 q 486 10 506 10 q 453 6 471 8 q 417 -1 436 3 q 367 -11 392 -7 q 317 -15 342 -15 q 269 -8 292 -15 q 229 17 247 -1 q 194 124 204 42 q 190 197 192 156 q 188 286 188 238 q 188 343 188 314 q 190 401 189 372 q 138 374 160 392 q 111 364 126 364 q 79 378 92 364 q 69 408 68 392 q 85 436 71 425 q 135 468 107 456 q 194 489 163 481 q 211 664 201 576 q 244 835 221 751 q 301 933 267 917 q 397 939 340 956 q 506 860 454 919 q 592 718 558 801 q 592 687 599 703 q 569 664 585 671 q 538 664 554 657 q 515 688 522 671 q 444 806 485 763 q 369 861 403 850 q 343 863 351 865 q 318 795 329 843 q 299 692 307 747 q 285 584 290 636 q 279 507 281 532 q 348 515 315 513 q 406 519 381 517 l 425 519 q 456 510 443 522 q 469 482 468 499 q 460 452 471 465 q 431 438 449 439 q 422 438 426 438 q 410 436 417 438 q 349 432 385 435 q 274 422 313 429 q 269 310 271 364 q 271 210 268 256 q 275 146 272 171 q 281 106 278 121 q 285 83 283 90 q 289 74 288 75 q 335 67 303 63 q 400 79 368 72 q 484 93 443 89 q 557 74 525 97 q 568 105 563 86 q 576 143 574 124 q 593 170 579 160 q 624 178 607 181 z "},"%":{"ha":846,"x_min":67,"x_max":778,"o":"m 347 515 q 299 474 328 490 q 231 450 269 457 q 216 448 224 449 q 201 447 208 447 q 133 466 157 447 q 97 500 108 485 q 73 560 79 526 q 70 628 67 593 q 85 699 74 664 q 113 761 96 733 q 235 838 164 844 q 268 813 258 835 q 339 751 307 796 q 368 691 358 724 q 381 626 378 658 q 347 515 383 561 m 583 815 q 565 785 578 808 q 528 703 551 761 q 488 596 508 657 q 444 460 468 535 q 405 326 424 393 q 370 199 386 258 q 342 92 354 140 q 324 17 331 44 q 310 -6 321 3 q 283 -14 299 -14 l 274 -14 q 249 5 258 -10 q 244 36 240 19 q 264 115 251 65 q 292 224 276 164 q 328 353 308 285 q 368 492 347 422 q 454 743 415 646 q 485 811 471 785 q 510 853 499 838 q 530 878 521 869 q 547 890 539 886 q 593 896 571 904 q 617 875 608 890 q 618 843 625 860 q 583 815 611 818 m 742 500 q 763 442 754 474 q 775 377 772 410 q 772 315 778 344 q 751 264 767 286 q 676 224 724 224 q 665 225 669 224 q 565 282 606 232 q 521 383 532 322 q 528 488 513 439 q 568 550 542 526 l 568 558 q 581 588 568 576 q 610 599 593 600 q 684 572 650 597 q 742 500 718 547 m 218 532 q 297 624 301 544 q 273 702 296 668 q 226 739 250 736 q 207 747 215 742 q 183 718 193 736 q 163 673 171 697 q 153 625 156 649 q 153 581 150 601 q 165 547 157 560 q 178 534 168 542 q 218 532 189 526 m 683 310 q 693 374 696 328 q 668 463 690 419 q 658 480 664 469 q 640 500 651 490 l 633 494 q 604 455 611 485 q 603 396 597 425 q 626 337 608 364 q 674 306 644 310 q 683 310 681 306 z "},"&":{"ha":561,"x_min":28,"x_max":507,"o":"m 365 492 q 319 442 344 469 q 265 382 293 414 q 290 321 275 350 q 328 264 304 292 q 383 368 367 326 q 400 421 400 410 q 410 450 399 438 q 439 464 421 463 q 468 454 456 465 q 482 425 481 443 q 472 369 483 401 q 444 303 460 336 q 411 244 428 271 q 388 206 394 217 q 446 160 414 182 q 464 134 461 150 q 457 103 467 118 q 431 85 447 89 q 400 93 414 82 q 369 115 383 104 q 340 138 354 126 q 267 56 308 96 q 185 3 226 17 q 149 -3 168 -3 q 67 44 96 -3 q 49 183 28 101 q 114 321 65 246 q 175 403 142 361 l 167 463 q 165 590 160 522 q 188 715 171 657 q 344 906 233 876 q 469 860 428 925 q 485 697 507 799 q 453 608 475 651 q 404 533 432 565 l 365 492 m 306 549 q 326 570 317 560 q 343 589 336 581 q 382 649 367 615 q 403 715 397 682 q 408 774 410 747 q 399 817 407 801 q 393 824 396 819 q 381 828 390 828 q 365 825 376 828 q 306 781 331 817 q 267 695 282 744 q 248 590 253 646 q 247 486 243 535 q 278 519 263 504 q 306 549 293 535 m 281 194 q 250 231 264 213 q 225 268 236 249 q 215 287 219 278 q 206 307 210 296 l 183 275 q 155 228 168 253 q 133 178 142 203 q 124 130 125 153 q 135 89 124 107 q 144 80 140 82 q 157 81 149 78 q 213 118 181 88 q 281 194 244 149 z "},"(":{"ha":339,"x_min":60,"x_max":331,"o":"m 296 50 q 322 32 313 46 q 328 1 331 18 q 313 -23 325 -14 q 288 -32 301 -32 q 279 -31 282 -32 q 113 115 169 -10 q 76 238 88 171 q 63 370 65 304 q 63 497 60 436 q 72 601 67 557 q 92 728 81 665 q 119 847 104 792 q 152 950 135 903 q 189 1031 169 997 q 213 1050 197 1046 q 244 1046 229 1054 q 264 1020 260 1036 q 260 989 268 1004 q 227 917 243 960 q 197 822 211 874 q 172 710 183 769 q 154 592 161 651 q 147 337 138 453 q 188 149 156 221 q 296 50 226 64 z "},")":{"ha":415,"x_min":4,"x_max":372,"o":"m 349 624 q 343 308 372 467 q 238 15 314 150 q 201 -6 225 -6 q 181 0 190 -6 q 161 24 165 8 q 165 56 157 40 q 241 235 214 140 q 274 424 268 329 q 268 609 281 518 q 224 778 256 700 q 142 920 192 857 q 28 1022 93 983 q 8 1048 13 1032 q 13 1079 4 1064 q 38 1099 21 1094 q 69 1093 54 1103 q 257 897 185 1025 q 315 769 292 839 q 349 624 338 699 z "},"[":{"ha":611,"x_min":61,"x_max":597,"o":"m 556 936 q 527 948 539 936 q 515 976 515 960 q 511 990 515 983 q 482 997 507 996 q 417 990 454 1000 q 346 963 381 981 q 292 926 308 943 q 275 901 276 908 q 261 825 272 875 q 235 708 250 775 q 202 570 219 646 q 171 422 185 494 q 150 285 157 349 q 147 182 143 221 q 151 151 149 171 q 159 111 154 132 q 171 73 164 90 q 189 49 178 56 q 263 51 207 38 q 407 100 351 78 q 462 128 449 118 q 476 140 475 139 q 497 165 482 157 q 526 168 511 172 q 551 149 543 164 q 556 117 560 133 q 540 88 551 104 q 499 54 528 72 q 419 15 469 36 q 285 -28 368 -6 q 249 -37 267 -33 q 211 -40 231 -40 q 143 -21 172 -40 q 91 53 107 4 q 67 172 75 103 q 68 283 61 217 q 89 426 75 350 q 120 580 103 501 q 154 728 138 658 q 180 839 169 790 q 193 910 190 888 q 208 952 194 932 q 238 988 221 972 q 274 1016 256 1004 q 308 1036 293 1028 q 399 1071 353 1060 q 486 1079 446 1082 q 561 1054 532 1076 q 585 1026 574 1044 q 597 976 597 1008 q 585 948 597 960 q 556 936 574 936 z "},"]":{"ha":549,"x_min":1,"x_max":475,"o":"m 460 1064 q 473 983 471 1036 q 467 839 475 931 q 449 680 460 764 q 428 511 439 596 q 412 384 419 444 q 399 274 404 324 q 392 181 392 206 q 394 151 393 157 q 401 118 406 132 q 393 97 397 104 q 361 74 382 79 q 317 69 340 69 l 304 69 q 255 74 281 71 q 201 79 229 76 q 169 83 186 81 q 133 86 151 85 q 100 88 115 88 q 76 88 85 89 q 38 75 60 71 q 11 92 21 78 q 6 124 1 107 q 15 145 7 131 q 51 167 24 160 q 100 171 69 171 q 153 167 124 171 q 211 161 182 164 q 262 156 233 158 q 311 151 290 153 q 310 198 310 169 q 315 271 311 226 q 329 388 321 324 q 347 522 338 451 q 368 690 358 606 q 385 846 378 774 q 390 932 389 897 q 391 988 392 967 q 388 1018 390 1008 q 385 1032 386 1028 q 372 1049 379 1043 q 353 1057 365 1054 q 300 1053 329 1061 q 242 1031 271 1044 q 189 1000 213 1017 q 153 971 165 983 q 124 958 142 958 q 94 968 107 957 q 81 997 82 979 q 92 1026 81 1014 q 140 1066 108 1044 q 209 1106 171 1088 q 288 1133 247 1124 q 367 1138 329 1143 q 460 1064 433 1126 z "},"{":{"ha":432,"x_min":42,"x_max":426,"o":"m 424 1078 q 417 1046 426 1060 q 392 1028 408 1032 q 301 981 347 1018 q 221 889 256 944 q 183 806 194 847 q 179 735 172 764 q 193 699 185 713 q 212 675 201 685 q 233 660 222 665 q 256 650 244 654 q 285 635 271 644 q 307 607 300 626 q 305 573 314 588 q 290 551 296 558 l 263 521 q 219 474 243 501 q 175 415 194 447 q 145 345 156 383 q 143 264 135 307 q 176 163 156 201 q 222 114 196 125 q 303 129 254 100 q 334 135 318 139 q 360 117 350 132 q 366 85 369 101 q 347 60 363 69 q 292 33 318 40 q 244 26 267 26 q 215 30 228 26 q 190 38 201 33 q 63 249 96 78 q 101 453 42 353 q 154 526 125 493 q 204 579 183 558 l 207 582 q 178 597 193 588 q 148 623 163 607 q 121 661 133 639 q 100 715 108 683 q 102 818 89 761 q 151 933 115 875 q 253 1049 194 1003 q 374 1108 311 1094 q 405 1103 390 1113 q 424 1078 419 1094 z "},"}":{"ha":407,"x_min":11,"x_max":350,"o":"m 343 396 q 349 293 350 343 q 339 200 349 243 q 268 58 319 104 q 169 21 226 21 q 124 28 149 21 q 98 47 107 32 q 93 78 89 61 q 113 103 97 94 q 143 107 128 111 q 213 119 186 97 q 260 222 247 150 q 261 385 272 293 q 247 452 256 426 q 228 492 238 478 q 209 513 218 507 q 194 522 200 519 q 138 534 171 533 q 65 531 106 535 q 25 546 40 526 q 17 565 21 553 q 21 594 14 576 l 29 610 l 56 653 q 99 722 74 681 q 147 807 124 763 q 185 894 169 851 q 200 969 200 938 q 194 1008 199 997 q 186 1021 189 1018 q 160 1028 179 1028 q 122 1026 142 1028 q 88 1023 106 1024 q 50 1025 69 1022 q 22 1041 33 1028 q 14 1071 11 1054 q 30 1099 17 1088 q 60 1107 43 1110 q 87 1106 72 1106 q 115 1108 101 1107 q 181 1108 147 1111 q 242 1082 214 1106 q 282 971 281 1049 q 270 890 283 933 q 235 801 257 847 q 186 709 214 756 q 131 617 158 663 q 198 608 164 617 q 261 576 232 600 q 313 508 290 551 q 343 396 335 465 z "},"":{"ha":889,"x_min":69,"x_max":801,"o":"m 400 1072 q 578 1025 503 1072 q 703 900 654 978 q 777 723 753 822 q 801 519 801 624 q 777 310 801 413 q 705 128 753 208 q 587 -3 657 47 q 425 -53 517 -53 q 260 -18 328 -53 q 149 76 192 17 q 88 214 107 135 q 69 383 69 293 q 76 501 69 432 q 99 647 83 571 q 140 799 115 724 q 202 936 165 875 q 288 1035 239 997 q 400 1072 338 1072 m 425 31 q 551 73 496 31 q 643 185 606 115 q 700 342 681 254 q 719 522 719 431 q 701 695 719 611 q 642 844 682 779 q 543 949 603 910 q 400 989 483 989 q 319 953 356 989 q 256 863 283 918 q 208 738 228 807 q 176 602 189 669 q 158 476 164 535 q 151 383 151 418 q 164 247 151 311 q 208 134 176 182 q 292 58 239 86 q 425 31 344 31 m 479 426 q 511 432 494 436 q 536 413 528 428 q 542 381 546 397 q 522 357 538 365 q 508 348 519 354 q 478 335 496 342 q 439 322 461 328 q 394 317 417 317 q 361 321 378 317 q 329 335 344 325 q 276 526 258 383 q 322 672 289 621 q 365 718 343 704 q 404 735 388 732 q 463 730 435 742 q 506 693 490 718 q 516 653 517 674 q 501 615 515 632 q 474 601 490 603 q 444 610 457 599 q 431 653 424 626 q 421 654 428 654 q 387 618 406 650 q 358 515 368 586 q 356 442 351 471 q 374 404 361 413 q 395 399 382 399 q 424 404 408 400 q 453 414 439 408 q 479 426 468 419 z "},"":{"ha":835,"x_min":111,"x_max":807,"o":"m 464 1121 q 590 1101 528 1121 q 700 1037 651 1081 q 778 924 749 993 q 807 758 807 856 q 782 589 807 667 q 708 454 757 511 q 585 365 658 397 q 417 333 513 333 q 282 358 339 333 q 187 426 225 382 q 130 532 149 471 q 111 667 111 593 q 126 811 111 732 q 181 959 142 890 q 289 1074 221 1028 q 464 1121 357 1121 m 417 415 q 553 442 496 415 q 649 514 611 468 q 706 622 688 560 q 724 758 724 685 q 701 892 724 838 q 641 978 678 946 q 558 1025 604 1011 q 464 1039 511 1039 q 328 1002 381 1039 q 245 910 275 965 q 204 790 215 856 q 193 667 193 725 q 245 484 193 553 q 417 415 297 415 m 625 685 q 651 667 642 682 q 657 636 660 653 q 622 586 650 601 q 555 582 592 571 q 478 611 518 593 q 443 626 463 618 q 415 635 424 633 q 403 636 407 635 q 402 576 403 604 q 400 528 401 549 q 387 501 399 513 q 360 489 375 489 l 357 489 q 328 503 339 490 q 318 533 317 515 q 319 592 319 557 q 321 664 319 626 q 322 785 321 739 q 328 851 324 832 q 351 894 333 875 q 389 928 369 914 q 437 956 413 944 q 482 971 461 967 q 516 971 501 974 q 541 962 531 968 q 557 949 551 956 q 565 936 563 942 q 566 850 585 904 q 482 699 547 796 l 511 686 q 547 671 526 679 q 579 660 567 663 q 597 681 585 674 q 625 685 610 688 m 460 817 q 482 863 475 846 q 492 889 489 879 q 474 882 485 886 q 451 869 464 878 q 422 847 432 858 q 408 832 411 836 q 405 792 406 821 q 403 729 404 764 q 429 769 414 746 q 460 817 444 793 z "},"":{"ha":632,"x_min":40,"x_max":581,"o":"m 578 393 q 570 363 581 376 q 543 347 560 350 q 527 346 538 347 q 503 342 517 344 q 393 325 449 333 q 286 310 338 317 q 190 300 235 304 q 111 296 144 296 q 94 296 101 296 q 79 297 86 296 q 51 313 63 300 q 42 342 40 325 q 57 371 44 360 q 86 379 69 382 q 170 381 115 376 q 285 393 225 386 q 401 408 344 400 q 490 422 457 417 q 515 426 506 425 q 532 429 525 428 q 562 422 549 432 q 578 393 575 411 z "},"/":{"ha":411,"x_min":17,"x_max":404,"o":"m 371 1083 q 395 1063 386 1078 q 400 1032 404 1049 q 365 922 390 999 q 306 740 340 844 q 234 521 271 635 q 165 306 197 407 q 132 192 144 238 q 112 117 119 146 q 101 72 104 88 q 99 50 99 57 q 103 21 107 38 q 89 -2 100 7 q 63 -11 78 -11 q 54 -10 57 -11 q 24 13 35 -6 q 18 28 19 19 q 17 49 17 36 q 20 81 17 63 q 31 129 24 100 q 50 207 38 163 q 81 310 63 251 q 152 533 113 414 q 228 765 192 653 q 286 943 260 865 q 319 1053 313 1021 q 340 1078 325 1069 q 371 1083 354 1088 z "},"~":{"ha":890,"x_min":69,"x_max":821,"o":"m 781 785 q 815 763 808 785 q 821 721 821 742 q 801 616 821 669 q 746 519 781 563 q 665 447 711 475 q 568 418 619 418 q 516 426 540 418 q 471 449 492 435 q 433 480 450 463 q 399 515 415 497 q 347 571 371 547 q 299 594 322 594 q 247 571 274 594 q 196 519 221 547 q 149 467 171 490 q 111 443 126 443 q 81 455 93 443 q 69 483 69 467 q 79 510 69 500 q 128 566 100 536 q 188 621 156 596 q 253 662 219 646 q 319 678 288 678 q 391 651 361 678 q 449 592 421 624 q 504 530 476 558 q 572 501 532 501 q 635 523 606 501 q 688 578 665 544 q 725 650 711 611 q 739 722 739 689 q 744 765 739 746 q 781 785 749 785 z "},"\"":{"ha":404,"x_min":63,"x_max":336,"o":"m 300 1060 q 326 1043 317 1057 q 333 1013 336 1029 q 320 928 326 976 q 308 832 314 879 q 299 747 303 785 q 297 693 296 708 q 301 665 306 678 q 288 641 299 650 q 261 632 276 632 l 254 632 q 231 644 244 635 q 215 681 218 653 l 215 717 l 224 818 q 238 933 231 875 q 253 1026 246 990 q 269 1053 256 1043 q 300 1060 283 1063 m 154 960 q 157 840 156 897 q 158 739 158 783 q 158 698 158 715 q 157 668 158 681 q 152 633 156 649 q 135 607 149 618 q 111 600 124 600 q 78 617 88 600 q 74 660 63 636 q 76 701 75 671 q 76 773 76 732 q 74 862 75 814 q 71 957 72 910 l 71 975 q 83 1005 71 993 q 111 1018 94 1017 q 140 1006 128 1018 q 153 978 153 994 l 154 960 z "},",":{"ha":265,"x_min":39,"x_max":201,"o":"m 139 113 q 176 73 163 99 q 196 15 190 47 q 200 -51 201 -17 q 192 -118 199 -86 q 150 -212 178 -178 q 86 -250 122 -247 l 82 -250 q 55 -240 67 -250 q 40 -214 43 -229 q 49 -183 39 -196 q 78 -168 60 -171 q 93 -150 82 -168 q 114 -86 107 -125 q 115 0 124 -35 q 96 42 107 35 q 77 67 81 51 q 82 99 74 83 q 107 118 90 114 q 139 113 124 122 z "},"=":{"ha":665,"x_min":69,"x_max":597,"o":"m 121 539 q 85 560 99 539 q 81 592 76 575 q 101 617 86 608 q 185 640 128 632 q 333 658 242 649 q 376 663 354 660 q 419 668 399 665 q 456 674 440 671 q 479 679 472 676 q 506 687 492 688 q 532 675 521 686 q 544 645 544 663 q 532 617 544 628 q 513 603 525 608 q 480 594 501 599 q 425 586 458 590 q 342 576 392 582 q 284 570 315 574 q 224 563 253 567 q 173 554 196 558 q 142 544 150 550 q 121 539 128 539 m 586 531 q 596 501 597 518 q 581 474 594 485 q 558 460 572 467 q 519 445 544 453 q 452 431 493 438 q 350 419 411 425 q 278 415 314 417 q 211 411 243 413 q 153 409 179 410 q 111 408 128 408 q 81 420 93 408 q 69 450 69 432 q 81 478 69 467 q 111 490 93 490 q 208 492 143 490 q 343 501 272 494 q 437 513 401 507 q 492 524 472 518 q 519 533 513 529 q 528 536 526 536 q 558 546 542 547 q 586 531 575 544 z "},">":{"ha":506,"x_min":67,"x_max":436,"o":"m 436 517 q 428 485 436 501 q 400 449 419 469 q 347 404 381 429 q 267 344 314 379 q 233 321 250 333 q 211 303 217 308 q 178 286 199 286 q 157 292 167 286 q 138 317 142 300 q 142 349 133 333 q 163 371 147 358 q 218 411 178 383 q 263 444 240 426 q 307 478 286 461 q 344 511 335 500 q 329 519 338 514 q 306 531 321 524 q 256 551 282 542 q 204 572 231 561 q 139 599 168 586 q 90 622 110 611 q 71 647 75 631 q 75 678 67 663 q 99 697 83 693 q 131 693 115 701 q 174 673 146 685 q 235 649 203 661 q 383 583 333 610 q 436 517 433 556 z "},"+":{"ha":582,"x_min":67,"x_max":515,"o":"m 490 632 q 510 608 506 624 q 507 576 515 592 q 446 528 492 544 q 326 496 400 511 q 335 357 332 432 l 338 322 q 326 293 338 306 q 299 279 315 281 l 296 279 q 267 290 279 279 q 254 318 256 301 q 254 335 254 326 q 253 354 254 343 q 249 415 251 382 q 244 481 247 447 q 176 467 211 474 q 132 454 142 461 q 111 449 118 449 q 75 469 88 449 q 70 501 67 485 q 89 525 74 517 q 142 544 108 536 q 233 563 176 551 q 217 617 225 601 q 206 636 208 632 q 193 665 193 647 q 206 694 193 682 q 234 706 217 706 q 264 694 251 706 q 294 645 282 675 q 314 578 307 615 q 342 583 329 581 q 368 589 356 586 q 419 607 407 600 q 435 615 432 614 q 459 635 443 631 q 490 632 475 639 z "},"*":{"ha":701,"x_min":67,"x_max":633,"o":"m 632 685 q 622 654 633 667 q 594 640 611 642 l 589 640 q 576 642 585 640 q 551 649 567 643 q 513 665 536 654 q 454 694 489 675 l 389 732 l 389 694 q 393 624 390 642 q 397 603 396 606 q 403 572 407 588 q 385 547 399 556 q 363 540 374 540 q 328 560 339 540 q 307 664 311 586 q 284 645 296 654 q 257 625 272 636 q 214 595 235 610 q 176 569 193 581 q 149 551 160 558 q 138 544 138 544 q 115 539 128 539 q 81 558 92 539 q 74 590 71 574 q 93 615 78 606 q 124 634 94 615 q 192 681 154 653 q 258 731 236 713 q 290 758 281 749 q 269 776 283 765 q 231 804 256 788 q 162 847 199 825 q 90 888 125 868 q 71 913 75 897 q 75 944 67 929 q 99 964 83 960 q 131 960 115 968 q 236 897 193 924 q 308 850 279 871 l 308 854 q 309 894 308 874 q 310 933 310 915 q 310 965 310 951 q 308 985 310 978 q 315 1015 306 1001 q 342 1032 325 1029 q 372 1025 358 1035 q 389 997 386 1015 q 392 946 392 981 q 390 853 392 911 l 390 849 q 448 911 414 872 q 513 989 482 950 q 540 1005 524 1003 q 571 996 557 1007 q 586 968 585 985 q 576 938 588 951 q 553 908 575 936 q 501 847 531 881 q 473 817 486 831 q 449 792 460 803 q 496 767 472 778 q 563 733 540 743 q 592 722 585 724 q 619 711 607 722 q 632 685 631 700 z "},"":{"ha":1108,"x_min":67,"x_max":1039,"o":"m 1035 1031 q 1039 901 1039 982 q 1038 835 1039 868 q 1036 778 1038 803 q 1034 737 1035 753 q 1033 719 1033 721 q 1019 690 1032 701 q 989 681 1007 679 q 960 694 972 682 q 950 724 949 707 q 951 737 950 724 q 953 772 953 750 q 956 822 954 794 q 957 881 957 850 q 956 990 958 951 q 950 1044 953 1028 q 901 993 929 1033 q 856 916 878 958 q 815 838 833 874 q 769 751 786 778 q 728 718 751 724 q 688 726 707 714 q 670 747 678 733 q 656 783 663 760 q 643 724 649 751 q 635 678 638 697 q 621 653 632 663 q 594 644 610 644 q 586 646 589 644 q 560 663 569 649 q 554 693 550 676 q 559 719 556 701 q 567 760 563 736 q 578 811 572 783 q 589 867 583 839 l 611 967 q 619 999 615 989 q 622 1006 621 1003 q 622 1011 622 1008 q 646 1038 631 1032 q 671 1040 661 1043 q 689 1032 678 1039 q 704 1004 700 1025 q 706 999 706 1001 q 707 992 706 996 l 711 958 q 717 910 714 938 q 724 856 719 882 l 726 844 l 740 874 q 783 958 760 913 q 833 1040 807 1003 q 896 1107 864 1083 q 983 1129 938 1138 l 986 1129 q 1023 1092 1014 1121 q 1035 1031 1032 1063 m 435 971 q 447 898 443 940 q 453 818 450 856 q 453 781 453 806 q 454 729 454 757 q 452 674 454 701 q 444 631 450 647 q 404 600 435 600 q 393 603 401 600 q 368 622 376 607 q 365 654 360 638 q 372 708 369 667 q 371 811 374 750 q 363 911 368 874 q 354 957 357 949 q 204 937 254 942 q 131 932 154 932 q 113 933 119 932 q 104 933 107 933 q 76 951 86 936 q 69 982 67 965 q 87 1008 72 999 q 118 1015 101 1018 q 183 1017 129 1013 q 342 1039 238 1022 q 416 1051 381 1044 q 481 1062 451 1057 q 529 1071 510 1067 q 556 1078 549 1075 q 587 1074 572 1083 q 607 1050 601 1065 q 603 1019 611 1033 q 579 999 594 1004 q 525 987 565 994 q 435 971 485 979 z "},"-":{"ha":456,"x_min":72,"x_max":386,"o":"m 382 422 q 377 391 386 406 q 351 372 368 376 q 268 360 328 367 q 142 353 208 353 q 128 353 135 353 q 114 354 121 353 q 84 367 96 354 q 74 396 72 379 q 87 424 75 413 q 117 436 99 436 q 182 436 149 435 q 245 440 215 438 q 298 447 275 443 q 332 453 321 450 q 363 448 349 457 q 382 422 378 439 z "},"":{"ha":578,"x_min":42,"x_max":526,"o":"m 524 393 q 516 363 526 376 q 489 347 506 350 q 473 346 483 347 q 449 342 463 344 q 259 311 339 324 q 113 299 179 299 q 95 299 103 299 q 81 300 88 299 q 53 315 64 303 q 43 344 42 328 q 58 374 46 363 q 88 382 71 385 q 163 383 117 379 q 258 394 208 388 q 356 409 308 401 q 436 422 403 417 q 461 426 451 425 q 478 429 471 428 q 508 422 494 432 q 524 393 521 411 z "},"^":{"ha":506,"x_min":56,"x_max":471,"o":"m 240 940 q 273 932 257 940 q 308 904 289 924 q 353 852 328 885 q 413 771 378 819 q 437 738 425 756 q 454 715 449 721 q 471 682 471 703 q 465 661 471 671 q 441 642 457 646 q 410 647 425 638 q 386 668 399 653 q 346 724 374 683 q 314 769 331 746 q 281 813 297 792 q 261 835 269 826 q 247 849 253 843 q 238 834 243 843 q 226 810 233 825 q 206 762 215 788 q 185 708 196 736 q 159 643 171 672 q 136 594 147 614 q 112 575 128 579 q 81 579 96 571 q 60 604 65 588 q 65 636 56 621 q 85 680 74 651 q 108 739 97 708 q 174 888 147 838 q 240 940 201 939 z "},".":{"ha":240,"x_min":72,"x_max":183,"o":"m 106 106 q 130 101 117 106 q 155 86 143 96 q 175 63 167 76 q 183 32 183 50 q 167 -1 183 4 q 136 -6 151 -6 q 90 9 108 -6 q 72 63 72 24 q 81 94 72 82 q 106 106 90 106 z "},"":{"ha":629,"x_min":69,"x_max":600,"o":"m 103 106 q 127 101 114 106 q 152 86 140 96 q 172 63 164 76 q 181 32 181 50 q 165 -1 181 4 q 133 -6 149 -6 q 88 9 106 -6 q 69 63 69 24 q 78 94 69 82 q 103 106 88 106 m 313 106 q 337 101 324 106 q 362 86 350 96 q 382 63 374 76 q 390 32 390 50 q 374 -1 390 4 q 343 -6 358 -6 q 297 9 315 -6 q 279 63 279 24 q 288 94 279 82 q 313 106 297 106 m 522 106 q 547 101 533 106 q 572 86 560 96 q 592 63 583 76 q 600 32 600 50 q 584 -1 600 4 q 553 -6 568 -6 q 507 9 525 -6 q 489 63 489 24 q 498 94 489 82 q 522 106 507 106 z "},":":{"ha":174,"x_min":36,"x_max":147,"o":"m 69 106 q 94 101 81 106 q 119 86 107 96 q 139 63 131 76 q 147 32 147 50 q 131 -1 147 4 q 100 -6 115 -6 q 54 9 72 -6 q 36 63 36 24 q 45 94 36 82 q 69 106 54 106 m 69 453 q 94 448 81 453 q 119 433 107 443 q 139 410 131 424 q 147 379 147 397 q 131 347 147 351 q 100 342 115 342 q 54 356 72 342 q 36 410 36 371 q 45 441 36 429 q 69 453 54 453 z "},";":{"ha":201,"x_min":18,"x_max":183,"o":"m 121 113 q 158 73 144 99 q 178 15 172 47 q 182 -51 183 -17 q 174 -118 181 -86 q 132 -212 160 -178 q 68 -250 104 -247 l 64 -250 q 37 -240 49 -250 q 22 -214 25 -229 q 31 -183 21 -196 q 60 -168 42 -171 q 75 -150 64 -168 q 96 -86 89 -125 q 97 0 106 -35 q 78 42 89 35 q 59 67 63 51 q 64 99 56 83 q 89 118 72 114 q 121 113 106 122 m 51 453 q 76 448 63 453 q 101 433 89 443 q 121 410 113 424 q 129 379 129 397 q 113 347 129 351 q 82 342 97 342 q 36 356 54 342 q 18 410 18 371 q 27 441 18 429 q 51 453 36 453 z "},"_":{"ha":456,"x_min":72,"x_max":386,"o":"m 382 -133 q 377 -165 386 -150 q 351 -183 368 -179 q 268 -196 328 -189 q 142 -203 208 -203 q 128 -203 135 -203 q 114 -201 121 -203 q 84 -189 96 -201 q 74 -160 72 -176 q 87 -131 75 -143 q 117 -119 99 -119 q 182 -119 149 -121 q 245 -115 215 -118 q 298 -109 275 -112 q 332 -103 321 -106 q 363 -108 349 -99 q 382 -133 378 -117 z "},"|":{"ha":247,"x_min":86,"x_max":181,"o":"m 138 -82 q 108 -70 121 -82 q 96 -42 96 -58 q 95 -26 96 -36 q 94 -1 94 -15 q 92 103 93 35 q 89 255 90 172 q 87 426 88 338 q 86 593 86 515 q 88 729 86 671 q 92 810 89 788 q 94 827 93 819 q 97 842 96 835 q 115 867 100 858 q 146 874 129 876 q 172 856 163 869 q 178 825 181 842 q 172 744 174 806 q 169 598 169 682 q 169 419 168 514 q 171 239 169 324 q 174 90 172 154 q 176 3 175 25 q 178 -23 178 -12 q 178 -39 178 -33 q 167 -69 179 -57 q 138 -82 156 -81 z "},"":{"ha":707,"x_min":63,"x_max":546,"o":"m 90 -349 q 71 -258 63 -310 q 106 -172 76 -219 q 165 -90 129 -132 q 236 -7 200 -49 q 294 60 267 28 q 340 121 321 93 q 367 172 365 157 q 369 190 369 188 q 360 206 367 201 q 336 213 353 211 q 294 208 317 213 q 249 196 271 203 q 192 184 217 188 q 147 196 167 181 q 129 240 128 214 q 143 269 131 258 q 174 279 156 281 q 199 268 188 278 l 226 275 q 277 288 250 282 q 332 294 304 294 l 339 294 q 447 215 424 292 q 448 154 457 186 q 417 88 439 122 q 365 17 396 54 q 299 -61 333 -21 q 242 -126 272 -90 q 190 -194 213 -161 q 156 -256 167 -228 q 157 -299 146 -283 q 254 -326 186 -342 q 319 -303 286 -319 q 383 -260 353 -286 q 434 -203 414 -233 q 463 -146 454 -174 q 481 -121 467 -129 q 513 -117 496 -112 q 538 -135 529 -121 q 542 -167 546 -150 q 504 -247 531 -207 q 438 -322 478 -286 q 269 -408 358 -392 q 167 -404 213 -419 q 90 -349 121 -389 m 313 608 q 288 613 301 608 q 263 627 275 618 q 243 650 251 636 q 235 682 235 664 q 251 715 235 710 q 282 719 267 719 q 328 705 310 719 q 346 651 346 690 q 337 620 346 632 q 313 608 328 608 z "},"":{"ha":356,"x_min":111,"x_max":229,"o":"m 206 364 q 217 328 214 350 q 219 273 219 307 q 217 190 219 239 q 208 74 214 142 q 200 -45 204 17 q 195 -165 196 -107 q 197 -271 194 -222 q 210 -350 200 -319 q 207 -381 215 -367 q 182 -401 199 -396 q 151 -399 167 -407 q 131 -375 136 -392 q 115 -287 119 -339 q 113 -174 111 -235 q 118 -49 114 -114 q 126 79 122 17 q 133 167 131 125 q 138 243 136 208 q 137 305 139 289 q 133 324 135 321 q 131 355 126 339 q 150 379 135 371 q 169 385 161 385 q 206 364 194 385 m 196 604 q 172 609 185 604 q 147 624 158 614 q 126 647 135 633 q 118 678 118 661 q 134 710 118 706 q 165 715 150 715 q 211 701 193 715 q 229 647 229 686 q 220 616 229 628 q 196 604 211 604 z "},"'":{"ha":206,"x_min":63,"x_max":158,"o":"m 154 960 q 157 840 156 897 q 158 739 158 783 q 158 698 158 715 q 157 668 158 681 q 152 633 156 649 q 135 607 149 618 q 111 600 124 600 q 78 617 88 600 q 74 660 63 636 q 76 701 75 671 q 76 773 76 732 q 74 862 75 814 q 71 957 72 910 l 71 975 q 83 1005 71 993 q 111 1018 94 1017 q 140 1006 128 1018 q 153 978 153 994 l 154 960 l 154 960 z "},"":{"ha":404,"x_min":68,"x_max":342,"o":"m 104 604 q 78 621 88 607 q 71 651 68 635 q 83 736 76 688 q 96 831 90 785 q 105 917 101 878 q 107 971 108 956 q 103 997 100 983 q 117 1022 106 1013 q 143 1032 128 1032 l 150 1032 q 173 1020 160 1029 q 189 983 186 1011 q 190 967 189 976 q 189 947 190 958 q 181 846 189 908 q 166 731 174 789 q 153 638 158 674 q 135 611 150 621 q 104 604 121 601 m 251 704 q 247 824 249 767 q 246 924 246 881 q 246 965 246 947 q 247 996 246 983 q 252 1031 249 1015 q 269 1056 256 1046 q 294 1064 279 1064 q 328 1047 315 1064 q 331 1004 342 1025 q 328 962 329 992 q 328 891 328 932 q 331 802 329 850 q 333 707 332 754 l 333 688 q 323 658 335 671 q 293 646 311 646 q 264 656 276 644 q 251 686 251 668 l 251 704 z "},"":{"ha":404,"x_min":63,"x_max":336,"o":"m 300 1060 q 326 1043 317 1057 q 333 1013 336 1029 q 320 928 326 976 q 308 832 314 879 q 299 747 303 785 q 297 693 296 708 q 301 665 306 678 q 288 641 299 650 q 261 632 276 632 l 254 632 q 231 644 244 635 q 215 681 218 653 l 215 717 l 224 818 q 238 933 231 875 q 253 1026 246 990 q 269 1053 256 1043 q 300 1060 283 1063 m 154 960 q 157 840 156 897 q 158 739 158 783 q 158 698 158 715 q 157 668 158 681 q 152 633 156 649 q 135 607 149 618 q 111 600 124 600 q 78 617 88 600 q 74 660 63 636 q 76 701 75 671 q 76 773 76 732 q 74 862 75 814 q 71 957 72 910 l 71 975 q 83 1005 71 993 q 111 1018 94 1017 q 140 1006 128 1018 q 153 978 153 994 l 154 960 z "},"":{"ha":206,"x_min":63,"x_max":158,"o":"m 154 960 q 157 840 156 897 q 158 739 158 783 q 158 698 158 715 q 157 668 158 681 q 152 633 156 649 q 135 607 149 618 q 111 600 124 600 q 78 617 88 600 q 74 660 63 636 q 76 701 75 671 q 76 773 76 732 q 74 862 75 814 q 71 957 72 910 l 71 975 q 83 1005 71 993 q 111 1018 94 1017 q 140 1006 128 1018 q 153 978 153 994 l 154 960 l 154 960 z "},"":{"ha":206,"x_min":63,"x_max":158,"o":"m 154 960 q 157 840 156 897 q 158 739 158 783 q 158 698 158 715 q 157 668 158 681 q 152 633 156 649 q 135 607 149 618 q 111 600 124 600 q 78 617 88 600 q 74 660 63 636 q 76 701 75 671 q 76 773 76 732 q 74 862 75 814 q 71 957 72 910 l 71 975 q 83 1005 71 993 q 111 1018 94 1017 q 140 1006 128 1018 q 153 978 153 994 l 154 960 l 154 960 z "},"":{"ha":317,"x_min":63,"x_max":158,"o":"m 154 140 q 157 21 156 78 q 158 -81 158 -36 q 158 -122 158 -104 q 157 -151 158 -139 q 152 -186 156 -171 q 135 -212 149 -201 q 111 -219 124 -219 q 78 -203 88 -219 q 74 -160 63 -183 q 76 -118 75 -149 q 76 -47 76 -87 q 74 42 75 -6 q 71 138 72 90 l 71 156 q 83 185 71 174 q 111 199 94 197 q 140 187 128 199 q 153 158 153 175 l 154 140 l 154 140 z "},"<":{"ha":447,"x_min":32,"x_max":401,"o":"m 32 474 q 40 506 32 490 q 67 542 47 522 q 120 586 88 561 q 201 646 153 611 q 234 669 217 657 q 257 688 251 682 q 290 704 269 704 q 311 699 301 704 q 331 674 326 690 q 325 643 335 658 q 304 619 319 632 q 249 579 289 607 q 204 547 228 564 q 161 513 181 529 q 138 494 146 501 q 124 481 129 486 q 163 460 135 472 q 210 439 185 449 q 264 418 236 429 q 329 392 300 404 q 378 369 358 381 q 397 344 393 361 q 393 313 401 328 q 368 293 385 297 q 336 297 351 289 q 292 318 321 307 q 233 342 264 329 q 84 408 135 381 q 32 474 33 435 z "},"\\":{"ha":528,"x_min":14,"x_max":401,"o":"m 47 1083 q 78 1078 64 1088 q 97 1053 93 1069 q 131 943 106 1021 q 190 765 157 865 q 266 533 226 653 q 338 310 306 414 q 367 207 356 251 q 388 129 379 163 q 398 81 394 100 q 401 49 401 63 q 400 28 401 36 q 394 13 399 19 q 364 -10 383 -6 q 356 -11 361 -11 q 329 -2 340 -11 q 315 21 318 7 q 318 50 311 36 q 315 72 318 57 q 306 117 313 88 q 286 192 299 146 q 253 306 274 238 q 184 521 221 407 q 111 740 147 635 q 51 922 76 844 q 18 1032 26 999 q 22 1063 14 1049 q 47 1083 31 1078 z "},"":{"ha":343,"x_min":36,"x_max":304,"o":"m 219 -149 q 216 -29 217 -86 q 215 71 215 28 q 215 113 214 94 q 215 143 215 131 q 221 178 218 163 q 238 203 224 193 q 263 211 250 211 q 296 193 283 211 q 303 172 303 183 q 299 151 304 161 q 297 109 297 139 q 298 38 297 79 q 299 -52 299 -4 q 301 -147 300 -100 l 301 -165 q 291 -194 303 -182 q 263 -207 279 -207 q 233 -197 244 -208 q 219 -168 221 -185 l 219 -149 m 74 -250 q 46 -233 56 -247 q 39 -201 36 -218 q 52 -117 44 -165 q 65 -22 60 -68 q 74 64 71 25 q 75 118 76 103 q 71 144 69 131 q 85 169 74 160 q 111 179 96 179 q 118 178 117 179 q 141 167 128 176 q 157 131 154 158 q 157 93 158 117 q 155 50 157 75 q 150 -7 153 25 q 135 -122 143 -64 q 121 -215 128 -179 q 104 -243 118 -233 q 74 -250 90 -253 z "},"":{"ha":447,"x_min":32,"x_max":401,"o":"m 32 474 q 40 506 32 490 q 67 542 47 522 q 120 586 88 561 q 201 646 153 611 q 234 669 217 657 q 257 688 251 682 q 290 704 269 704 q 311 699 301 704 q 331 674 326 690 q 325 643 335 658 q 304 619 319 632 q 249 579 289 607 q 204 547 228 564 q 161 513 181 529 q 138 494 146 501 q 124 481 129 486 q 163 460 135 472 q 210 439 185 449 q 264 418 236 429 q 329 392 300 404 q 378 369 358 381 q 397 344 393 361 q 393 313 401 328 q 368 293 385 297 q 336 297 351 289 q 292 318 321 307 q 233 342 264 329 q 84 408 135 381 q 32 474 33 435 z "},"":{"ha":506,"x_min":67,"x_max":436,"o":"m 436 517 q 428 485 436 501 q 400 449 419 469 q 347 404 381 429 q 267 344 314 379 q 233 321 250 333 q 211 303 217 308 q 178 286 199 286 q 157 292 167 286 q 138 317 142 300 q 142 349 133 333 q 163 371 147 358 q 218 411 178 383 q 263 444 240 426 q 307 478 286 461 q 344 511 335 500 q 329 519 338 514 q 306 531 321 524 q 256 551 282 542 q 204 572 231 561 q 139 599 168 586 q 90 622 110 611 q 71 647 75 631 q 75 678 67 663 q 99 697 83 693 q 131 693 115 701 q 174 673 146 685 q 235 649 203 661 q 383 583 333 610 q 436 517 433 556 z "},"":{"ha":747,"x_min":63,"x_max":696,"o":"m 696 517 q 688 485 696 501 q 660 449 679 469 q 607 404 640 429 q 526 344 574 379 q 493 321 510 333 q 471 303 476 308 q 438 286 458 286 q 417 292 426 286 q 397 317 401 300 q 401 349 393 333 q 422 371 407 358 q 478 411 438 383 q 523 444 500 426 q 567 478 546 461 q 604 511 594 500 q 589 519 597 514 q 565 531 581 524 q 516 551 542 542 q 464 572 490 561 q 399 599 428 586 q 350 622 369 611 q 331 647 335 631 q 335 678 326 663 q 359 697 343 693 q 390 693 375 701 q 434 673 406 685 q 494 649 463 661 q 643 583 593 610 q 696 517 693 556 m 432 503 q 424 472 432 488 q 396 435 415 456 q 343 390 376 415 q 263 331 310 365 q 229 307 246 319 q 207 289 213 294 q 174 272 194 272 q 153 278 163 272 q 133 303 138 286 q 138 335 129 319 q 158 357 143 344 q 214 397 174 369 q 259 430 236 413 q 303 464 282 447 q 340 497 331 486 q 325 505 333 500 q 301 517 317 510 q 252 538 278 528 q 200 558 226 547 q 135 585 164 572 q 86 608 106 597 q 67 633 71 617 q 71 664 63 649 q 95 683 79 679 q 126 679 111 688 q 170 659 142 671 q 231 635 199 647 q 379 569 329 596 q 432 503 429 542 z "},"":{"ha":749,"x_min":53,"x_max":686,"o":"m 53 460 q 60 492 53 476 q 88 528 68 508 q 141 572 108 547 q 222 632 174 597 q 255 656 238 643 q 278 674 272 668 q 311 690 290 690 q 332 685 322 690 q 351 660 347 676 q 346 629 356 644 q 325 606 340 618 q 269 565 310 593 q 225 533 249 550 q 182 499 201 515 q 158 480 167 488 q 144 467 150 472 q 183 446 156 458 q 231 425 206 435 q 285 404 257 415 q 350 378 321 390 q 399 356 379 367 q 418 331 414 347 q 414 299 422 314 q 389 279 406 283 q 357 283 372 275 q 313 304 342 293 q 254 328 285 315 q 105 394 156 367 q 53 460 54 421 m 317 474 q 324 506 317 490 q 352 542 332 522 q 405 586 372 561 q 486 646 438 611 q 519 669 501 657 q 542 688 536 682 q 575 704 554 704 q 596 699 586 704 q 615 674 611 690 q 610 643 619 658 q 589 619 604 632 q 533 579 574 607 q 489 547 513 564 q 446 513 465 529 q 422 494 431 501 q 408 481 414 486 q 447 460 419 472 q 495 439 469 449 q 549 418 521 429 q 614 392 585 404 q 663 369 643 381 q 682 344 678 361 q 678 313 686 328 q 653 293 669 297 q 621 297 636 289 q 577 318 606 307 q 518 342 549 329 q 369 408 419 381 q 317 474 318 435 z "},"":{"ha":335,"x_min":65,"x_max":304,"o":"m 86 769 q 103 809 93 781 q 124 864 114 838 q 176 999 151 943 q 236 1078 201 1054 q 267 1084 251 1088 q 293 1067 283 1081 q 301 1035 304 1051 q 282 1010 297 1019 q 259 980 271 1003 q 236 929 247 957 q 215 876 225 901 q 201 836 206 850 q 163 738 178 769 q 125 697 147 707 q 117 695 121 696 q 110 694 114 694 q 71 719 82 694 q 70 748 65 735 q 86 769 75 761 z "},"":{"ha":335,"x_min":72,"x_max":183,"o":"m 106 814 q 130 809 117 814 q 155 794 143 804 q 175 772 167 785 q 183 740 183 758 q 167 708 183 713 q 136 703 151 703 q 90 717 108 703 q 72 771 72 732 q 81 802 72 790 q 106 814 90 814 z "},"":{"ha":493,"x_min":86,"x_max":406,"o":"m 119 814 q 144 809 131 814 q 169 794 157 804 q 189 772 181 785 q 197 740 197 758 q 181 708 197 713 q 150 703 165 703 q 104 717 122 703 q 86 771 86 732 q 95 802 86 790 q 119 814 104 814 m 328 814 q 352 809 339 814 q 377 794 365 804 q 397 772 389 785 q 406 740 406 758 q 390 708 406 713 q 358 703 374 703 q 313 717 331 703 q 294 771 294 732 q 303 802 294 790 q 328 814 313 814 z "},"":{"ha":456,"x_min":72,"x_max":386,"o":"m 382 811 q 377 780 386 794 q 351 761 368 765 q 268 749 328 756 q 142 742 208 742 q 128 742 135 742 q 114 743 121 742 q 84 756 96 743 q 74 785 72 768 q 87 813 75 801 q 117 825 99 825 q 182 825 149 824 q 245 829 215 826 q 298 835 275 832 q 332 842 321 839 q 363 837 349 846 q 382 811 378 828 z "},"":{"ha":244,"x_min":72,"x_max":183,"o":"m 106 536 q 130 531 117 536 q 155 517 143 526 q 175 494 167 507 q 183 463 183 481 q 167 430 183 435 q 136 425 151 425 q 90 440 108 425 q 72 493 72 454 q 81 524 72 513 q 106 536 90 536 z "},"":{"ha":850,"x_min":67,"x_max":825,"o":"m 732 1439 q 785 1415 764 1439 q 817 1331 808 1389 q 819 1167 825 1274 q 807 983 817 1083 q 786 775 797 883 q 763 539 774 656 q 749 326 751 422 q 749 212 746 254 q 758 147 753 169 q 769 118 764 125 q 774 111 774 111 q 792 86 789 103 q 788 54 796 69 q 762 35 778 39 q 731 42 746 32 q 677 131 692 64 q 665 326 663 197 q 680 544 668 425 q 704 783 692 663 q 725 990 715 892 q 738 1169 735 1088 q 740 1246 740 1213 q 736 1304 739 1279 q 731 1340 733 1328 q 725 1356 728 1351 q 677 1325 707 1351 q 606 1240 647 1299 q 513 1083 565 1181 q 400 840 461 986 q 328 653 363 749 q 263 465 293 558 q 349 473 303 467 q 438 487 396 479 q 512 503 481 494 q 551 515 543 511 q 581 524 565 526 q 608 508 597 521 q 617 478 619 494 q 601 450 615 461 q 453 406 574 428 q 341 388 394 394 q 247 382 288 382 q 236 385 244 382 q 182 187 204 279 q 151 26 160 94 q 138 1 149 11 q 111 -10 126 -10 q 108 -9 108 -10 q 106 -8 107 -8 q 78 8 89 -6 q 69 38 67 21 q 103 208 79 110 q 160 416 126 306 q 235 644 193 526 q 325 872 278 761 q 425 1091 375 993 q 521 1260 475 1189 q 621 1385 572 1340 q 732 1439 679 1439 m 760 1594 q 777 1573 772 1586 q 775 1544 782 1560 q 738 1519 764 1519 q 721 1522 732 1519 q 683 1563 697 1532 q 646 1661 669 1594 q 632 1701 642 1675 q 611 1754 622 1726 q 588 1805 600 1782 q 564 1835 575 1828 q 547 1860 550 1844 q 553 1892 543 1876 q 579 1909 563 1906 q 610 1903 596 1913 q 670 1824 644 1879 q 724 1689 696 1768 q 742 1634 732 1663 q 760 1594 753 1606 z "},"":{"ha":850,"x_min":67,"x_max":929,"o":"m 732 1439 q 785 1415 764 1439 q 817 1331 808 1389 q 819 1167 825 1274 q 807 983 817 1083 q 786 775 797 883 q 763 539 774 656 q 749 326 751 422 q 749 212 746 254 q 758 147 753 169 q 769 118 764 125 q 774 111 774 111 q 792 86 789 103 q 788 54 796 69 q 762 35 778 39 q 731 42 746 32 q 677 131 692 64 q 665 326 663 197 q 680 544 668 425 q 704 783 692 663 q 725 990 715 892 q 738 1169 735 1088 q 740 1246 740 1213 q 736 1304 739 1279 q 731 1340 733 1328 q 725 1356 728 1351 q 677 1325 707 1351 q 606 1240 647 1299 q 513 1083 565 1181 q 400 840 461 986 q 328 653 363 749 q 263 465 293 558 q 349 473 303 467 q 438 487 396 479 q 512 503 481 494 q 551 515 543 511 q 581 524 565 526 q 608 508 597 521 q 617 478 619 494 q 601 450 615 461 q 453 406 574 428 q 341 388 394 394 q 247 382 288 382 q 236 385 244 382 q 182 187 204 279 q 151 26 160 94 q 138 1 149 11 q 111 -10 126 -10 q 108 -9 108 -10 q 106 -8 107 -8 q 78 8 89 -6 q 69 38 67 21 q 103 208 79 110 q 160 416 126 306 q 235 644 193 526 q 325 872 278 761 q 425 1091 375 993 q 521 1260 475 1189 q 621 1385 572 1340 q 732 1439 679 1439 m 711 1594 q 728 1634 718 1606 q 749 1689 739 1663 q 801 1824 776 1768 q 861 1903 826 1879 q 892 1909 876 1913 q 918 1892 908 1906 q 926 1860 929 1876 q 907 1835 922 1844 q 884 1805 896 1828 q 861 1754 872 1782 q 840 1701 850 1726 q 826 1661 831 1675 q 788 1563 803 1594 q 750 1522 772 1532 q 742 1520 746 1521 q 735 1519 739 1519 q 696 1544 707 1519 q 695 1573 690 1560 q 711 1594 700 1586 z "},"":{"ha":850,"x_min":67,"x_max":944,"o":"m 732 1439 q 785 1415 764 1439 q 817 1331 808 1389 q 819 1167 825 1274 q 807 983 817 1083 q 786 775 797 883 q 763 539 774 656 q 749 326 751 422 q 749 212 746 254 q 758 147 753 169 q 769 118 764 125 q 774 111 774 111 q 792 86 789 103 q 788 54 796 69 q 762 35 778 39 q 731 42 746 32 q 677 131 692 64 q 665 326 663 197 q 680 544 668 425 q 704 783 692 663 q 725 990 715 892 q 738 1169 735 1088 q 740 1246 740 1213 q 736 1304 739 1279 q 731 1340 733 1328 q 725 1356 728 1351 q 677 1325 707 1351 q 606 1240 647 1299 q 513 1083 565 1181 q 400 840 461 986 q 328 653 363 749 q 263 465 293 558 q 349 473 303 467 q 438 487 396 479 q 512 503 481 494 q 551 515 543 511 q 581 524 565 526 q 608 508 597 521 q 617 478 619 494 q 601 450 615 461 q 453 406 574 428 q 341 388 394 394 q 247 382 288 382 q 236 385 244 382 q 182 187 204 279 q 151 26 160 94 q 138 1 149 11 q 111 -10 126 -10 q 108 -9 108 -10 q 106 -8 107 -8 q 78 8 89 -6 q 69 38 67 21 q 103 208 79 110 q 160 416 126 306 q 235 644 193 526 q 325 872 278 761 q 425 1091 375 993 q 521 1260 475 1189 q 621 1385 572 1340 q 732 1439 679 1439 m 938 1621 q 940 1589 944 1606 q 919 1565 935 1572 q 894 1558 908 1558 q 852 1574 871 1558 q 825 1597 833 1589 q 794 1633 810 1613 q 763 1674 778 1653 l 728 1717 q 707 1672 718 1697 q 689 1628 696 1646 q 664 1567 674 1589 q 646 1535 654 1546 q 614 1519 633 1519 q 588 1529 597 1519 q 572 1557 574 1540 q 582 1586 571 1574 q 596 1616 586 1593 q 613 1658 606 1639 q 666 1774 644 1736 q 719 1815 688 1813 q 769 1794 747 1818 q 828 1724 792 1769 q 864 1678 843 1704 q 897 1642 885 1653 q 938 1621 925 1644 z "},"":{"ha":850,"x_min":67,"x_max":897,"o":"m 732 1439 q 785 1415 764 1439 q 817 1331 808 1389 q 819 1167 825 1274 q 807 983 817 1083 q 786 775 797 883 q 763 539 774 656 q 749 326 751 422 q 749 212 746 254 q 758 147 753 169 q 769 118 764 125 q 774 111 774 111 q 792 86 789 103 q 788 54 796 69 q 762 35 778 39 q 731 42 746 32 q 677 131 692 64 q 665 326 663 197 q 680 544 668 425 q 704 783 692 663 q 725 990 715 892 q 738 1169 735 1088 q 740 1246 740 1213 q 736 1304 739 1279 q 731 1340 733 1328 q 725 1356 728 1351 q 677 1325 707 1351 q 606 1240 647 1299 q 513 1083 565 1181 q 400 840 461 986 q 328 653 363 749 q 263 465 293 558 q 349 473 303 467 q 438 487 396 479 q 512 503 481 494 q 551 515 543 511 q 581 524 565 526 q 608 508 597 521 q 617 478 619 494 q 601 450 615 461 q 453 406 574 428 q 341 388 394 394 q 247 382 288 382 q 236 385 244 382 q 182 187 204 279 q 151 26 160 94 q 138 1 149 11 q 111 -10 126 -10 q 108 -9 108 -10 q 106 -8 107 -8 q 78 8 89 -6 q 69 38 67 21 q 103 208 79 110 q 160 416 126 306 q 235 644 193 526 q 325 872 278 761 q 425 1091 375 993 q 521 1260 475 1189 q 621 1385 572 1340 q 732 1439 679 1439 m 611 1639 q 635 1634 622 1639 q 660 1619 649 1629 q 681 1597 672 1610 q 689 1565 689 1583 q 673 1533 689 1538 q 642 1528 657 1528 q 596 1542 614 1528 q 578 1596 578 1557 q 587 1627 578 1615 q 611 1639 596 1639 m 819 1639 q 844 1634 831 1639 q 869 1619 857 1629 q 889 1597 881 1610 q 897 1565 897 1583 q 881 1533 897 1538 q 850 1528 865 1528 q 804 1542 822 1528 q 786 1596 786 1557 q 795 1627 786 1615 q 819 1639 804 1639 z "},"":{"ha":850,"x_min":67,"x_max":896,"o":"m 732 1439 q 785 1415 764 1439 q 817 1331 808 1389 q 819 1167 825 1274 q 807 983 817 1083 q 786 775 797 883 q 763 539 774 656 q 749 326 751 422 q 749 212 746 254 q 758 147 753 169 q 769 118 764 125 q 774 111 774 111 q 792 86 789 103 q 788 54 796 69 q 762 35 778 39 q 731 42 746 32 q 677 131 692 64 q 665 326 663 197 q 680 544 668 425 q 704 783 692 663 q 725 990 715 892 q 738 1169 735 1088 q 740 1246 740 1213 q 736 1304 739 1279 q 731 1340 733 1328 q 725 1356 728 1351 q 677 1325 707 1351 q 606 1240 647 1299 q 513 1083 565 1181 q 400 840 461 986 q 328 653 363 749 q 263 465 293 558 q 349 473 303 467 q 438 487 396 479 q 512 503 481 494 q 551 515 543 511 q 581 524 565 526 q 608 508 597 521 q 617 478 619 494 q 601 450 615 461 q 453 406 574 428 q 341 388 394 394 q 247 382 288 382 q 236 385 244 382 q 182 187 204 279 q 151 26 160 94 q 138 1 149 11 q 111 -10 126 -10 q 108 -9 108 -10 q 106 -8 107 -8 q 78 8 89 -6 q 69 38 67 21 q 103 208 79 110 q 160 416 126 306 q 235 644 193 526 q 325 872 278 761 q 425 1091 375 993 q 521 1260 475 1189 q 621 1385 572 1340 q 732 1439 679 1439 m 892 1636 q 887 1605 896 1619 q 861 1586 878 1590 q 778 1574 838 1581 q 651 1567 718 1567 q 638 1567 644 1567 q 624 1568 631 1567 q 594 1581 606 1568 q 583 1610 582 1593 q 597 1638 585 1626 q 626 1650 608 1650 q 692 1650 658 1649 q 755 1654 725 1651 q 808 1660 785 1657 q 842 1667 831 1664 q 873 1662 858 1671 q 892 1636 888 1653 z "},"":{"ha":850,"x_min":67,"x_max":957,"o":"m 732 1439 q 785 1415 764 1439 q 817 1331 808 1389 q 819 1167 825 1274 q 807 983 817 1083 q 786 775 797 883 q 763 539 774 656 q 749 326 751 422 q 749 212 746 254 q 758 147 753 169 q 769 118 764 125 q 774 111 774 111 q 792 86 789 103 q 788 54 796 69 q 762 35 778 39 q 731 42 746 32 q 677 131 692 64 q 665 326 663 197 q 680 544 668 425 q 704 783 692 663 q 725 990 715 892 q 738 1169 735 1088 q 740 1246 740 1213 q 736 1304 739 1279 q 731 1340 733 1328 q 725 1356 728 1351 q 677 1325 707 1351 q 606 1240 647 1299 q 513 1083 565 1181 q 400 840 461 986 q 328 653 363 749 q 263 465 293 558 q 349 473 303 467 q 438 487 396 479 q 512 503 481 494 q 551 515 543 511 q 581 524 565 526 q 608 508 597 521 q 617 478 619 494 q 601 450 615 461 q 453 406 574 428 q 341 388 394 394 q 247 382 288 382 q 236 385 244 382 q 182 187 204 279 q 151 26 160 94 q 138 1 149 11 q 111 -10 126 -10 q 108 -9 108 -10 q 106 -8 107 -8 q 78 8 89 -6 q 69 38 67 21 q 103 208 79 110 q 160 416 126 306 q 235 644 193 526 q 325 872 278 761 q 425 1091 375 993 q 521 1260 475 1189 q 621 1385 572 1340 q 732 1439 679 1439 m 947 1785 q 953 1763 951 1776 q 956 1734 956 1749 q 956 1708 957 1719 q 956 1696 956 1697 q 949 1635 956 1668 q 928 1574 943 1601 q 887 1531 910 1542 q 846 1519 864 1521 l 839 1519 q 790 1528 813 1519 q 747 1552 767 1538 q 708 1583 726 1567 q 676 1615 690 1600 q 662 1630 669 1622 q 649 1642 654 1638 q 629 1625 642 1639 q 600 1557 608 1599 q 582 1531 596 1540 q 551 1525 568 1522 q 525 1543 535 1529 q 519 1574 515 1557 q 571 1683 533 1640 q 653 1726 608 1726 q 694 1712 676 1726 q 735 1674 711 1697 q 786 1625 758 1650 q 842 1601 814 1600 q 854 1610 847 1601 q 867 1643 863 1622 q 874 1685 872 1664 q 874 1726 875 1707 q 871 1751 872 1744 q 871 1781 865 1767 q 892 1803 876 1796 q 923 1806 907 1811 q 947 1785 939 1800 z "},"":{"ha":850,"x_min":67,"x_max":950,"o":"m 732 1439 q 785 1415 764 1439 q 817 1331 808 1389 q 819 1167 825 1274 q 807 983 817 1083 q 786 775 797 883 q 763 539 774 656 q 749 326 751 422 q 749 212 746 254 q 758 147 753 169 q 769 118 764 125 q 774 111 774 111 q 792 86 789 103 q 788 54 796 69 q 762 35 778 39 q 731 42 746 32 q 677 131 692 64 q 665 326 663 197 q 680 544 668 425 q 704 783 692 663 q 725 990 715 892 q 738 1169 735 1088 q 740 1246 740 1213 q 736 1304 739 1279 q 731 1340 733 1328 q 725 1356 728 1351 q 677 1325 707 1351 q 606 1240 647 1299 q 513 1083 565 1181 q 400 840 461 986 q 328 653 363 749 q 263 465 293 558 q 349 473 303 467 q 438 487 396 479 q 512 503 481 494 q 551 515 543 511 q 581 524 565 526 q 608 508 597 521 q 617 478 619 494 q 601 450 615 461 q 453 406 574 428 q 341 388 394 394 q 247 382 288 382 q 236 385 244 382 q 182 187 204 279 q 151 26 160 94 q 138 1 149 11 q 111 -10 126 -10 q 108 -9 108 -10 q 106 -8 107 -8 q 78 8 89 -6 q 69 38 67 21 q 103 208 79 110 q 160 416 126 306 q 235 644 193 526 q 325 872 278 761 q 425 1091 375 993 q 521 1260 475 1189 q 621 1385 572 1340 q 732 1439 679 1439 m 907 1818 q 904 1674 950 1761 q 867 1617 889 1644 q 817 1568 844 1590 q 759 1533 790 1546 q 696 1519 728 1519 l 689 1519 q 608 1560 642 1522 q 576 1611 588 1582 q 558 1668 564 1640 q 550 1719 551 1696 q 549 1756 549 1743 q 563 1785 550 1774 q 592 1794 575 1796 q 621 1781 610 1793 q 631 1751 632 1769 q 632 1721 631 1739 q 638 1683 633 1703 q 651 1644 643 1663 q 669 1615 658 1626 q 683 1605 676 1607 q 693 1601 689 1603 q 728 1610 710 1601 q 766 1633 747 1618 q 802 1669 785 1649 q 831 1711 819 1689 q 844 1749 843 1735 q 842 1767 844 1763 q 833 1796 831 1779 q 849 1824 835 1813 q 879 1833 863 1835 q 907 1818 896 1831 z "},"":{"ha":850,"x_min":67,"x_max":875,"o":"m 732 1439 q 785 1415 764 1439 q 817 1331 808 1389 q 819 1167 825 1274 q 807 983 817 1083 q 786 775 797 883 q 763 539 774 656 q 749 326 751 422 q 749 212 746 254 q 758 147 753 169 q 769 118 764 125 q 774 111 774 111 q 792 86 789 103 q 788 54 796 69 q 762 35 778 39 q 731 42 746 32 q 677 131 692 64 q 665 326 663 197 q 680 544 668 425 q 704 783 692 663 q 725 990 715 892 q 738 1169 735 1088 q 740 1246 740 1213 q 736 1304 739 1279 q 731 1340 733 1328 q 725 1356 728 1351 q 677 1325 707 1351 q 606 1240 647 1299 q 513 1083 565 1181 q 400 840 461 986 q 328 653 363 749 q 263 465 293 558 q 349 473 303 467 q 438 487 396 479 q 512 503 481 494 q 551 515 543 511 q 581 524 565 526 q 608 508 597 521 q 617 478 619 494 q 601 450 615 461 q 453 406 574 428 q 341 388 394 394 q 247 382 288 382 q 236 385 244 382 q 182 187 204 279 q 151 26 160 94 q 138 1 149 11 q 111 -10 126 -10 q 108 -9 108 -10 q 106 -8 107 -8 q 78 8 89 -6 q 69 38 67 21 q 103 208 79 110 q 160 416 126 306 q 235 644 193 526 q 325 872 278 761 q 425 1091 375 993 q 521 1260 475 1189 q 621 1385 572 1340 q 732 1439 679 1439 m 872 1739 q 870 1656 875 1703 q 839 1571 865 1608 q 740 1519 803 1519 q 722 1521 729 1519 q 589 1628 632 1532 q 565 1708 572 1664 q 561 1801 558 1753 q 596 1939 565 1882 q 651 1999 621 1986 q 700 2013 681 2013 q 758 1994 725 2013 q 824 1915 792 1975 q 856 1832 843 1878 q 872 1739 868 1786 m 771 1618 q 788 1667 783 1636 q 790 1733 793 1697 q 778 1807 788 1769 q 751 1876 768 1844 q 722 1919 736 1907 q 700 1931 707 1931 l 699 1931 q 665 1894 683 1931 q 643 1796 647 1858 q 646 1724 640 1758 q 664 1661 651 1689 q 732 1603 688 1607 q 771 1618 760 1599 z "},"":{"ha":774,"x_min":72,"x_max":760,"o":"m 467 1433 q 592 1402 531 1442 q 694 1286 653 1363 q 726 1210 714 1251 q 742 1129 739 1169 q 735 1050 744 1089 q 700 981 725 1011 q 672 965 689 967 q 642 974 656 963 q 626 1001 628 985 q 636 1032 625 1018 q 657 1079 653 1053 q 660 1125 661 1106 q 622 1246 656 1188 q 554 1328 593 1299 q 476 1351 515 1357 q 431 1336 457 1349 q 377 1299 406 1324 q 319 1235 349 1274 q 261 1142 289 1196 q 223 1056 242 1106 q 189 945 204 1007 q 164 808 174 883 q 154 644 154 733 q 158 538 154 599 q 172 415 161 478 q 203 293 183 353 q 254 186 222 233 q 332 110 286 139 q 442 82 378 82 q 503 88 471 82 q 569 106 536 94 q 634 133 603 117 q 692 169 665 150 q 722 178 706 181 q 750 161 739 175 q 758 131 760 147 q 742 104 756 115 q 682 65 717 85 q 607 30 647 46 q 524 4 567 14 q 439 -6 481 -6 q 306 26 363 -6 q 208 112 249 58 q 141 233 167 165 q 100 373 115 301 q 78 515 85 444 q 72 643 72 586 q 83 820 72 739 q 110 968 93 901 q 147 1088 126 1035 q 189 1181 168 1140 q 250 1278 217 1233 q 321 1357 283 1324 q 467 1433 394 1425 m 458 1594 q 476 1634 465 1606 q 496 1689 486 1663 q 549 1824 524 1768 q 608 1903 574 1879 q 640 1909 624 1913 q 665 1892 656 1906 q 673 1860 676 1876 q 654 1835 669 1844 q 631 1805 643 1828 q 608 1754 619 1782 q 588 1701 597 1726 q 574 1661 578 1675 q 535 1563 550 1594 q 497 1522 519 1532 q 490 1520 493 1521 q 482 1519 486 1519 q 443 1544 454 1519 q 442 1573 438 1560 q 458 1594 447 1586 z "},"":{"ha":774,"x_min":72,"x_max":760,"o":"m 467 1433 q 592 1402 531 1442 q 694 1286 653 1363 q 726 1210 714 1251 q 742 1129 739 1169 q 735 1050 744 1089 q 700 981 725 1011 q 672 965 689 967 q 642 974 656 963 q 626 1001 628 985 q 636 1032 625 1018 q 657 1079 653 1053 q 660 1125 661 1106 q 622 1246 656 1188 q 554 1328 593 1299 q 476 1351 515 1357 q 431 1336 457 1349 q 377 1299 406 1324 q 319 1235 349 1274 q 261 1142 289 1196 q 223 1056 242 1106 q 189 945 204 1007 q 164 808 174 883 q 154 644 154 733 q 158 538 154 599 q 172 415 161 478 q 203 293 183 353 q 254 186 222 233 q 332 110 286 139 q 442 82 378 82 q 503 88 471 82 q 569 106 536 94 q 634 133 603 117 q 692 169 665 150 q 722 178 706 181 q 750 161 739 175 q 758 131 760 147 q 742 104 756 115 q 682 65 717 85 q 607 30 647 46 q 524 4 567 14 q 439 -6 481 -6 q 306 26 363 -6 q 208 112 249 58 q 141 233 167 165 q 100 373 115 301 q 78 515 85 444 q 72 643 72 586 q 83 820 72 739 q 110 968 93 901 q 147 1088 126 1035 q 189 1181 168 1140 q 250 1278 217 1233 q 321 1357 283 1324 q 467 1433 394 1425 m 685 1621 q 687 1589 692 1606 q 667 1565 682 1572 q 642 1558 656 1558 q 599 1574 618 1558 q 572 1597 581 1589 q 541 1633 557 1613 q 510 1674 525 1653 l 475 1717 q 454 1672 465 1697 q 436 1628 443 1646 q 411 1567 421 1589 q 393 1535 401 1546 q 361 1519 381 1519 q 335 1529 344 1519 q 319 1557 321 1540 q 329 1586 318 1574 q 343 1616 333 1593 q 360 1658 353 1639 q 413 1774 392 1736 q 467 1815 435 1813 q 517 1794 494 1818 q 575 1724 539 1769 q 611 1678 590 1704 q 644 1642 632 1653 q 685 1621 672 1644 z "},"":{"ha":774,"x_min":72,"x_max":760,"o":"m 467 1433 q 592 1402 531 1442 q 694 1286 653 1363 q 726 1210 714 1251 q 742 1129 739 1169 q 735 1050 744 1089 q 700 981 725 1011 q 672 965 689 967 q 642 974 656 963 q 626 1001 628 985 q 636 1032 625 1018 q 657 1079 653 1053 q 660 1125 661 1106 q 622 1246 656 1188 q 554 1328 593 1299 q 476 1351 515 1357 q 431 1336 457 1349 q 377 1299 406 1324 q 319 1235 349 1274 q 261 1142 289 1196 q 223 1056 242 1106 q 189 945 204 1007 q 164 808 174 883 q 154 644 154 733 q 158 538 154 599 q 172 415 161 478 q 203 293 183 353 q 254 186 222 233 q 332 110 286 139 q 442 82 378 82 q 503 88 471 82 q 569 106 536 94 q 634 133 603 117 q 692 169 665 150 q 722 178 706 181 q 750 161 739 175 q 758 131 760 147 q 742 104 756 115 q 682 65 717 85 q 607 30 647 46 q 524 4 567 14 q 439 -6 481 -6 q 306 26 363 -6 q 208 112 249 58 q 141 233 167 165 q 100 373 115 301 q 78 515 85 444 q 72 643 72 586 q 83 820 72 739 q 110 968 93 901 q 147 1088 126 1035 q 189 1181 168 1140 q 250 1278 217 1233 q 321 1357 283 1324 q 467 1433 394 1425 m 614 1794 q 599 1757 618 1774 q 581 1712 592 1744 q 561 1654 569 1679 q 540 1594 549 1618 q 525 1556 532 1571 q 511 1535 518 1542 q 496 1524 504 1528 q 478 1519 488 1519 q 439 1535 460 1519 q 386 1578 418 1550 q 335 1626 363 1600 q 288 1674 308 1653 q 267 1694 276 1685 q 250 1708 257 1703 q 238 1737 238 1719 q 249 1767 238 1754 q 277 1780 260 1779 q 307 1769 294 1781 l 344 1732 q 369 1707 354 1721 q 401 1677 385 1693 q 433 1647 417 1661 q 463 1621 450 1632 l 483 1681 q 498 1724 490 1703 q 513 1765 506 1746 q 535 1810 524 1792 q 568 1831 546 1828 q 598 1823 585 1833 q 614 1794 611 1813 z "},"":{"ha":774,"x_min":72,"x_max":760,"o":"m 467 1433 q 592 1402 531 1442 q 694 1286 653 1363 q 726 1210 714 1251 q 742 1129 739 1169 q 735 1050 744 1089 q 700 981 725 1011 q 672 965 689 967 q 642 974 656 963 q 626 1001 628 985 q 636 1032 625 1018 q 657 1079 653 1053 q 660 1125 661 1106 q 622 1246 656 1188 q 554 1328 593 1299 q 476 1351 515 1357 q 431 1336 457 1349 q 377 1299 406 1324 q 319 1235 349 1274 q 261 1142 289 1196 q 223 1056 242 1106 q 189 945 204 1007 q 164 808 174 883 q 154 644 154 733 q 158 538 154 599 q 172 415 161 478 q 203 293 183 353 q 254 186 222 233 q 332 110 286 139 q 442 82 378 82 q 503 88 471 82 q 569 106 536 94 q 634 133 603 117 q 692 169 665 150 q 722 178 706 181 q 750 161 739 175 q 758 131 760 147 q 742 104 756 115 q 682 65 717 85 q 607 30 647 46 q 524 4 567 14 q 439 -6 481 -6 q 306 26 363 -6 q 208 112 249 58 q 141 233 167 165 q 100 373 115 301 q 78 515 85 444 q 72 643 72 586 q 83 820 72 739 q 110 968 93 901 q 147 1088 126 1035 q 189 1181 168 1140 q 250 1278 217 1233 q 321 1357 283 1324 q 467 1433 394 1425 m 454 1639 q 478 1634 465 1639 q 503 1619 492 1629 q 524 1597 515 1610 q 532 1565 532 1583 q 516 1533 532 1538 q 485 1528 500 1528 q 439 1542 457 1528 q 421 1596 421 1557 q 430 1627 421 1615 q 454 1639 439 1639 z "},"":{"ha":1022,"x_min":69,"x_max":981,"o":"m 851 1358 q 922 1248 893 1314 q 967 1100 951 1182 q 980 937 981 1022 q 965 760 979 851 q 906 515 946 633 q 811 299 865 397 q 674 120 749 188 q 519 33 600 53 q 324 57 422 8 q 251 104 288 76 q 179 172 215 132 q 168 122 172 144 q 161 85 164 100 l 156 57 q 155 52 156 54 q 154 49 154 50 q 137 22 150 29 q 113 14 124 14 q 107 15 108 14 q 81 30 93 18 q 72 61 69 42 l 72 63 q 74 65 72 63 l 83 139 q 103 269 92 192 q 127 441 114 347 q 154 638 140 535 q 181 843 168 740 q 203 1049 194 957 q 215 1211 211 1140 q 219 1303 219 1267 q 218 1359 219 1339 q 215 1388 217 1379 q 213 1397 213 1396 q 208 1428 204 1413 q 226 1454 211 1444 q 258 1458 242 1463 q 283 1439 275 1454 q 292 1417 288 1431 q 299 1379 296 1404 q 301 1315 301 1354 q 299 1215 301 1275 q 287 1069 294 1151 q 268 886 279 988 q 335 1088 301 999 q 401 1243 369 1176 q 503 1394 451 1343 q 626 1453 556 1446 q 743 1434 683 1457 q 851 1358 803 1411 m 883 772 q 897 937 897 857 q 885 1085 897 1017 q 849 1210 874 1154 q 790 1303 825 1265 q 714 1357 756 1340 q 638 1371 672 1374 q 606 1363 624 1369 q 567 1335 589 1356 q 520 1278 546 1315 q 465 1180 494 1242 q 401 1028 435 1118 q 332 811 368 938 q 257 528 290 668 q 200 275 224 388 q 500 113 351 76 q 624 186 563 128 q 739 340 686 244 q 827 542 790 432 q 883 772 864 653 m 847 1794 q 832 1757 851 1774 q 814 1712 825 1744 q 794 1654 803 1679 q 774 1594 782 1618 q 758 1556 765 1571 q 744 1535 751 1542 q 729 1524 738 1528 q 711 1519 721 1519 q 672 1535 693 1519 q 619 1578 651 1550 q 569 1626 596 1600 q 521 1674 542 1653 q 500 1694 510 1685 q 483 1708 490 1703 q 471 1737 471 1719 q 482 1767 471 1754 q 510 1780 493 1779 q 540 1769 528 1781 l 578 1732 q 603 1707 588 1721 q 634 1677 618 1693 q 667 1647 650 1661 q 696 1621 683 1632 l 717 1681 q 731 1724 724 1703 q 746 1765 739 1746 q 768 1810 757 1792 q 801 1831 779 1828 q 831 1823 818 1833 q 847 1794 844 1813 z "},"":{"ha":910,"x_min":79,"x_max":911,"o":"m 892 104 q 908 78 906 94 q 901 47 911 61 q 746 -12 869 4 q 560 -21 668 -21 l 513 -21 q 397 -16 457 -19 q 285 -8 338 -12 q 190 5 232 -3 q 128 22 147 13 q 102 45 113 29 q 86 88 92 61 q 80 156 81 115 q 82 253 79 196 q 97 435 86 335 q 119 639 107 535 q 133 766 126 703 q 146 888 140 829 q 155 999 151 947 q 158 1090 158 1050 q 204 1237 158 1168 q 340 1361 250 1306 q 491 1432 407 1403 q 654 1469 575 1461 q 747 1469 711 1475 q 805 1452 783 1464 q 835 1426 826 1440 q 847 1399 844 1411 q 842 1367 851 1382 q 815 1350 833 1353 q 786 1356 800 1347 q 768 1379 772 1364 q 741 1387 763 1382 q 674 1389 719 1392 q 580 1372 629 1385 q 482 1340 531 1360 q 385 1292 429 1319 q 310 1235 342 1265 q 240 1090 240 1165 q 237 995 240 1049 q 228 882 233 942 q 215 758 222 822 q 201 629 208 693 l 190 536 l 294 553 q 512 586 426 574 q 626 599 597 599 q 656 587 644 599 q 668 558 668 575 q 656 528 668 540 q 626 517 644 517 q 579 513 613 517 q 501 502 546 508 q 406 488 457 496 q 308 472 356 479 q 181 451 242 460 l 165 275 q 162 194 163 226 q 163 142 161 163 q 166 110 164 121 q 169 94 168 99 q 215 85 183 90 q 290 74 246 79 q 390 66 335 69 q 506 61 444 63 q 656 63 594 60 q 755 73 717 67 q 812 85 793 79 q 835 96 831 92 q 862 113 846 110 q 892 104 878 115 m 436 1594 q 453 1573 449 1586 q 451 1544 458 1560 q 414 1519 440 1519 q 397 1522 408 1519 q 360 1563 374 1532 q 322 1661 346 1594 q 308 1701 318 1675 q 288 1754 299 1726 q 264 1805 276 1782 q 240 1835 251 1828 q 223 1860 226 1844 q 229 1892 219 1876 q 256 1909 239 1906 q 286 1903 272 1913 q 347 1824 321 1879 q 400 1689 372 1768 q 419 1634 408 1663 q 436 1594 429 1606 z "},"":{"ha":910,"x_min":79,"x_max":911,"o":"m 892 104 q 908 78 906 94 q 901 47 911 61 q 746 -12 869 4 q 560 -21 668 -21 l 513 -21 q 397 -16 457 -19 q 285 -8 338 -12 q 190 5 232 -3 q 128 22 147 13 q 102 45 113 29 q 86 88 92 61 q 80 156 81 115 q 82 253 79 196 q 97 435 86 335 q 119 639 107 535 q 133 766 126 703 q 146 888 140 829 q 155 999 151 947 q 158 1090 158 1050 q 204 1237 158 1168 q 340 1361 250 1306 q 491 1432 407 1403 q 654 1469 575 1461 q 747 1469 711 1475 q 805 1452 783 1464 q 835 1426 826 1440 q 847 1399 844 1411 q 842 1367 851 1382 q 815 1350 833 1353 q 786 1356 800 1347 q 768 1379 772 1364 q 741 1387 763 1382 q 674 1389 719 1392 q 580 1372 629 1385 q 482 1340 531 1360 q 385 1292 429 1319 q 310 1235 342 1265 q 240 1090 240 1165 q 237 995 240 1049 q 228 882 233 942 q 215 758 222 822 q 201 629 208 693 l 190 536 l 294 553 q 512 586 426 574 q 626 599 597 599 q 656 587 644 599 q 668 558 668 575 q 656 528 668 540 q 626 517 644 517 q 579 513 613 517 q 501 502 546 508 q 406 488 457 496 q 308 472 356 479 q 181 451 242 460 l 165 275 q 162 194 163 226 q 163 142 161 163 q 166 110 164 121 q 169 94 168 99 q 215 85 183 90 q 290 74 246 79 q 390 66 335 69 q 506 61 444 63 q 656 63 594 60 q 755 73 717 67 q 812 85 793 79 q 835 96 831 92 q 862 113 846 110 q 892 104 878 115 m 388 1594 q 405 1634 394 1606 q 425 1689 415 1663 q 478 1824 453 1768 q 538 1903 503 1879 q 569 1909 553 1913 q 594 1892 585 1906 q 602 1860 606 1876 q 583 1835 599 1844 q 560 1805 572 1828 q 538 1754 549 1782 q 517 1701 526 1726 q 503 1661 507 1675 q 464 1563 479 1594 q 426 1522 449 1532 q 419 1520 422 1521 q 411 1519 415 1519 q 372 1544 383 1519 q 372 1573 367 1560 q 388 1594 376 1586 z "},"":{"ha":910,"x_min":79,"x_max":911,"o":"m 892 104 q 908 78 906 94 q 901 47 911 61 q 746 -12 869 4 q 560 -21 668 -21 l 513 -21 q 397 -16 457 -19 q 285 -8 338 -12 q 190 5 232 -3 q 128 22 147 13 q 102 45 113 29 q 86 88 92 61 q 80 156 81 115 q 82 253 79 196 q 97 435 86 335 q 119 639 107 535 q 133 766 126 703 q 146 888 140 829 q 155 999 151 947 q 158 1090 158 1050 q 204 1237 158 1168 q 340 1361 250 1306 q 491 1432 407 1403 q 654 1469 575 1461 q 747 1469 711 1475 q 805 1452 783 1464 q 835 1426 826 1440 q 847 1399 844 1411 q 842 1367 851 1382 q 815 1350 833 1353 q 786 1356 800 1347 q 768 1379 772 1364 q 741 1387 763 1382 q 674 1389 719 1392 q 580 1372 629 1385 q 482 1340 531 1360 q 385 1292 429 1319 q 310 1235 342 1265 q 240 1090 240 1165 q 237 995 240 1049 q 228 882 233 942 q 215 758 222 822 q 201 629 208 693 l 190 536 l 294 553 q 512 586 426 574 q 626 599 597 599 q 656 587 644 599 q 668 558 668 575 q 656 528 668 540 q 626 517 644 517 q 579 513 613 517 q 501 502 546 508 q 406 488 457 496 q 308 472 356 479 q 181 451 242 460 l 165 275 q 162 194 163 226 q 163 142 161 163 q 166 110 164 121 q 169 94 168 99 q 215 85 183 90 q 290 74 246 79 q 390 66 335 69 q 506 61 444 63 q 656 63 594 60 q 755 73 717 67 q 812 85 793 79 q 835 96 831 92 q 862 113 846 110 q 892 104 878 115 m 614 1621 q 616 1589 621 1606 q 596 1565 611 1572 q 571 1558 585 1558 q 528 1574 547 1558 q 501 1597 510 1589 q 470 1633 486 1613 q 439 1674 454 1653 l 404 1717 q 383 1672 394 1697 q 365 1628 372 1646 q 340 1567 350 1589 q 322 1535 331 1546 q 290 1519 310 1519 q 264 1529 274 1519 q 249 1557 250 1540 q 258 1586 247 1574 q 272 1616 263 1593 q 289 1658 282 1639 q 342 1774 321 1736 q 396 1815 364 1813 q 446 1794 424 1818 q 504 1724 468 1769 q 540 1678 519 1704 q 574 1642 561 1653 q 614 1621 601 1644 z "},"":{"ha":910,"x_min":79,"x_max":911,"o":"m 892 104 q 908 78 906 94 q 901 47 911 61 q 746 -12 869 4 q 560 -21 668 -21 l 513 -21 q 397 -16 457 -19 q 285 -8 338 -12 q 190 5 232 -3 q 128 22 147 13 q 102 45 113 29 q 86 88 92 61 q 80 156 81 115 q 82 253 79 196 q 97 435 86 335 q 119 639 107 535 q 133 766 126 703 q 146 888 140 829 q 155 999 151 947 q 158 1090 158 1050 q 204 1237 158 1168 q 340 1361 250 1306 q 491 1432 407 1403 q 654 1469 575 1461 q 747 1469 711 1475 q 805 1452 783 1464 q 835 1426 826 1440 q 847 1399 844 1411 q 842 1367 851 1382 q 815 1350 833 1353 q 786 1356 800 1347 q 768 1379 772 1364 q 741 1387 763 1382 q 674 1389 719 1392 q 580 1372 629 1385 q 482 1340 531 1360 q 385 1292 429 1319 q 310 1235 342 1265 q 240 1090 240 1165 q 237 995 240 1049 q 228 882 233 942 q 215 758 222 822 q 201 629 208 693 l 190 536 l 294 553 q 512 586 426 574 q 626 599 597 599 q 656 587 644 599 q 668 558 668 575 q 656 528 668 540 q 626 517 644 517 q 579 513 613 517 q 501 502 546 508 q 406 488 457 496 q 308 472 356 479 q 181 451 242 460 l 165 275 q 162 194 163 226 q 163 142 161 163 q 166 110 164 121 q 169 94 168 99 q 215 85 183 90 q 290 74 246 79 q 390 66 335 69 q 506 61 444 63 q 656 63 594 60 q 755 73 717 67 q 812 85 793 79 q 835 96 831 92 q 862 113 846 110 q 892 104 878 115 m 543 1794 q 528 1757 547 1774 q 510 1712 521 1744 q 490 1654 499 1679 q 469 1594 478 1618 q 454 1556 461 1571 q 440 1535 447 1542 q 425 1524 433 1528 q 407 1519 417 1519 q 368 1535 389 1519 q 315 1578 347 1550 q 265 1626 292 1600 q 217 1674 238 1653 q 196 1694 206 1685 q 179 1708 186 1703 q 167 1737 167 1719 q 178 1767 167 1754 q 206 1780 189 1779 q 236 1769 224 1781 l 274 1732 q 299 1707 283 1721 q 330 1677 314 1693 q 363 1647 346 1661 q 392 1621 379 1632 l 413 1681 q 427 1724 419 1703 q 442 1765 435 1746 q 464 1810 453 1792 q 497 1831 475 1828 q 527 1823 514 1833 q 543 1794 540 1813 z "},"":{"ha":910,"x_min":79,"x_max":911,"o":"m 892 104 q 908 78 906 94 q 901 47 911 61 q 746 -12 869 4 q 560 -21 668 -21 l 513 -21 q 397 -16 457 -19 q 285 -8 338 -12 q 190 5 232 -3 q 128 22 147 13 q 102 45 113 29 q 86 88 92 61 q 80 156 81 115 q 82 253 79 196 q 97 435 86 335 q 119 639 107 535 q 133 766 126 703 q 146 888 140 829 q 155 999 151 947 q 158 1090 158 1050 q 204 1237 158 1168 q 340 1361 250 1306 q 491 1432 407 1403 q 654 1469 575 1461 q 747 1469 711 1475 q 805 1452 783 1464 q 835 1426 826 1440 q 847 1399 844 1411 q 842 1367 851 1382 q 815 1350 833 1353 q 786 1356 800 1347 q 768 1379 772 1364 q 741 1387 763 1382 q 674 1389 719 1392 q 580 1372 629 1385 q 482 1340 531 1360 q 385 1292 429 1319 q 310 1235 342 1265 q 240 1090 240 1165 q 237 995 240 1049 q 228 882 233 942 q 215 758 222 822 q 201 629 208 693 l 190 536 l 294 553 q 512 586 426 574 q 626 599 597 599 q 656 587 644 599 q 668 558 668 575 q 656 528 668 540 q 626 517 644 517 q 579 513 613 517 q 501 502 546 508 q 406 488 457 496 q 308 472 356 479 q 181 451 242 460 l 165 275 q 162 194 163 226 q 163 142 161 163 q 166 110 164 121 q 169 94 168 99 q 215 85 183 90 q 290 74 246 79 q 390 66 335 69 q 506 61 444 63 q 656 63 594 60 q 755 73 717 67 q 812 85 793 79 q 835 96 831 92 q 862 113 846 110 q 892 104 878 115 m 496 1639 q 520 1634 507 1639 q 545 1619 533 1629 q 565 1597 557 1610 q 574 1565 574 1583 q 558 1533 574 1538 q 526 1528 542 1528 q 481 1542 499 1528 q 463 1596 463 1557 q 472 1627 463 1615 q 496 1639 481 1639 m 288 1639 q 312 1634 299 1639 q 337 1619 325 1629 q 357 1597 349 1610 q 365 1565 365 1583 q 349 1533 365 1538 q 318 1528 333 1528 q 272 1542 290 1528 q 254 1596 254 1557 q 263 1627 254 1615 q 288 1639 272 1639 z "},"":{"ha":910,"x_min":79,"x_max":911,"o":"m 892 104 q 908 78 906 94 q 901 47 911 61 q 746 -12 869 4 q 560 -21 668 -21 l 513 -21 q 397 -16 457 -19 q 285 -8 338 -12 q 190 5 232 -3 q 128 22 147 13 q 102 45 113 29 q 86 88 92 61 q 80 156 81 115 q 82 253 79 196 q 97 435 86 335 q 119 639 107 535 q 133 766 126 703 q 146 888 140 829 q 155 999 151 947 q 158 1090 158 1050 q 204 1237 158 1168 q 340 1361 250 1306 q 491 1432 407 1403 q 654 1469 575 1461 q 747 1469 711 1475 q 805 1452 783 1464 q 835 1426 826 1440 q 847 1399 844 1411 q 842 1367 851 1382 q 815 1350 833 1353 q 786 1356 800 1347 q 768 1379 772 1364 q 741 1387 763 1382 q 674 1389 719 1392 q 580 1372 629 1385 q 482 1340 531 1360 q 385 1292 429 1319 q 310 1235 342 1265 q 240 1090 240 1165 q 237 995 240 1049 q 228 882 233 942 q 215 758 222 822 q 201 629 208 693 l 190 536 l 294 553 q 512 586 426 574 q 626 599 597 599 q 656 587 644 599 q 668 558 668 575 q 656 528 668 540 q 626 517 644 517 q 579 513 613 517 q 501 502 546 508 q 406 488 457 496 q 308 472 356 479 q 181 451 242 460 l 165 275 q 162 194 163 226 q 163 142 161 163 q 166 110 164 121 q 169 94 168 99 q 215 85 183 90 q 290 74 246 79 q 390 66 335 69 q 506 61 444 63 q 656 63 594 60 q 755 73 717 67 q 812 85 793 79 q 835 96 831 92 q 862 113 846 110 q 892 104 878 115 m 383 1639 q 408 1634 394 1639 q 433 1619 421 1629 q 453 1597 444 1610 q 461 1565 461 1583 q 445 1533 461 1538 q 414 1528 429 1528 q 368 1542 386 1528 q 350 1596 350 1557 q 359 1627 350 1615 q 383 1639 368 1639 z "},"":{"ha":910,"x_min":79,"x_max":911,"o":"m 892 104 q 908 78 906 94 q 901 47 911 61 q 746 -12 869 4 q 560 -21 668 -21 l 513 -21 q 397 -16 457 -19 q 285 -8 338 -12 q 190 5 232 -3 q 128 22 147 13 q 102 45 113 29 q 86 88 92 61 q 80 156 81 115 q 82 253 79 196 q 97 435 86 335 q 119 639 107 535 q 133 766 126 703 q 146 888 140 829 q 155 999 151 947 q 158 1090 158 1050 q 204 1237 158 1168 q 340 1361 250 1306 q 491 1432 407 1403 q 654 1469 575 1461 q 747 1469 711 1475 q 805 1452 783 1464 q 835 1426 826 1440 q 847 1399 844 1411 q 842 1367 851 1382 q 815 1350 833 1353 q 786 1356 800 1347 q 768 1379 772 1364 q 741 1387 763 1382 q 674 1389 719 1392 q 580 1372 629 1385 q 482 1340 531 1360 q 385 1292 429 1319 q 310 1235 342 1265 q 240 1090 240 1165 q 237 995 240 1049 q 228 882 233 942 q 215 758 222 822 q 201 629 208 693 l 190 536 l 294 553 q 512 586 426 574 q 626 599 597 599 q 656 587 644 599 q 668 558 668 575 q 656 528 668 540 q 626 517 644 517 q 579 513 613 517 q 501 502 546 508 q 406 488 457 496 q 308 472 356 479 q 181 451 242 460 l 165 275 q 162 194 163 226 q 163 142 161 163 q 166 110 164 121 q 169 94 168 99 q 215 85 183 90 q 290 74 246 79 q 390 66 335 69 q 506 61 444 63 q 656 63 594 60 q 755 73 717 67 q 812 85 793 79 q 835 96 831 92 q 862 113 846 110 q 892 104 878 115 m 568 1636 q 563 1605 572 1619 q 538 1586 554 1590 q 454 1574 514 1581 q 328 1567 394 1567 q 314 1567 321 1567 q 300 1568 307 1567 q 270 1581 282 1568 q 260 1610 258 1593 q 273 1638 261 1626 q 303 1650 285 1650 q 368 1650 335 1649 q 431 1654 401 1651 q 484 1660 461 1657 q 518 1667 507 1664 q 549 1662 535 1671 q 568 1636 564 1653 z "},"":{"ha":910,"x_min":79,"x_max":911,"o":"m 892 104 q 908 78 906 94 q 901 47 911 61 q 746 -12 869 4 q 560 -21 668 -21 l 513 -21 q 397 -16 457 -19 q 285 -8 338 -12 q 190 5 232 -3 q 128 22 147 13 q 102 45 113 29 q 86 88 92 61 q 80 156 81 115 q 82 253 79 196 q 97 435 86 335 q 119 639 107 535 q 133 766 126 703 q 146 888 140 829 q 155 999 151 947 q 158 1090 158 1050 q 204 1237 158 1168 q 340 1361 250 1306 q 491 1432 407 1403 q 654 1469 575 1461 q 747 1469 711 1475 q 805 1452 783 1464 q 835 1426 826 1440 q 847 1399 844 1411 q 842 1367 851 1382 q 815 1350 833 1353 q 786 1356 800 1347 q 768 1379 772 1364 q 741 1387 763 1382 q 674 1389 719 1392 q 580 1372 629 1385 q 482 1340 531 1360 q 385 1292 429 1319 q 310 1235 342 1265 q 240 1090 240 1165 q 237 995 240 1049 q 228 882 233 942 q 215 758 222 822 q 201 629 208 693 l 190 536 l 294 553 q 512 586 426 574 q 626 599 597 599 q 656 587 644 599 q 668 558 668 575 q 656 528 668 540 q 626 517 644 517 q 579 513 613 517 q 501 502 546 508 q 406 488 457 496 q 308 472 356 479 q 181 451 242 460 l 165 275 q 162 194 163 226 q 163 142 161 163 q 166 110 164 121 q 169 94 168 99 q 215 85 183 90 q 290 74 246 79 q 390 66 335 69 q 506 61 444 63 q 656 63 594 60 q 755 73 717 67 q 812 85 793 79 q 835 96 831 92 q 862 113 846 110 q 892 104 878 115 m 583 1818 q 581 1674 626 1761 q 543 1617 565 1644 q 494 1568 521 1590 q 435 1533 467 1546 q 372 1519 404 1519 l 365 1519 q 285 1560 318 1522 q 252 1611 264 1582 q 234 1668 240 1640 q 226 1719 228 1696 q 225 1756 225 1743 q 239 1785 226 1774 q 268 1794 251 1796 q 297 1781 286 1793 q 307 1751 308 1769 q 308 1721 307 1739 q 315 1683 310 1703 q 327 1644 319 1663 q 346 1615 335 1626 q 359 1605 353 1607 q 369 1601 365 1603 q 405 1610 386 1601 q 442 1633 424 1618 q 478 1669 461 1649 q 507 1711 496 1689 q 520 1749 519 1735 q 518 1767 521 1763 q 509 1796 507 1779 q 525 1824 511 1813 q 556 1833 539 1835 q 583 1818 572 1831 z "},"":{"ha":861,"x_min":75,"x_max":813,"o":"m 467 424 q 492 458 467 444 q 549 481 517 472 q 614 493 582 489 q 661 497 646 497 q 696 492 681 497 q 725 472 711 488 q 759 425 743 453 q 787 367 775 397 q 806 305 799 336 q 813 249 813 274 q 786 134 813 182 q 716 56 760 86 q 616 12 672 26 q 500 -3 560 -3 q 285 51 368 -3 q 155 190 201 104 q 92 385 108 276 q 75 604 75 493 q 83 759 75 668 q 112 949 92 850 q 165 1144 132 1047 q 246 1317 197 1240 q 360 1442 294 1394 q 513 1490 426 1490 q 635 1463 578 1490 q 733 1385 693 1436 q 752 1358 742 1375 q 772 1324 763 1342 q 788 1287 781 1306 q 794 1254 794 1268 q 786 1226 794 1239 q 761 1213 778 1213 q 728 1231 742 1213 q 708 1264 715 1249 q 633 1369 689 1331 q 508 1407 576 1407 q 388 1361 440 1407 q 296 1243 335 1315 q 231 1081 257 1171 q 188 901 204 990 q 164 733 171 811 q 157 604 157 654 q 168 419 157 513 q 216 251 179 326 q 320 127 253 175 q 500 79 388 79 q 581 87 540 79 q 656 114 622 94 q 710 166 689 133 q 731 247 731 199 q 710 335 731 290 q 667 415 690 381 l 661 415 q 621 410 642 415 q 579 398 600 404 q 540 387 558 392 q 507 382 521 382 q 478 394 490 382 q 467 424 467 407 m 710 1681 q 712 1649 717 1665 q 692 1625 707 1632 q 667 1618 681 1618 q 624 1633 643 1618 q 597 1657 606 1649 q 566 1692 582 1672 q 535 1733 550 1713 l 500 1776 q 479 1731 490 1757 q 461 1688 468 1706 q 436 1627 446 1649 q 418 1594 426 1606 q 386 1579 406 1579 q 360 1589 369 1579 q 344 1617 346 1600 q 354 1646 343 1633 q 368 1676 358 1653 q 385 1718 378 1699 q 438 1834 417 1796 q 492 1875 460 1872 q 542 1853 519 1878 q 600 1783 564 1829 q 636 1738 615 1764 q 669 1701 657 1713 q 710 1681 697 1704 z "},"":{"ha":861,"x_min":75,"x_max":813,"o":"m 467 424 q 492 458 467 444 q 549 481 517 472 q 614 493 582 489 q 661 497 646 497 q 696 492 681 497 q 725 472 711 488 q 759 425 743 453 q 787 367 775 397 q 806 305 799 336 q 813 249 813 274 q 786 134 813 182 q 716 56 760 86 q 616 12 672 26 q 500 -3 560 -3 q 285 51 368 -3 q 155 190 201 104 q 92 385 108 276 q 75 604 75 493 q 83 759 75 668 q 112 949 92 850 q 165 1144 132 1047 q 246 1317 197 1240 q 360 1442 294 1394 q 513 1490 426 1490 q 635 1463 578 1490 q 733 1385 693 1436 q 752 1358 742 1375 q 772 1324 763 1342 q 788 1287 781 1306 q 794 1254 794 1268 q 786 1226 794 1239 q 761 1213 778 1213 q 728 1231 742 1213 q 708 1264 715 1249 q 633 1369 689 1331 q 508 1407 576 1407 q 388 1361 440 1407 q 296 1243 335 1315 q 231 1081 257 1171 q 188 901 204 990 q 164 733 171 811 q 157 604 157 654 q 168 419 157 513 q 216 251 179 326 q 320 127 253 175 q 500 79 388 79 q 581 87 540 79 q 656 114 622 94 q 710 166 689 133 q 731 247 731 199 q 710 335 731 290 q 667 415 690 381 l 661 415 q 621 410 642 415 q 579 398 600 404 q 540 387 558 392 q 507 382 521 382 q 478 394 490 382 q 467 424 467 407 m 479 1699 q 503 1694 490 1699 q 528 1679 517 1689 q 549 1656 540 1669 q 557 1625 557 1643 q 541 1592 557 1597 q 510 1588 525 1588 q 464 1602 482 1588 q 446 1656 446 1617 q 455 1687 446 1675 q 479 1699 464 1699 z "},"":{"ha":861,"x_min":75,"x_max":813,"o":"m 467 424 q 492 458 467 444 q 549 481 517 472 q 614 493 582 489 q 661 497 646 497 q 696 492 681 497 q 725 472 711 488 q 759 425 743 453 q 787 367 775 397 q 806 305 799 336 q 813 249 813 274 q 786 134 813 182 q 716 56 760 86 q 616 12 672 26 q 500 -3 560 -3 q 285 51 368 -3 q 155 190 201 104 q 92 385 108 276 q 75 604 75 493 q 83 759 75 668 q 112 949 92 850 q 165 1144 132 1047 q 246 1317 197 1240 q 360 1442 294 1394 q 513 1490 426 1490 q 635 1463 578 1490 q 733 1385 693 1436 q 752 1358 742 1375 q 772 1324 763 1342 q 788 1287 781 1306 q 794 1254 794 1268 q 786 1226 794 1239 q 761 1213 778 1213 q 728 1231 742 1213 q 708 1264 715 1249 q 633 1369 689 1331 q 508 1407 576 1407 q 388 1361 440 1407 q 296 1243 335 1315 q 231 1081 257 1171 q 188 901 204 990 q 164 733 171 811 q 157 604 157 654 q 168 419 157 513 q 216 251 179 326 q 320 127 253 175 q 500 79 388 79 q 581 87 540 79 q 656 114 622 94 q 710 166 689 133 q 731 247 731 199 q 710 335 731 290 q 667 415 690 381 l 661 415 q 621 410 642 415 q 579 398 600 404 q 540 387 558 392 q 507 382 521 382 q 478 394 490 382 q 467 424 467 407 m 679 1878 q 676 1733 722 1821 q 639 1677 661 1704 q 590 1628 617 1650 q 531 1592 563 1606 q 468 1579 500 1579 l 461 1579 q 381 1619 414 1582 q 348 1671 360 1642 q 330 1728 336 1700 q 322 1779 324 1756 q 321 1815 321 1803 q 335 1844 322 1833 q 364 1854 347 1856 q 393 1841 382 1853 q 403 1811 404 1829 q 404 1781 403 1799 q 410 1742 406 1763 q 423 1704 415 1722 q 442 1675 431 1686 q 455 1665 449 1667 q 465 1661 461 1663 q 501 1669 482 1661 q 538 1693 519 1678 q 574 1728 557 1708 q 603 1771 592 1749 q 616 1808 615 1794 q 614 1826 617 1822 q 605 1856 603 1839 q 621 1883 607 1872 q 651 1892 635 1894 q 679 1878 668 1890 z "},"":{"ha":1160,"x_min":8,"x_max":1161,"o":"m 1092 689 q 1122 699 1104 700 q 1150 683 1139 697 q 1159 653 1161 669 q 1144 625 1157 636 q 1120 610 1136 618 q 1075 590 1104 601 q 1066 401 1071 492 q 1056 235 1061 310 q 1047 109 1051 161 q 1039 38 1042 57 q 1025 12 1036 22 q 999 1 1014 1 l 993 1 q 966 17 976 4 q 958 49 956 31 q 964 115 960 67 q 973 233 968 164 q 983 387 978 301 q 992 565 988 472 l 928 551 q 773 525 858 538 q 589 501 688 513 q 542 497 565 499 q 496 492 519 494 q 495 455 496 472 q 493 419 494 438 q 488 260 489 322 q 487 161 486 197 q 489 109 488 125 q 492 89 490 93 q 494 58 499 74 q 475 36 490 43 q 454 31 465 31 q 434 35 443 31 q 419 51 425 40 q 414 63 417 56 q 409 85 411 71 q 406 122 407 99 q 404 181 404 144 q 406 278 404 222 q 410 408 407 333 l 414 485 q 271 474 339 478 q 149 471 203 471 q 42 479 72 471 q 17 498 25 483 q 13 529 8 513 q 31 554 17 546 q 63 558 46 563 q 107 554 75 556 q 185 554 139 553 q 291 558 232 556 q 418 567 350 561 q 430 784 424 674 q 443 999 436 894 q 451 1145 447 1074 q 459 1275 456 1217 q 464 1374 463 1333 q 465 1431 465 1415 q 475 1460 464 1447 q 504 1474 486 1472 q 533 1464 521 1475 q 547 1435 546 1453 q 547 1378 549 1418 q 542 1281 546 1339 q 535 1149 539 1222 q 525 993 531 1076 l 500 575 l 581 583 q 827 617 724 599 q 994 651 931 635 q 997 701 996 676 q 997 749 997 725 q 999 999 1000 888 q 990 1196 997 1110 q 981 1283 986 1244 q 968 1351 975 1322 q 951 1404 958 1392 q 943 1418 944 1417 q 928 1446 929 1429 q 939 1476 928 1463 q 967 1490 950 1489 q 997 1481 983 1492 q 1017 1456 1007 1472 q 1038 1408 1028 1439 q 1057 1327 1049 1376 q 1072 1201 1065 1278 q 1081 1000 1079 1114 q 1079 747 1082 886 q 1079 714 1079 731 q 1078 681 1079 697 l 1092 689 m 943 1669 q 945 1638 950 1654 q 925 1614 940 1621 q 900 1607 914 1607 q 858 1622 876 1607 q 831 1646 839 1638 q 799 1681 815 1661 q 768 1722 783 1701 l 733 1765 q 713 1720 724 1746 q 694 1676 701 1694 q 669 1616 679 1638 q 651 1583 660 1594 q 619 1568 639 1568 q 593 1578 603 1568 q 578 1606 579 1589 q 588 1635 576 1622 q 601 1665 592 1642 q 618 1707 611 1688 q 672 1823 650 1785 q 725 1864 693 1861 q 775 1842 753 1867 q 833 1772 797 1818 q 869 1727 849 1753 q 903 1690 890 1701 q 943 1669 931 1693 z "},"":{"ha":789,"x_min":15,"x_max":775,"o":"m 750 192 q 770 167 765 183 q 767 135 775 150 q 703 84 750 104 q 572 49 657 64 q 484 37 529 42 q 394 28 439 32 q 389 27 392 28 q 383 26 386 26 l 379 26 l 314 22 q 240 16 274 19 q 192 10 206 13 q 187 9 189 10 q 182 8 185 8 q 156 17 168 8 q 142 40 144 26 q 148 72 139 57 q 172 90 157 86 q 225 98 192 94 q 307 104 258 101 q 319 105 314 104 q 332 106 325 106 q 322 234 324 158 q 322 393 319 310 q 328 559 324 476 q 336 707 332 642 q 352 894 343 797 q 372 1080 361 992 q 393 1241 382 1168 q 415 1357 404 1314 q 331 1344 374 1349 q 210 1336 264 1336 q 25 1400 68 1336 q 19 1431 15 1415 q 36 1457 22 1447 q 67 1464 51 1467 q 93 1446 83 1461 q 104 1436 94 1443 q 139 1424 114 1429 q 207 1419 164 1419 q 321 1426 250 1418 q 442 1446 378 1433 q 576 1476 506 1458 q 583 1478 579 1478 q 615 1473 600 1482 q 633 1449 629 1464 q 628 1417 638 1432 q 603 1399 619 1403 q 597 1397 601 1397 q 496 1372 543 1382 q 497 1346 501 1360 q 477 1249 488 1314 q 456 1097 467 1183 q 436 909 446 1011 q 419 701 426 807 q 407 490 411 589 q 403 311 403 390 q 406 184 403 231 q 414 113 410 138 q 487 119 450 115 q 557 131 524 124 q 630 145 603 138 q 672 159 657 153 q 690 170 686 165 q 694 175 694 175 q 719 194 703 190 q 750 192 735 199 m 343 1594 q 360 1573 356 1586 q 358 1544 365 1560 q 321 1519 347 1519 q 304 1522 315 1519 q 267 1563 281 1532 q 229 1661 253 1594 q 215 1701 225 1675 q 194 1754 206 1726 q 171 1805 183 1782 q 147 1835 158 1828 q 130 1860 133 1844 q 136 1892 126 1876 q 163 1909 146 1906 q 193 1903 179 1913 q 253 1824 228 1879 q 307 1689 279 1768 q 326 1634 315 1663 q 343 1594 336 1606 z "},"":{"ha":789,"x_min":15,"x_max":775,"o":"m 750 192 q 770 167 765 183 q 767 135 775 150 q 703 84 750 104 q 572 49 657 64 q 484 37 529 42 q 394 28 439 32 q 389 27 392 28 q 383 26 386 26 l 379 26 l 314 22 q 240 16 274 19 q 192 10 206 13 q 187 9 189 10 q 182 8 185 8 q 156 17 168 8 q 142 40 144 26 q 148 72 139 57 q 172 90 157 86 q 225 98 192 94 q 307 104 258 101 q 319 105 314 104 q 332 106 325 106 q 322 234 324 158 q 322 393 319 310 q 328 559 324 476 q 336 707 332 642 q 352 894 343 797 q 372 1080 361 992 q 393 1241 382 1168 q 415 1357 404 1314 q 331 1344 374 1349 q 210 1336 264 1336 q 25 1400 68 1336 q 19 1431 15 1415 q 36 1457 22 1447 q 67 1464 51 1467 q 93 1446 83 1461 q 104 1436 94 1443 q 139 1424 114 1429 q 207 1419 164 1419 q 321 1426 250 1418 q 442 1446 378 1433 q 576 1476 506 1458 q 583 1478 579 1478 q 615 1473 600 1482 q 633 1449 629 1464 q 628 1417 638 1432 q 603 1399 619 1403 q 597 1397 601 1397 q 496 1372 543 1382 q 497 1346 501 1360 q 477 1249 488 1314 q 456 1097 467 1183 q 436 909 446 1011 q 419 701 426 807 q 407 490 411 589 q 403 311 403 390 q 406 184 403 231 q 414 113 410 138 q 487 119 450 115 q 557 131 524 124 q 630 145 603 138 q 672 159 657 153 q 690 170 686 165 q 694 175 694 175 q 719 194 703 190 q 750 192 735 199 m 294 1594 q 312 1634 301 1606 q 332 1689 322 1663 q 385 1824 360 1768 q 444 1903 410 1879 q 476 1909 460 1913 q 501 1892 492 1906 q 509 1860 513 1876 q 490 1835 506 1844 q 467 1805 479 1828 q 444 1754 456 1782 q 424 1701 433 1726 q 410 1661 414 1675 q 371 1563 386 1594 q 333 1522 356 1532 q 326 1520 329 1521 q 318 1519 322 1519 q 279 1544 290 1519 q 278 1573 274 1560 q 294 1594 283 1586 z "},"":{"ha":789,"x_min":15,"x_max":775,"o":"m 750 192 q 770 167 765 183 q 767 135 775 150 q 703 84 750 104 q 572 49 657 64 q 484 37 529 42 q 394 28 439 32 q 389 27 392 28 q 383 26 386 26 l 379 26 l 314 22 q 240 16 274 19 q 192 10 206 13 q 187 9 189 10 q 182 8 185 8 q 156 17 168 8 q 142 40 144 26 q 148 72 139 57 q 172 90 157 86 q 225 98 192 94 q 307 104 258 101 q 319 105 314 104 q 332 106 325 106 q 322 234 324 158 q 322 393 319 310 q 328 559 324 476 q 336 707 332 642 q 352 894 343 797 q 372 1080 361 992 q 393 1241 382 1168 q 415 1357 404 1314 q 331 1344 374 1349 q 210 1336 264 1336 q 25 1400 68 1336 q 19 1431 15 1415 q 36 1457 22 1447 q 67 1464 51 1467 q 93 1446 83 1461 q 104 1436 94 1443 q 139 1424 114 1429 q 207 1419 164 1419 q 321 1426 250 1418 q 442 1446 378 1433 q 576 1476 506 1458 q 583 1478 579 1478 q 615 1473 600 1482 q 633 1449 629 1464 q 628 1417 638 1432 q 603 1399 619 1403 q 597 1397 601 1397 q 496 1372 543 1382 q 497 1346 501 1360 q 477 1249 488 1314 q 456 1097 467 1183 q 436 909 446 1011 q 419 701 426 807 q 407 490 411 589 q 403 311 403 390 q 406 184 403 231 q 414 113 410 138 q 487 119 450 115 q 557 131 524 124 q 630 145 603 138 q 672 159 657 153 q 690 170 686 165 q 694 175 694 175 q 719 194 703 190 q 750 192 735 199 m 521 1621 q 523 1589 528 1606 q 503 1565 518 1572 q 478 1558 492 1558 q 435 1574 454 1558 q 408 1597 417 1589 q 377 1633 393 1613 q 346 1674 361 1653 l 311 1717 q 290 1672 301 1697 q 272 1628 279 1646 q 247 1567 257 1589 q 229 1535 238 1546 q 197 1519 217 1519 q 171 1529 181 1519 q 156 1557 157 1540 q 165 1586 154 1574 q 179 1616 169 1593 q 196 1658 189 1639 q 249 1774 228 1736 q 303 1815 271 1813 q 353 1794 331 1818 q 411 1724 375 1769 q 447 1678 426 1704 q 481 1642 468 1653 q 521 1621 508 1644 z "},"":{"ha":789,"x_min":15,"x_max":775,"o":"m 750 192 q 770 167 765 183 q 767 135 775 150 q 703 84 750 104 q 572 49 657 64 q 484 37 529 42 q 394 28 439 32 q 389 27 392 28 q 383 26 386 26 l 379 26 l 314 22 q 240 16 274 19 q 192 10 206 13 q 187 9 189 10 q 182 8 185 8 q 156 17 168 8 q 142 40 144 26 q 148 72 139 57 q 172 90 157 86 q 225 98 192 94 q 307 104 258 101 q 319 105 314 104 q 332 106 325 106 q 322 234 324 158 q 322 393 319 310 q 328 559 324 476 q 336 707 332 642 q 352 894 343 797 q 372 1080 361 992 q 393 1241 382 1168 q 415 1357 404 1314 q 331 1344 374 1349 q 210 1336 264 1336 q 25 1400 68 1336 q 19 1431 15 1415 q 36 1457 22 1447 q 67 1464 51 1467 q 93 1446 83 1461 q 104 1436 94 1443 q 139 1424 114 1429 q 207 1419 164 1419 q 321 1426 250 1418 q 442 1446 378 1433 q 576 1476 506 1458 q 583 1478 579 1478 q 615 1473 600 1482 q 633 1449 629 1464 q 628 1417 638 1432 q 603 1399 619 1403 q 597 1397 601 1397 q 496 1372 543 1382 q 497 1346 501 1360 q 477 1249 488 1314 q 456 1097 467 1183 q 436 909 446 1011 q 419 701 426 807 q 407 490 411 589 q 403 311 403 390 q 406 184 403 231 q 414 113 410 138 q 487 119 450 115 q 557 131 524 124 q 630 145 603 138 q 672 159 657 153 q 690 170 686 165 q 694 175 694 175 q 719 194 703 190 q 750 192 735 199 m 403 1639 q 427 1634 414 1639 q 452 1619 440 1629 q 472 1597 464 1610 q 481 1565 481 1583 q 465 1533 481 1538 q 433 1528 449 1528 q 388 1542 406 1528 q 369 1596 369 1557 q 378 1627 369 1615 q 403 1639 388 1639 m 194 1639 q 219 1634 206 1639 q 244 1619 232 1629 q 264 1597 256 1610 q 272 1565 272 1583 q 256 1533 272 1538 q 225 1528 240 1528 q 179 1542 197 1528 q 161 1596 161 1557 q 170 1627 161 1615 q 194 1639 179 1639 z "},"":{"ha":789,"x_min":15,"x_max":775,"o":"m 750 192 q 770 167 765 183 q 767 135 775 150 q 703 84 750 104 q 572 49 657 64 q 484 37 529 42 q 394 28 439 32 q 389 27 392 28 q 383 26 386 26 l 379 26 l 314 22 q 240 16 274 19 q 192 10 206 13 q 187 9 189 10 q 182 8 185 8 q 156 17 168 8 q 142 40 144 26 q 148 72 139 57 q 172 90 157 86 q 225 98 192 94 q 307 104 258 101 q 319 105 314 104 q 332 106 325 106 q 322 234 324 158 q 322 393 319 310 q 328 559 324 476 q 336 707 332 642 q 352 894 343 797 q 372 1080 361 992 q 393 1241 382 1168 q 415 1357 404 1314 q 331 1344 374 1349 q 210 1336 264 1336 q 25 1400 68 1336 q 19 1431 15 1415 q 36 1457 22 1447 q 67 1464 51 1467 q 93 1446 83 1461 q 104 1436 94 1443 q 139 1424 114 1429 q 207 1419 164 1419 q 321 1426 250 1418 q 442 1446 378 1433 q 576 1476 506 1458 q 583 1478 579 1478 q 615 1473 600 1482 q 633 1449 629 1464 q 628 1417 638 1432 q 603 1399 619 1403 q 597 1397 601 1397 q 496 1372 543 1382 q 497 1346 501 1360 q 477 1249 488 1314 q 456 1097 467 1183 q 436 909 446 1011 q 419 701 426 807 q 407 490 411 589 q 403 311 403 390 q 406 184 403 231 q 414 113 410 138 q 487 119 450 115 q 557 131 524 124 q 630 145 603 138 q 672 159 657 153 q 690 170 686 165 q 694 175 694 175 q 719 194 703 190 q 750 192 735 199 m 290 1639 q 315 1634 301 1639 q 340 1619 328 1629 q 360 1597 351 1610 q 368 1565 368 1583 q 352 1533 368 1538 q 321 1528 336 1528 q 275 1542 293 1528 q 257 1596 257 1557 q 266 1627 257 1615 q 290 1639 275 1639 z "},"":{"ha":789,"x_min":15,"x_max":775,"o":"m 750 192 q 770 167 765 183 q 767 135 775 150 q 703 84 750 104 q 572 49 657 64 q 484 37 529 42 q 394 28 439 32 q 389 27 392 28 q 383 26 386 26 l 379 26 l 314 22 q 240 16 274 19 q 192 10 206 13 q 187 9 189 10 q 182 8 185 8 q 156 17 168 8 q 142 40 144 26 q 148 72 139 57 q 172 90 157 86 q 225 98 192 94 q 307 104 258 101 q 319 105 314 104 q 332 106 325 106 q 322 234 324 158 q 322 393 319 310 q 328 559 324 476 q 336 707 332 642 q 352 894 343 797 q 372 1080 361 992 q 393 1241 382 1168 q 415 1357 404 1314 q 331 1344 374 1349 q 210 1336 264 1336 q 25 1400 68 1336 q 19 1431 15 1415 q 36 1457 22 1447 q 67 1464 51 1467 q 93 1446 83 1461 q 104 1436 94 1443 q 139 1424 114 1429 q 207 1419 164 1419 q 321 1426 250 1418 q 442 1446 378 1433 q 576 1476 506 1458 q 583 1478 579 1478 q 615 1473 600 1482 q 633 1449 629 1464 q 628 1417 638 1432 q 603 1399 619 1403 q 597 1397 601 1397 q 496 1372 543 1382 q 497 1346 501 1360 q 477 1249 488 1314 q 456 1097 467 1183 q 436 909 446 1011 q 419 701 426 807 q 407 490 411 589 q 403 311 403 390 q 406 184 403 231 q 414 113 410 138 q 487 119 450 115 q 557 131 524 124 q 630 145 603 138 q 672 159 657 153 q 690 170 686 165 q 694 175 694 175 q 719 194 703 190 q 750 192 735 199 m 475 1636 q 470 1605 479 1619 q 444 1586 461 1590 q 361 1574 421 1581 q 235 1567 301 1567 q 221 1567 228 1567 q 207 1568 214 1567 q 177 1581 189 1568 q 167 1610 165 1593 q 180 1638 168 1626 q 210 1650 192 1650 q 275 1650 242 1649 q 338 1654 308 1651 q 391 1660 368 1657 q 425 1667 414 1664 q 456 1662 442 1671 q 475 1636 471 1653 z "},"":{"ha":789,"x_min":15,"x_max":775,"o":"m 750 192 q 770 167 765 183 q 767 135 775 150 q 703 84 750 104 q 572 49 657 64 q 484 37 529 42 q 394 28 439 32 q 389 27 392 28 q 383 26 386 26 l 379 26 l 314 22 q 240 16 274 19 q 192 10 206 13 q 187 9 189 10 q 182 8 185 8 q 156 17 168 8 q 142 40 144 26 q 148 72 139 57 q 172 90 157 86 q 225 98 192 94 q 307 104 258 101 q 319 105 314 104 q 332 106 325 106 q 322 234 324 158 q 322 393 319 310 q 328 559 324 476 q 336 707 332 642 q 352 894 343 797 q 372 1080 361 992 q 393 1241 382 1168 q 415 1357 404 1314 q 331 1344 374 1349 q 210 1336 264 1336 q 25 1400 68 1336 q 19 1431 15 1415 q 36 1457 22 1447 q 67 1464 51 1467 q 93 1446 83 1461 q 104 1436 94 1443 q 139 1424 114 1429 q 207 1419 164 1419 q 321 1426 250 1418 q 442 1446 378 1433 q 576 1476 506 1458 q 583 1478 579 1478 q 615 1473 600 1482 q 633 1449 629 1464 q 628 1417 638 1432 q 603 1399 619 1403 q 597 1397 601 1397 q 496 1372 543 1382 q 497 1346 501 1360 q 477 1249 488 1314 q 456 1097 467 1183 q 436 909 446 1011 q 419 701 426 807 q 407 490 411 589 q 403 311 403 390 q 406 184 403 231 q 414 113 410 138 q 487 119 450 115 q 557 131 524 124 q 630 145 603 138 q 672 159 657 153 q 690 170 686 165 q 694 175 694 175 q 719 194 703 190 q 750 192 735 199 m 531 1785 q 537 1763 535 1776 q 540 1734 539 1749 q 540 1708 540 1719 q 539 1696 539 1697 q 533 1635 539 1668 q 511 1574 526 1601 q 470 1531 493 1542 q 429 1519 447 1521 l 422 1519 q 373 1528 396 1519 q 330 1552 350 1538 q 292 1583 310 1567 q 260 1615 274 1600 q 245 1630 253 1622 q 232 1642 238 1638 q 213 1625 225 1639 q 183 1557 192 1599 q 165 1531 179 1540 q 135 1525 151 1522 q 108 1543 118 1529 q 103 1574 99 1557 q 154 1683 117 1640 q 236 1726 192 1726 q 277 1712 260 1726 q 318 1674 294 1697 q 369 1625 342 1650 q 425 1601 397 1600 q 438 1610 431 1601 q 451 1643 446 1622 q 457 1685 456 1664 q 457 1726 458 1707 q 454 1751 456 1744 q 454 1781 449 1767 q 475 1803 460 1796 q 506 1806 490 1811 q 531 1785 522 1800 z "},"":{"ha":789,"x_min":15,"x_max":775,"o":"m 750 192 q 770 167 765 183 q 767 135 775 150 q 703 84 750 104 q 572 49 657 64 q 484 37 529 42 q 394 28 439 32 q 389 27 392 28 q 383 26 386 26 l 379 26 l 314 22 q 240 16 274 19 q 192 10 206 13 q 187 9 189 10 q 182 8 185 8 q 156 17 168 8 q 142 40 144 26 q 148 72 139 57 q 172 90 157 86 q 225 98 192 94 q 307 104 258 101 q 319 105 314 104 q 332 106 325 106 q 322 234 324 158 q 322 393 319 310 q 328 559 324 476 q 336 707 332 642 q 352 894 343 797 q 372 1080 361 992 q 393 1241 382 1168 q 415 1357 404 1314 q 331 1344 374 1349 q 210 1336 264 1336 q 25 1400 68 1336 q 19 1431 15 1415 q 36 1457 22 1447 q 67 1464 51 1467 q 93 1446 83 1461 q 104 1436 94 1443 q 139 1424 114 1429 q 207 1419 164 1419 q 321 1426 250 1418 q 442 1446 378 1433 q 576 1476 506 1458 q 583 1478 579 1478 q 615 1473 600 1482 q 633 1449 629 1464 q 628 1417 638 1432 q 603 1399 619 1403 q 597 1397 601 1397 q 496 1372 543 1382 q 497 1346 501 1360 q 477 1249 488 1314 q 456 1097 467 1183 q 436 909 446 1011 q 419 701 426 807 q 407 490 411 589 q 403 311 403 390 q 406 184 403 231 q 414 113 410 138 q 487 119 450 115 q 557 131 524 124 q 630 145 603 138 q 672 159 657 153 q 690 170 686 165 q 694 175 694 175 q 719 194 703 190 q 750 192 735 199 m 490 1818 q 488 1674 533 1761 q 450 1617 472 1644 q 401 1568 428 1590 q 342 1533 374 1546 q 279 1519 311 1519 l 272 1519 q 192 1560 225 1522 q 159 1611 171 1582 q 141 1668 147 1640 q 133 1719 135 1696 q 132 1756 132 1743 q 146 1785 133 1774 q 175 1794 158 1796 q 204 1781 193 1793 q 214 1751 215 1769 q 215 1721 214 1739 q 222 1683 217 1703 q 234 1644 226 1663 q 253 1615 242 1626 q 266 1605 260 1607 q 276 1601 272 1603 q 312 1610 293 1601 q 349 1633 331 1618 q 385 1669 368 1649 q 414 1711 403 1689 q 427 1749 426 1735 q 425 1767 428 1763 q 416 1796 414 1779 q 432 1824 418 1813 q 463 1833 446 1835 q 490 1818 479 1831 z "},"":{"ha":975,"x_min":3,"x_max":1079,"o":"m 1039 1418 q 1067 1406 1056 1418 q 1079 1376 1079 1393 q 1067 1347 1079 1360 q 1039 1335 1056 1335 q 994 1328 1026 1335 q 917 1312 961 1322 q 819 1288 872 1301 q 714 1261 767 1275 l 615 1236 q 704 1110 667 1175 q 768 980 742 1044 q 810 854 794 915 q 836 742 826 793 q 854 453 861 601 q 842 324 851 386 q 815 206 832 261 q 740 47 786 106 q 638 -22 694 -11 q 623 -25 631 -25 q 608 -25 615 -25 q 429 75 522 -25 q 369 149 392 115 q 344 186 346 183 q 340 217 336 201 q 358 243 343 233 q 390 247 374 251 q 415 228 407 243 q 436 196 424 211 q 460 165 446 182 q 490 131 474 147 q 621 58 567 47 q 683 110 653 65 q 736 229 714 156 q 764 367 754 290 q 772 531 774 444 q 757 708 771 617 q 713 888 743 799 q 637 1060 683 978 q 525 1214 590 1143 q 261 1153 374 1176 q 82 1131 149 1131 q 38 1135 56 1131 q 12 1153 21 1139 q 7 1183 3 1167 q 24 1209 10 1200 q 56 1215 39 1218 q 78 1213 63 1214 q 122 1215 93 1213 q 194 1225 150 1218 q 304 1246 239 1232 q 407 1269 353 1257 q 517 1296 461 1282 q 539 1301 526 1301 l 693 1340 q 922 1398 838 1378 q 1039 1418 1007 1418 m 743 1549 q 745 1517 750 1533 q 725 1493 740 1500 q 700 1486 714 1486 q 658 1501 676 1486 q 631 1525 639 1517 q 599 1560 615 1540 q 568 1601 583 1581 l 533 1644 q 513 1599 524 1625 q 494 1556 501 1574 q 469 1495 479 1517 q 451 1463 460 1474 q 419 1447 439 1447 q 393 1457 403 1447 q 378 1485 379 1468 q 388 1514 376 1501 q 401 1544 392 1521 q 418 1586 411 1567 q 472 1702 450 1664 q 525 1743 493 1740 q 575 1722 553 1746 q 633 1651 597 1697 q 669 1606 649 1632 q 703 1569 690 1581 q 743 1549 731 1572 z "},"":{"ha":1017,"x_min":58,"x_max":1024,"o":"m 960 275 q 991 279 975 283 q 1015 260 1007 275 q 1019 228 1024 244 q 1000 203 1015 211 l 947 169 q 828 97 896 136 q 681 35 761 57 q 561 18 618 18 q 324 100 433 18 q 247 192 279 133 q 194 326 215 250 q 159 491 172 401 q 138 676 146 581 q 124 869 129 771 q 117 1058 119 967 q 112 1193 114 1129 q 106 1306 110 1257 q 99 1362 103 1340 q 92 1397 96 1383 q 87 1415 89 1410 q 85 1421 85 1419 q 74 1451 74 1433 q 86 1479 75 1468 q 116 1490 99 1490 q 144 1478 133 1489 q 171 1424 161 1460 q 186 1319 181 1388 q 194 1202 192 1267 q 200 1061 197 1138 q 211 790 204 931 q 238 519 218 649 q 374 165 279 236 q 520 103 446 111 q 663 116 594 96 q 793 172 732 136 q 901 238 854 207 q 960 275 935 260 m 79 1654 q 97 1694 86 1665 q 117 1749 107 1722 q 169 1883 144 1828 q 229 1963 194 1939 q 260 1969 244 1972 q 286 1951 276 1965 q 294 1920 297 1936 q 275 1894 290 1904 q 252 1865 264 1888 q 229 1814 240 1842 q 208 1760 218 1786 q 194 1721 199 1735 q 156 1623 171 1654 q 118 1582 140 1592 q 110 1580 114 1581 q 103 1579 107 1579 q 64 1604 75 1579 q 63 1633 58 1619 q 79 1654 68 1646 z "},"":{"ha":1024,"x_min":65,"x_max":958,"o":"m 926 1357 q 950 1337 942 1351 q 954 1306 958 1322 q 934 1281 949 1289 q 903 1278 919 1272 q 888 1280 892 1281 q 881 1276 883 1279 q 872 1265 878 1274 q 863 1235 867 1256 q 856 1181 858 1215 q 857 1093 854 1146 q 872 920 860 1014 q 897 731 883 826 q 924 527 911 628 q 939 344 936 426 q 928 203 940 257 q 853 113 907 126 q 721 179 786 93 q 676 252 699 208 q 626 356 653 296 q 581 471 604 410 q 537 597 558 532 q 494 729 515 663 q 453 858 472 796 q 404 1013 428 939 q 360 1146 381 1086 q 334 1209 344 1185 q 317 1249 324 1233 l 313 1232 q 296 1113 301 1185 q 283 951 289 1040 q 271 765 276 863 q 255 510 264 636 q 232 275 246 383 q 191 68 215 138 q 129 -21 167 -1 q 110 -25 118 -25 q 74 -3 83 -25 q 70 28 65 13 q 90 51 75 44 q 98 61 92 53 q 113 94 104 69 q 131 166 121 119 q 151 292 142 213 q 173 520 164 396 q 189 771 182 644 q 202 980 196 881 q 218 1157 208 1079 q 228 1231 222 1200 q 240 1285 233 1263 q 260 1329 249 1315 q 288 1353 274 1349 q 313 1358 303 1358 q 354 1338 338 1357 q 382 1300 371 1319 q 403 1257 393 1282 q 428 1197 414 1232 q 478 1054 451 1135 q 532 883 504 974 q 572 755 551 821 q 615 625 593 689 q 658 500 636 561 q 703 388 681 439 q 747 293 726 333 q 788 228 768 253 q 817 197 806 204 q 831 192 828 190 q 835 195 831 192 q 845 214 840 199 q 853 260 850 229 q 856 343 857 290 q 842 519 853 421 q 815 719 831 618 q 790 913 801 817 q 775 1089 778 1008 q 783 1251 769 1192 q 828 1339 796 1311 q 866 1360 842 1351 q 926 1357 890 1368 m 600 1536 q 617 1576 607 1547 q 638 1631 628 1604 q 690 1765 665 1710 q 750 1844 715 1821 q 781 1851 765 1854 q 807 1833 797 1847 q 815 1802 818 1818 q 796 1776 811 1786 q 773 1747 785 1769 q 750 1696 761 1724 q 729 1642 739 1668 q 715 1603 719 1617 q 676 1505 692 1536 q 639 1464 661 1474 q 631 1462 635 1463 q 624 1461 628 1461 q 585 1486 596 1461 q 584 1515 579 1501 q 600 1536 589 1528 z "},"":{"ha":1024,"x_min":65,"x_max":958,"o":"m 926 1357 q 950 1337 942 1351 q 954 1306 958 1322 q 934 1281 949 1289 q 903 1278 919 1272 q 888 1280 892 1281 q 881 1276 883 1279 q 872 1265 878 1274 q 863 1235 867 1256 q 856 1181 858 1215 q 857 1093 854 1146 q 872 920 860 1014 q 897 731 883 826 q 924 527 911 628 q 939 344 936 426 q 928 203 940 257 q 853 113 907 126 q 721 179 786 93 q 676 252 699 208 q 626 356 653 296 q 581 471 604 410 q 537 597 558 532 q 494 729 515 663 q 453 858 472 796 q 404 1013 428 939 q 360 1146 381 1086 q 334 1209 344 1185 q 317 1249 324 1233 l 313 1232 q 296 1113 301 1185 q 283 951 289 1040 q 271 765 276 863 q 255 510 264 636 q 232 275 246 383 q 191 68 215 138 q 129 -21 167 -1 q 110 -25 118 -25 q 74 -3 83 -25 q 70 28 65 13 q 90 51 75 44 q 98 61 92 53 q 113 94 104 69 q 131 166 121 119 q 151 292 142 213 q 173 520 164 396 q 189 771 182 644 q 202 980 196 881 q 218 1157 208 1079 q 228 1231 222 1200 q 240 1285 233 1263 q 260 1329 249 1315 q 288 1353 274 1349 q 313 1358 303 1358 q 354 1338 338 1357 q 382 1300 371 1319 q 403 1257 393 1282 q 428 1197 414 1232 q 478 1054 451 1135 q 532 883 504 974 q 572 755 551 821 q 615 625 593 689 q 658 500 636 561 q 703 388 681 439 q 747 293 726 333 q 788 228 768 253 q 817 197 806 204 q 831 192 828 190 q 835 195 831 192 q 845 214 840 199 q 853 260 850 229 q 856 343 857 290 q 842 519 853 421 q 815 719 831 618 q 790 913 801 817 q 775 1089 778 1008 q 783 1251 769 1192 q 828 1339 796 1311 q 866 1360 842 1351 q 926 1357 890 1368 m 756 1736 q 740 1699 760 1715 q 722 1653 733 1686 q 703 1596 711 1621 q 682 1536 690 1560 q 667 1498 674 1513 q 653 1476 660 1483 q 638 1465 646 1469 q 619 1461 629 1461 q 581 1476 601 1461 q 528 1519 560 1492 q 477 1568 504 1542 q 429 1615 450 1594 q 408 1635 418 1626 q 392 1650 399 1644 q 379 1678 379 1661 q 390 1708 379 1696 q 419 1722 401 1721 q 449 1711 436 1722 l 486 1674 q 511 1649 496 1663 q 542 1619 526 1635 q 575 1588 558 1603 q 604 1563 592 1574 l 625 1622 q 640 1666 632 1644 q 654 1707 647 1688 q 676 1751 665 1733 q 710 1772 688 1769 q 740 1765 726 1775 q 756 1736 753 1754 z "},"":{"ha":1024,"x_min":65,"x_max":958,"o":"m 926 1357 q 950 1337 942 1351 q 954 1306 958 1322 q 934 1281 949 1289 q 903 1278 919 1272 q 888 1280 892 1281 q 881 1276 883 1279 q 872 1265 878 1274 q 863 1235 867 1256 q 856 1181 858 1215 q 857 1093 854 1146 q 872 920 860 1014 q 897 731 883 826 q 924 527 911 628 q 939 344 936 426 q 928 203 940 257 q 853 113 907 126 q 721 179 786 93 q 676 252 699 208 q 626 356 653 296 q 581 471 604 410 q 537 597 558 532 q 494 729 515 663 q 453 858 472 796 q 404 1013 428 939 q 360 1146 381 1086 q 334 1209 344 1185 q 317 1249 324 1233 l 313 1232 q 296 1113 301 1185 q 283 951 289 1040 q 271 765 276 863 q 255 510 264 636 q 232 275 246 383 q 191 68 215 138 q 129 -21 167 -1 q 110 -25 118 -25 q 74 -3 83 -25 q 70 28 65 13 q 90 51 75 44 q 98 61 92 53 q 113 94 104 69 q 131 166 121 119 q 151 292 142 213 q 173 520 164 396 q 189 771 182 644 q 202 980 196 881 q 218 1157 208 1079 q 228 1231 222 1200 q 240 1285 233 1263 q 260 1329 249 1315 q 288 1353 274 1349 q 313 1358 303 1358 q 354 1338 338 1357 q 382 1300 371 1319 q 403 1257 393 1282 q 428 1197 414 1232 q 478 1054 451 1135 q 532 883 504 974 q 572 755 551 821 q 615 625 593 689 q 658 500 636 561 q 703 388 681 439 q 747 293 726 333 q 788 228 768 253 q 817 197 806 204 q 831 192 828 190 q 835 195 831 192 q 845 214 840 199 q 853 260 850 229 q 856 343 857 290 q 842 519 853 421 q 815 719 831 618 q 790 913 801 817 q 775 1089 778 1008 q 783 1251 769 1192 q 828 1339 796 1311 q 866 1360 842 1351 q 926 1357 890 1368 m 836 1726 q 842 1704 840 1718 q 845 1676 844 1690 q 845 1650 846 1661 q 844 1638 844 1639 q 838 1576 844 1610 q 817 1515 832 1543 q 776 1473 799 1483 q 735 1461 753 1463 l 728 1461 q 678 1470 701 1461 q 635 1494 656 1479 q 597 1525 615 1508 q 565 1557 579 1542 q 551 1572 558 1564 q 538 1583 543 1579 q 518 1567 531 1581 q 489 1499 497 1540 q 471 1473 485 1482 q 440 1467 457 1464 q 414 1485 424 1471 q 408 1515 404 1499 q 460 1625 422 1582 q 542 1668 497 1668 q 583 1653 565 1668 q 624 1615 600 1639 q 675 1567 647 1592 q 731 1543 703 1542 q 743 1551 736 1543 q 756 1585 751 1564 q 763 1627 761 1606 q 763 1667 764 1649 q 760 1693 761 1686 q 760 1723 754 1708 q 781 1744 765 1738 q 812 1747 796 1753 q 836 1726 828 1742 z "},"":{"ha":819,"x_min":60,"x_max":760,"o":"m 553 1343 q 597 1330 574 1339 q 642 1303 619 1321 q 687 1256 665 1285 q 724 1186 708 1228 q 752 1058 744 1131 q 754 897 760 985 q 737 751 750 826 q 703 602 724 676 q 655 456 682 528 q 596 318 628 383 q 446 99 526 179 q 251 1 351 6 l 244 1 q 113 75 161 1 q 65 243 74 136 q 65 399 60 313 q 89 590 71 486 q 127 777 104 681 q 179 971 150 874 q 233 1141 206 1061 q 289 1283 261 1221 q 326 1359 310 1329 q 358 1406 343 1389 q 384 1431 372 1424 q 408 1439 396 1438 q 492 1419 456 1446 q 542 1343 528 1393 l 553 1343 m 672 903 q 671 1046 678 982 q 647 1157 664 1110 q 544 1261 614 1246 l 542 1250 q 485 1175 526 1192 q 453 1175 468 1168 q 431 1199 438 1182 q 431 1229 424 1214 q 453 1251 438 1244 q 458 1258 456 1253 q 464 1278 461 1264 q 465 1305 467 1290 q 458 1331 464 1319 q 442 1354 451 1350 q 425 1358 432 1358 q 395 1312 417 1349 q 342 1196 374 1275 q 283 1031 313 1121 q 229 844 254 940 q 179 624 199 729 q 151 431 160 519 q 147 272 143 342 q 165 157 150 203 q 205 95 182 107 q 249 85 228 83 q 387 158 315 88 q 522 356 458 228 q 578 485 553 417 q 624 624 604 553 q 656 765 643 694 q 672 903 668 836 m 507 1594 q 524 1573 519 1586 q 522 1544 529 1560 q 485 1519 511 1519 q 468 1522 479 1519 q 431 1563 444 1532 q 393 1661 417 1594 q 379 1701 389 1675 q 358 1754 369 1726 q 335 1805 347 1782 q 311 1835 322 1828 q 294 1860 297 1844 q 300 1892 290 1876 q 326 1909 310 1906 q 357 1903 343 1913 q 417 1824 392 1879 q 471 1689 443 1768 q 490 1634 479 1663 q 507 1594 500 1606 z "},"":{"ha":819,"x_min":60,"x_max":760,"o":"m 553 1343 q 597 1330 574 1339 q 642 1303 619 1321 q 687 1256 665 1285 q 724 1186 708 1228 q 752 1058 744 1131 q 754 897 760 985 q 737 751 750 826 q 703 602 724 676 q 655 456 682 528 q 596 318 628 383 q 446 99 526 179 q 251 1 351 6 l 244 1 q 113 75 161 1 q 65 243 74 136 q 65 399 60 313 q 89 590 71 486 q 127 777 104 681 q 179 971 150 874 q 233 1141 206 1061 q 289 1283 261 1221 q 326 1359 310 1329 q 358 1406 343 1389 q 384 1431 372 1424 q 408 1439 396 1438 q 492 1419 456 1446 q 542 1343 528 1393 l 553 1343 m 672 903 q 671 1046 678 982 q 647 1157 664 1110 q 544 1261 614 1246 l 542 1250 q 485 1175 526 1192 q 453 1175 468 1168 q 431 1199 438 1182 q 431 1229 424 1214 q 453 1251 438 1244 q 458 1258 456 1253 q 464 1278 461 1264 q 465 1305 467 1290 q 458 1331 464 1319 q 442 1354 451 1350 q 425 1358 432 1358 q 395 1312 417 1349 q 342 1196 374 1275 q 283 1031 313 1121 q 229 844 254 940 q 179 624 199 729 q 151 431 160 519 q 147 272 143 342 q 165 157 150 203 q 205 95 182 107 q 249 85 228 83 q 387 158 315 88 q 522 356 458 228 q 578 485 553 417 q 624 624 604 553 q 656 765 643 694 q 672 903 668 836 m 458 1594 q 476 1634 465 1606 q 496 1689 486 1663 q 549 1824 524 1768 q 608 1903 574 1879 q 640 1909 624 1913 q 665 1892 656 1906 q 673 1860 676 1876 q 654 1835 669 1844 q 631 1805 643 1828 q 608 1754 619 1782 q 588 1701 597 1726 q 574 1661 578 1675 q 535 1563 550 1594 q 497 1522 519 1532 q 490 1520 493 1521 q 482 1519 486 1519 q 443 1544 454 1519 q 442 1573 438 1560 q 458 1594 447 1586 z "},"":{"ha":819,"x_min":60,"x_max":760,"o":"m 553 1343 q 597 1330 574 1339 q 642 1303 619 1321 q 687 1256 665 1285 q 724 1186 708 1228 q 752 1058 744 1131 q 754 897 760 985 q 737 751 750 826 q 703 602 724 676 q 655 456 682 528 q 596 318 628 383 q 446 99 526 179 q 251 1 351 6 l 244 1 q 113 75 161 1 q 65 243 74 136 q 65 399 60 313 q 89 590 71 486 q 127 777 104 681 q 179 971 150 874 q 233 1141 206 1061 q 289 1283 261 1221 q 326 1359 310 1329 q 358 1406 343 1389 q 384 1431 372 1424 q 408 1439 396 1438 q 492 1419 456 1446 q 542 1343 528 1393 l 553 1343 m 672 903 q 671 1046 678 982 q 647 1157 664 1110 q 544 1261 614 1246 l 542 1250 q 485 1175 526 1192 q 453 1175 468 1168 q 431 1199 438 1182 q 431 1229 424 1214 q 453 1251 438 1244 q 458 1258 456 1253 q 464 1278 461 1264 q 465 1305 467 1290 q 458 1331 464 1319 q 442 1354 451 1350 q 425 1358 432 1358 q 395 1312 417 1349 q 342 1196 374 1275 q 283 1031 313 1121 q 229 844 254 940 q 179 624 199 729 q 151 431 160 519 q 147 272 143 342 q 165 157 150 203 q 205 95 182 107 q 249 85 228 83 q 387 158 315 88 q 522 356 458 228 q 578 485 553 417 q 624 624 604 553 q 656 765 643 694 q 672 903 668 836 m 599 1954 q 622 1932 615 1947 q 624 1901 629 1917 q 619 1874 621 1894 q 615 1828 617 1854 q 613 1774 614 1801 q 610 1724 611 1746 q 607 1668 608 1694 q 604 1621 606 1642 q 597 1570 601 1589 q 575 1542 592 1551 q 556 1536 568 1536 q 519 1557 529 1536 q 518 1596 510 1575 q 521 1617 519 1603 q 524 1651 522 1632 q 526 1690 525 1669 q 528 1728 526 1710 q 535 1859 531 1808 q 546 1929 539 1910 q 568 1953 553 1946 q 599 1954 583 1961 m 453 1949 q 477 1928 469 1943 q 478 1896 485 1913 q 469 1850 474 1883 q 463 1777 465 1817 q 458 1698 460 1738 q 454 1633 456 1658 q 451 1585 451 1597 q 450 1567 451 1572 q 436 1542 447 1551 q 410 1533 425 1533 q 401 1535 404 1533 q 375 1551 385 1538 q 368 1582 365 1565 q 370 1602 369 1586 q 372 1638 371 1618 q 376 1730 374 1685 q 383 1813 379 1775 q 390 1879 386 1850 q 400 1925 394 1908 q 422 1948 407 1940 q 453 1949 438 1956 z "},"":{"ha":819,"x_min":60,"x_max":760,"o":"m 553 1343 q 597 1330 574 1339 q 642 1303 619 1321 q 687 1256 665 1285 q 724 1186 708 1228 q 752 1058 744 1131 q 754 897 760 985 q 737 751 750 826 q 703 602 724 676 q 655 456 682 528 q 596 318 628 383 q 446 99 526 179 q 251 1 351 6 l 244 1 q 113 75 161 1 q 65 243 74 136 q 65 399 60 313 q 89 590 71 486 q 127 777 104 681 q 179 971 150 874 q 233 1141 206 1061 q 289 1283 261 1221 q 326 1359 310 1329 q 358 1406 343 1389 q 384 1431 372 1424 q 408 1439 396 1438 q 492 1419 456 1446 q 542 1343 528 1393 l 553 1343 m 672 903 q 671 1046 678 982 q 647 1157 664 1110 q 544 1261 614 1246 l 542 1250 q 485 1175 526 1192 q 453 1175 468 1168 q 431 1199 438 1182 q 431 1229 424 1214 q 453 1251 438 1244 q 458 1258 456 1253 q 464 1278 461 1264 q 465 1305 467 1290 q 458 1331 464 1319 q 442 1354 451 1350 q 425 1358 432 1358 q 395 1312 417 1349 q 342 1196 374 1275 q 283 1031 313 1121 q 229 844 254 940 q 179 624 199 729 q 151 431 160 519 q 147 272 143 342 q 165 157 150 203 q 205 95 182 107 q 249 85 228 83 q 387 158 315 88 q 522 356 458 228 q 578 485 553 417 q 624 624 604 553 q 656 765 643 694 q 672 903 668 836 m 685 1621 q 687 1589 692 1606 q 667 1565 682 1572 q 642 1558 656 1558 q 599 1574 618 1558 q 572 1597 581 1589 q 541 1633 557 1613 q 510 1674 525 1653 l 475 1717 q 454 1672 465 1697 q 436 1628 443 1646 q 411 1567 421 1589 q 393 1535 401 1546 q 361 1519 381 1519 q 335 1529 344 1519 q 319 1557 321 1540 q 329 1586 318 1574 q 343 1616 333 1593 q 360 1658 353 1639 q 413 1774 392 1736 q 467 1815 435 1813 q 517 1794 494 1818 q 575 1724 539 1769 q 611 1678 590 1704 q 644 1642 632 1653 q 685 1621 672 1644 z "},"":{"ha":819,"x_min":60,"x_max":760,"o":"m 553 1343 q 597 1330 574 1339 q 642 1303 619 1321 q 687 1256 665 1285 q 724 1186 708 1228 q 752 1058 744 1131 q 754 897 760 985 q 737 751 750 826 q 703 602 724 676 q 655 456 682 528 q 596 318 628 383 q 446 99 526 179 q 251 1 351 6 l 244 1 q 113 75 161 1 q 65 243 74 136 q 65 399 60 313 q 89 590 71 486 q 127 777 104 681 q 179 971 150 874 q 233 1141 206 1061 q 289 1283 261 1221 q 326 1359 310 1329 q 358 1406 343 1389 q 384 1431 372 1424 q 408 1439 396 1438 q 492 1419 456 1446 q 542 1343 528 1393 l 553 1343 m 672 903 q 671 1046 678 982 q 647 1157 664 1110 q 544 1261 614 1246 l 542 1250 q 485 1175 526 1192 q 453 1175 468 1168 q 431 1199 438 1182 q 431 1229 424 1214 q 453 1251 438 1244 q 458 1258 456 1253 q 464 1278 461 1264 q 465 1305 467 1290 q 458 1331 464 1319 q 442 1354 451 1350 q 425 1358 432 1358 q 395 1312 417 1349 q 342 1196 374 1275 q 283 1031 313 1121 q 229 844 254 940 q 179 624 199 729 q 151 431 160 519 q 147 272 143 342 q 165 157 150 203 q 205 95 182 107 q 249 85 228 83 q 387 158 315 88 q 522 356 458 228 q 578 485 553 417 q 624 624 604 553 q 656 765 643 694 q 672 903 668 836 m 358 1639 q 383 1634 369 1639 q 408 1619 396 1629 q 428 1597 419 1610 q 436 1565 436 1583 q 420 1533 436 1538 q 389 1528 404 1528 q 343 1542 361 1528 q 325 1596 325 1557 q 334 1627 325 1615 q 358 1639 343 1639 m 567 1639 q 591 1634 578 1639 q 616 1619 604 1629 q 636 1597 628 1610 q 644 1565 644 1583 q 628 1533 644 1538 q 597 1528 613 1528 q 551 1542 569 1528 q 533 1596 533 1557 q 542 1627 533 1615 q 567 1639 551 1639 z "},"":{"ha":819,"x_min":60,"x_max":760,"o":"m 553 1343 q 597 1330 574 1339 q 642 1303 619 1321 q 687 1256 665 1285 q 724 1186 708 1228 q 752 1058 744 1131 q 754 897 760 985 q 737 751 750 826 q 703 602 724 676 q 655 456 682 528 q 596 318 628 383 q 446 99 526 179 q 251 1 351 6 l 244 1 q 113 75 161 1 q 65 243 74 136 q 65 399 60 313 q 89 590 71 486 q 127 777 104 681 q 179 971 150 874 q 233 1141 206 1061 q 289 1283 261 1221 q 326 1359 310 1329 q 358 1406 343 1389 q 384 1431 372 1424 q 408 1439 396 1438 q 492 1419 456 1446 q 542 1343 528 1393 l 553 1343 m 672 903 q 671 1046 678 982 q 647 1157 664 1110 q 544 1261 614 1246 l 542 1250 q 485 1175 526 1192 q 453 1175 468 1168 q 431 1199 438 1182 q 431 1229 424 1214 q 453 1251 438 1244 q 458 1258 456 1253 q 464 1278 461 1264 q 465 1305 467 1290 q 458 1331 464 1319 q 442 1354 451 1350 q 425 1358 432 1358 q 395 1312 417 1349 q 342 1196 374 1275 q 283 1031 313 1121 q 229 844 254 940 q 179 624 199 729 q 151 431 160 519 q 147 272 143 342 q 165 157 150 203 q 205 95 182 107 q 249 85 228 83 q 387 158 315 88 q 522 356 458 228 q 578 485 553 417 q 624 624 604 553 q 656 765 643 694 q 672 903 668 836 m 639 1636 q 634 1605 643 1619 q 608 1586 625 1590 q 525 1574 585 1581 q 399 1567 465 1567 q 385 1567 392 1567 q 371 1568 378 1567 q 341 1581 353 1568 q 331 1610 329 1593 q 344 1638 332 1626 q 374 1650 356 1650 q 439 1650 406 1649 q 502 1654 472 1651 q 555 1660 532 1657 q 589 1667 578 1664 q 620 1662 606 1671 q 639 1636 635 1653 z "},"":{"ha":819,"x_min":60,"x_max":760,"o":"m 553 1343 q 597 1330 574 1339 q 642 1303 619 1321 q 687 1256 665 1285 q 724 1186 708 1228 q 752 1058 744 1131 q 754 897 760 985 q 737 751 750 826 q 703 602 724 676 q 655 456 682 528 q 596 318 628 383 q 446 99 526 179 q 251 1 351 6 l 244 1 q 113 75 161 1 q 65 243 74 136 q 65 399 60 313 q 89 590 71 486 q 127 777 104 681 q 179 971 150 874 q 233 1141 206 1061 q 289 1283 261 1221 q 326 1359 310 1329 q 358 1406 343 1389 q 384 1431 372 1424 q 408 1439 396 1438 q 492 1419 456 1446 q 542 1343 528 1393 l 553 1343 m 672 903 q 671 1046 678 982 q 647 1157 664 1110 q 544 1261 614 1246 l 542 1250 q 485 1175 526 1192 q 453 1175 468 1168 q 431 1199 438 1182 q 431 1229 424 1214 q 453 1251 438 1244 q 458 1258 456 1253 q 464 1278 461 1264 q 465 1305 467 1290 q 458 1331 464 1319 q 442 1354 451 1350 q 425 1358 432 1358 q 395 1312 417 1349 q 342 1196 374 1275 q 283 1031 313 1121 q 229 844 254 940 q 179 624 199 729 q 151 431 160 519 q 147 272 143 342 q 165 157 150 203 q 205 95 182 107 q 249 85 228 83 q 387 158 315 88 q 522 356 458 228 q 578 485 553 417 q 624 624 604 553 q 656 765 643 694 q 672 903 668 836 m 694 1785 q 701 1763 699 1776 q 703 1734 703 1749 q 703 1708 704 1719 q 703 1696 703 1697 q 697 1635 703 1668 q 675 1574 690 1601 q 634 1531 657 1542 q 593 1519 611 1521 l 586 1519 q 537 1528 560 1519 q 494 1552 514 1538 q 456 1583 474 1567 q 424 1615 438 1600 q 409 1630 417 1622 q 396 1642 401 1638 q 376 1625 389 1639 q 347 1557 356 1599 q 329 1531 343 1540 q 299 1525 315 1522 q 272 1543 282 1529 q 267 1574 263 1557 q 318 1683 281 1640 q 400 1726 356 1726 q 441 1712 424 1726 q 482 1674 458 1697 q 533 1625 506 1650 q 589 1601 561 1600 q 601 1610 594 1601 q 615 1643 610 1622 q 621 1685 619 1664 q 621 1726 622 1707 q 618 1751 619 1744 q 618 1781 613 1767 q 639 1803 624 1796 q 670 1806 654 1811 q 694 1785 686 1800 z "},"":{"ha":819,"x_min":60,"x_max":760,"o":"m 553 1343 q 597 1330 574 1339 q 642 1303 619 1321 q 687 1256 665 1285 q 724 1186 708 1228 q 752 1058 744 1131 q 754 897 760 985 q 737 751 750 826 q 703 602 724 676 q 655 456 682 528 q 596 318 628 383 q 446 99 526 179 q 251 1 351 6 l 244 1 q 113 75 161 1 q 65 243 74 136 q 65 399 60 313 q 89 590 71 486 q 127 777 104 681 q 179 971 150 874 q 233 1141 206 1061 q 289 1283 261 1221 q 326 1359 310 1329 q 358 1406 343 1389 q 384 1431 372 1424 q 408 1439 396 1438 q 492 1419 456 1446 q 542 1343 528 1393 l 553 1343 m 672 903 q 671 1046 678 982 q 647 1157 664 1110 q 544 1261 614 1246 l 542 1250 q 485 1175 526 1192 q 453 1175 468 1168 q 431 1199 438 1182 q 431 1229 424 1214 q 453 1251 438 1244 q 458 1258 456 1253 q 464 1278 461 1264 q 465 1305 467 1290 q 458 1331 464 1319 q 442 1354 451 1350 q 425 1358 432 1358 q 395 1312 417 1349 q 342 1196 374 1275 q 283 1031 313 1121 q 229 844 254 940 q 179 624 199 729 q 151 431 160 519 q 147 272 143 342 q 165 157 150 203 q 205 95 182 107 q 249 85 228 83 q 387 158 315 88 q 522 356 458 228 q 578 485 553 417 q 624 624 604 553 q 656 765 643 694 q 672 903 668 836 m 654 1818 q 651 1674 697 1761 q 614 1617 636 1644 q 565 1568 592 1590 q 506 1533 538 1546 q 443 1519 475 1519 l 436 1519 q 356 1560 389 1522 q 323 1611 335 1582 q 305 1668 311 1640 q 297 1719 299 1696 q 296 1756 296 1743 q 310 1785 297 1774 q 339 1794 322 1796 q 368 1781 357 1793 q 378 1751 379 1769 q 379 1721 378 1739 q 385 1683 381 1703 q 398 1644 390 1663 q 417 1615 406 1626 q 430 1605 424 1607 q 440 1601 436 1603 q 476 1610 457 1601 q 513 1633 494 1618 q 549 1669 532 1649 q 578 1711 567 1689 q 591 1749 590 1735 q 589 1767 592 1763 q 580 1796 578 1779 q 596 1824 582 1813 q 626 1833 610 1835 q 654 1818 643 1831 z "},"":{"ha":903,"x_min":89,"x_max":879,"o":"m 826 335 q 858 328 843 338 q 876 303 872 319 q 870 272 879 286 q 844 254 861 257 q 831 252 838 253 q 814 251 824 251 q 733 260 779 251 q 642 282 688 269 q 556 307 596 294 q 496 326 517 319 q 397 363 443 344 q 314 400 350 382 q 285 414 297 407 q 261 428 272 421 q 247 306 254 364 q 235 199 240 249 q 221 79 226 124 q 211 11 215 35 q 202 -22 207 -12 q 192 -37 197 -32 q 161 -50 179 -50 q 146 -47 154 -50 q 119 -15 124 -37 q 111 39 114 7 q 109 92 110 61 q 108 165 108 124 q 107 342 107 244 q 107 547 107 439 q 108 763 108 656 q 107 958 108 869 q 106 1063 107 1022 q 102 1128 104 1104 q 99 1163 100 1153 q 96 1176 97 1174 q 96 1208 89 1192 q 118 1231 103 1224 q 149 1231 133 1238 q 172 1210 165 1225 q 178 1192 175 1203 q 183 1154 181 1181 q 186 1083 185 1128 q 189 967 188 1039 q 191 767 192 876 q 190 547 190 658 l 190 515 q 224 742 206 626 q 268 965 243 857 q 381 1293 318 1178 q 575 1438 463 1446 q 754 1364 689 1429 q 822 1203 814 1304 q 790 992 831 1107 q 671 767 750 878 q 509 593 597 665 q 326 485 421 521 q 413 446 358 468 q 542 399 467 424 q 730 345 654 361 q 826 335 806 329 m 278 556 q 449 651 365 583 q 604 815 533 718 q 710 1015 674 913 q 740 1196 747 1117 q 568 1356 728 1343 l 564 1356 q 453 1254 507 1356 q 399 1124 425 1201 q 349 947 372 1047 q 310 754 326 854 q 278 556 293 654 m 563 1594 q 580 1634 569 1606 q 600 1689 590 1663 q 653 1824 628 1768 q 713 1903 678 1879 q 744 1909 728 1913 q 769 1892 760 1906 q 777 1860 781 1876 q 758 1835 774 1844 q 735 1805 747 1828 q 713 1754 724 1782 q 692 1701 701 1726 q 678 1661 682 1675 q 639 1563 654 1594 q 601 1522 624 1532 q 594 1520 597 1521 q 586 1519 590 1519 q 547 1544 558 1519 q 547 1573 542 1560 q 563 1594 551 1586 z "},"":{"ha":903,"x_min":89,"x_max":879,"o":"m 826 335 q 858 328 843 338 q 876 303 872 319 q 870 272 879 286 q 844 254 861 257 q 831 252 838 253 q 814 251 824 251 q 733 260 779 251 q 642 282 688 269 q 556 307 596 294 q 496 326 517 319 q 397 363 443 344 q 314 400 350 382 q 285 414 297 407 q 261 428 272 421 q 247 306 254 364 q 235 199 240 249 q 221 79 226 124 q 211 11 215 35 q 202 -22 207 -12 q 192 -37 197 -32 q 161 -50 179 -50 q 146 -47 154 -50 q 119 -15 124 -37 q 111 39 114 7 q 109 92 110 61 q 108 165 108 124 q 107 342 107 244 q 107 547 107 439 q 108 763 108 656 q 107 958 108 869 q 106 1063 107 1022 q 102 1128 104 1104 q 99 1163 100 1153 q 96 1176 97 1174 q 96 1208 89 1192 q 118 1231 103 1224 q 149 1231 133 1238 q 172 1210 165 1225 q 178 1192 175 1203 q 183 1154 181 1181 q 186 1083 185 1128 q 189 967 188 1039 q 191 767 192 876 q 190 547 190 658 l 190 515 q 224 742 206 626 q 268 965 243 857 q 381 1293 318 1178 q 575 1438 463 1446 q 754 1364 689 1429 q 822 1203 814 1304 q 790 992 831 1107 q 671 767 750 878 q 509 593 597 665 q 326 485 421 521 q 413 446 358 468 q 542 399 467 424 q 730 345 654 361 q 826 335 806 329 m 278 556 q 449 651 365 583 q 604 815 533 718 q 710 1015 674 913 q 740 1196 747 1117 q 568 1356 728 1343 l 564 1356 q 453 1254 507 1356 q 399 1124 425 1201 q 349 947 372 1047 q 310 754 326 854 q 278 556 293 654 m 718 1794 q 703 1757 722 1774 q 685 1712 696 1744 q 665 1654 674 1679 q 644 1594 653 1618 q 629 1556 636 1571 q 615 1535 622 1542 q 600 1524 608 1528 q 582 1519 592 1519 q 543 1535 564 1519 q 490 1578 522 1550 q 440 1626 467 1600 q 392 1674 413 1653 q 371 1694 381 1685 q 354 1708 361 1703 q 342 1737 342 1719 q 353 1767 342 1754 q 381 1780 364 1779 q 411 1769 399 1781 l 449 1732 q 474 1707 458 1721 q 505 1677 489 1693 q 538 1647 521 1661 q 567 1621 554 1632 l 588 1681 q 602 1724 594 1703 q 617 1765 610 1746 q 639 1810 628 1792 q 672 1831 650 1828 q 702 1823 689 1833 q 718 1794 715 1813 z "}}}
